<svg width="332" height="52" viewBox="0 0 332 52" fill="none" xmlns="http://www.w3.org/2000/svg">
<mask id="path-1-inside-1_13_2086" fill="white">
<path fill-rule="evenodd" clip-rule="evenodd" d="M60 1C60 3.20914 58.2091 5 56 5C53.7909 5 52 3.20914 52 1C52 0.6547 52.0438 0.31962 52.126 0H3.37056C1.49803 0 0 1.67066 0 3.75901V48.2409C0 50.3293 1.49803 52 3.37056 52H52.126C52.0438 51.6804 52 51.3453 52 51C52 48.7909 53.7909 47 56 47C58.2091 47 60 48.7909 60 51C60 51.3453 59.9562 51.6804 59.874 52H328.629C330.502 52 332 50.1204 332 48.2409V3.75901C332 1.67066 330.502 0 328.629 0H59.874C59.9562 0.31962 60 0.6547 60 1Z"/>
</mask>
<path fill-rule="evenodd" clip-rule="evenodd" d="M60 1C60 3.20914 58.2091 5 56 5C53.7909 5 52 3.20914 52 1C52 0.6547 52.0438 0.31962 52.126 0H3.37056C1.49803 0 0 1.67066 0 3.75901V48.2409C0 50.3293 1.49803 52 3.37056 52H52.126C52.0438 51.6804 52 51.3453 52 51C52 48.7909 53.7909 47 56 47C58.2091 47 60 48.7909 60 51C60 51.3453 59.9562 51.6804 59.874 52H328.629C330.502 52 332 50.1204 332 48.2409V3.75901C332 1.67066 330.502 0 328.629 0H59.874C59.9562 0.31962 60 0.6547 60 1Z" fill="#1DC1FD"/>
<path d="M52.126 0L54.0629 0.498514L54.706 -2H52.126V0ZM52.126 52V54H54.706L54.0629 51.5015L52.126 52ZM59.874 52L57.9371 51.5015L57.294 54H59.874V52ZM59.874 0V-2H57.294L57.9371 0.498514L59.874 0ZM56 7C59.3137 7 62 4.31371 62 1H58C58 2.10457 57.1046 3 56 3V7ZM50 1C50 4.31371 52.6863 7 56 7V3C54.8954 3 54 2.10457 54 1H50ZM50.1891 -0.498514C50.0653 -0.0174144 50 0.48512 50 1H54C54 0.824281 54.0222 0.656654 54.0629 0.498514L50.1891 -0.498514ZM3.37056 2H52.126V-2H3.37056V2ZM2 3.75901C2 2.56448 2.80218 2 3.37056 2V-2C0.193885 -2 -2 0.776835 -2 3.75901H2ZM2 48.2409V3.75901H-2V48.2409H2ZM3.37056 50C2.80222 50 2 49.4355 2 48.2409H-2C-2 51.2231 0.193845 54 3.37056 54V50ZM52.126 50H3.37056V54H52.126V50ZM54.0629 51.5015C54.0222 51.3433 54 51.1757 54 51H50C50 51.5149 50.0653 52.0174 50.1891 52.4985L54.0629 51.5015ZM54 51C54 49.8954 54.8954 49 56 49V45C52.6863 45 50 47.6863 50 51H54ZM56 49C57.1046 49 58 49.8954 58 51H62C62 47.6863 59.3137 45 56 45V49ZM58 51C58 51.1757 57.9778 51.3433 57.9371 51.5015L61.8109 52.4985C61.9347 52.0174 62 51.5149 62 51H58ZM328.629 50H59.874V54H328.629V50ZM330 48.2409C330 48.6683 329.82 49.1513 329.503 49.5182C329.191 49.8797 328.868 50 328.629 50V54C330.264 54 331.626 53.1805 332.531 52.1324C333.431 51.0896 334 49.6931 334 48.2409H330ZM330 3.75901V48.2409H334V3.75901H330ZM328.629 2C329.198 2 330 2.56449 330 3.75901H334C334 0.776824 331.806 -2 328.629 -2V2ZM59.874 2H328.629V-2H59.874V2ZM62 1C62 0.48512 61.9347 -0.0174144 61.8109 -0.498514L57.9371 0.498514C57.9778 0.656654 58 0.824281 58 1H62Z" fill="#39559E" mask="url(#path-1-inside-1_13_2086)"/>
</svg>
