<svg width="62" height="63" viewBox="0 0 62 63" fill="none" xmlns="http://www.w3.org/2000/svg">
<path d="M31 62.312C48.1208 62.312 62 48.4328 62 31.312C62 14.1911 48.1208 0.311951 31 0.311951C13.8792 0.311951 0 14.1911 0 31.312C0 48.4328 13.8792 62.312 31 62.312Z" fill="#FFCC00"/>
<path d="M54.7202 11.353C49.0176 4.55852 40.5245 0.311951 31 0.311951C13.8924 0.311951 0 14.2043 0 31.312C0 34.8912 0.606652 38.3491 1.75929 41.5644C19.2309 31.1906 36.8845 21.0595 54.7202 11.353Z" fill="#FCDC59"/>
<path d="M34.5795 62.1299C41.6773 61.2806 48.1078 58.0653 52.9004 53.2728C48.0472 55.5781 43.2546 57.944 38.4014 60.31C37.1274 60.9166 35.8534 61.5233 34.5795 62.1299Z" fill="#FCDC59"/>
<path d="M30.4541 57.944C45.5311 57.944 57.7535 45.7217 57.7535 30.6446C57.7535 15.5676 45.5311 3.34521 30.4541 3.34521C15.377 3.34521 3.15466 15.5676 3.15466 30.6446C3.15466 45.7217 15.377 57.944 30.4541 57.944Z" fill="#C91D1D"/>
<path d="M31.6677 58.5507C46.4097 58.5507 58.3604 46.6 58.3604 31.858C58.3604 17.116 46.4097 5.16521 31.6677 5.16521C16.9257 5.16521 4.97491 17.116 4.97491 31.858C4.97491 46.6 16.9257 58.5507 31.6677 58.5507Z" fill="#FF3E4A"/>
</svg>
