<svg width="60" height="61" viewBox="0 0 60 61" fill="none" xmlns="http://www.w3.org/2000/svg">
<path d="M30 60.312C46.5685 60.312 60 46.8805 60 30.312C60 13.7434 46.5685 0.311951 30 0.311951C13.4315 0.311951 0 13.7434 0 30.312C0 46.8805 13.4315 60.312 30 60.312Z" fill="#FFCC00"/>
<path d="M52.955 10.9969C47.4364 4.42154 39.2172 0.311951 30 0.311951C13.4442 0.311951 0 13.7562 0 30.312C0 33.7758 0.587083 37.1221 1.70254 40.2337C18.6106 30.1945 35.6947 20.3902 52.955 10.9969Z" fill="#FCDC59"/>
<path d="M33.464 60.1358C40.3329 59.3139 46.556 56.2023 51.1939 51.5644C46.4973 53.7953 41.8593 56.0849 37.1626 58.3745C35.9297 58.9616 34.6969 59.5487 33.464 60.1358Z" fill="#FCDC59"/>
<path d="M29.4716 56.085C44.0623 56.085 55.8904 44.2569 55.8904 29.6662C55.8904 15.0755 44.0623 3.24738 29.4716 3.24738C14.8809 3.24738 3.05286 15.0755 3.05286 29.6662C3.05286 44.2569 14.8809 56.085 29.4716 56.085Z" fill="#DA8100"/>
<path d="M30.646 56.6721C44.9125 56.6721 56.4777 45.1068 56.4777 30.8404C56.4777 16.5739 44.9125 5.00867 30.646 5.00867C16.3796 5.00867 4.81433 16.5739 4.81433 30.8404C4.81433 45.1068 16.3796 56.6721 30.646 56.6721Z" fill="#F0AA00"/>
</svg>
