<svg width="31" height="26" viewBox="0 0 31 26" fill="none" xmlns="http://www.w3.org/2000/svg">
<path d="M13.3359 9.40659C13.3359 9.40659 4.02559 11.6233 3.05022 12.0962C2.07486 12.5691 -0.526114 15.8203 0.0945728 19.7218C0.715259 23.6233 4.46894 24.2735 6.68567 23.8006C8.87286 23.3277 16.9418 19.5445 16.9418 19.5445C16.9418 19.5445 20.7546 12.51 13.3359 9.40659Z" fill="#4D294B"/>
<path opacity="0.55" d="M16.9713 13.2489C15.5526 13.6627 14.3703 14.579 12.8925 14.5494C10.7053 14.4903 8.93195 15.5248 7.01077 16.0568V17.8893C9.10928 17.5642 11.06 16.2046 13.1881 16.2637C15.9073 16.3524 16.7349 15.7021 17.4147 14.9632C17.3556 14.4016 17.2373 13.8105 16.9713 13.2489Z" fill="#8B868A"/>
<path opacity="0.5" d="M12.863 17.6528C11.4738 18.1258 8.78416 20.0174 7.33589 20.4903C7.30634 20.7267 7.27678 20.9927 7.24722 21.2292V23.0026C10.1438 22.0568 16.7053 18.9829 16.7053 18.9829C16.7053 18.9829 17.1191 17.7711 17.4147 16.6184C16.1437 17.8597 15.4935 16.7957 12.863 17.6528Z" fill="#3C153A"/>
<path opacity="0.55" d="M14.6659 10.5297C12.4787 11.5051 10.1733 11.0618 7.39502 12.3918C7.2768 12.4509 7.15857 12.4509 7.04034 12.51V13.7809C8.4295 13.2489 10.6462 12.4509 11.9467 12.4509C13.7201 12.4509 14.2226 11.8007 15.7595 11.446C15.4344 11.1209 15.0797 10.8253 14.6659 10.5297Z" fill="#8B868A"/>
<path d="M10.2325 21.0518C11.4738 18.9829 12.2127 17.1504 11.6512 14.9041C10.4985 10.1159 5.23741 11.446 3.43446 11.978C3.25712 12.0371 3.13889 12.0962 3.05022 12.1258C2.07486 12.5987 -0.526114 15.8499 0.0945728 19.7514C0.715259 23.5937 4.38027 24.3031 6.59701 23.8302C6.83346 23.6824 9.3162 22.5592 10.2325 21.0518Z" fill="#634361"/>
<path d="M10.2915 14.4016C9.19795 12.3031 6.9221 12.2145 5.06004 12.5396C4.29157 12.7465 3.73 12.9238 3.5231 13.0125C2.69552 13.4263 0.537894 16.1159 1.04035 19.3671C1.57237 22.6183 4.70536 23.1799 6.53787 22.7661C6.80387 22.707 7.15855 22.5888 7.6019 22.441C9.75952 20.5198 11.6216 16.9139 10.2915 14.4016Z" fill="#DED4CA"/>
<path d="M8.93195 15.8203C8.81373 15.3474 8.39994 14.1652 6.59699 14.1356C4.91227 14.1061 3.31622 15.1701 2.87287 16.7957C2.69553 17.446 2.66597 18.2144 3.05021 18.9829C4.17336 21.2883 8.93195 20.2834 8.96151 16.1159C8.96151 16.0272 8.96151 15.9386 8.93195 15.8203Z" fill="#654F42"/>
<path d="M7.7497 18.0962C7.21768 16.9139 5.73985 16.8253 4.64626 17.4755C4.1438 17.712 3.90735 18.0962 3.73001 18.51C4.88271 19.0716 6.3901 19.0716 7.7497 18.0962Z" fill="#DA2D36"/>
<path d="M6.5083 18.7169C6.47875 18.244 6.27185 17.7415 5.73983 17.7415C5.38516 17.7415 5.00092 18.2144 4.94181 18.5395C4.91225 18.6578 4.94181 18.776 4.97137 18.8942C5.47383 18.9238 6.00584 18.8647 6.5083 18.7169Z" fill="#B1353B"/>
<path d="M3.05021 16.3228C2.96154 16.5001 2.90243 16.6479 2.87287 16.8253C2.69553 17.4755 2.66597 18.244 3.05021 19.0125C3.43444 19.8105 4.29158 20.2243 5.20783 20.2243C5.44429 18.4509 4.64626 16.8844 3.05021 16.3228Z" fill="#E6545B"/>
<path d="M7.0699 19.1307C6.68566 18.9829 5.62163 18.2144 5.23739 18.3918C4.67582 18.6578 4.55759 18.6873 4.1438 19.1307C3.96646 19.3376 3.75957 19.5445 3.55267 19.7218C4.55759 20.5198 6.33099 20.4016 7.5428 19.3376C7.42458 19.2489 7.24724 19.1898 7.0699 19.1307Z" fill="#E6545B"/>
<path d="M8.87282 16.9139C7.66101 16.441 6.53786 17.4164 6.24229 18.6578C6.06496 19.1898 6.15363 19.6036 6.33096 20.0469C7.51322 19.6331 8.60681 18.5691 8.87282 16.9139Z" fill="#E6545B"/>
<path d="M6.36054 12.8056C6.1832 12.5396 5.85808 12.2145 5.47385 12.244C5.20784 12.0667 4.64626 12.244 4.49848 12.51C4.26203 12.8647 4.58715 13.1011 4.91227 13.1898C5.32606 13.3376 6.83344 13.5741 6.36054 12.8056Z" fill="#FAECE2"/>
<path d="M8.48861 12.1553C8.2226 11.8598 7.63147 11.8893 7.27679 11.978C7.01078 12.0371 6.33098 12.244 6.74477 12.5987C7.04034 12.8351 7.89748 13.0125 8.25216 12.776C8.45905 12.6282 8.87284 12.244 8.48861 12.1553Z" fill="#FAECE2"/>
<path d="M7.80881 13.5741C7.63147 13.3967 7.36546 13.2194 7.0699 13.1603C6.80389 13.1011 6.27187 13.2194 6.59699 13.5445C6.83345 13.781 7.33591 13.9287 7.66103 13.9583C8.19304 14.0174 7.95659 13.7218 7.80881 13.5741Z" fill="#FAECE2"/>
<path d="M9.34574 13.0716C8.28171 12.6874 8.0157 14.9041 8.99106 14.5199C9.55264 14.2834 10.2029 13.3967 9.34574 13.0716Z" fill="#FAECE2"/>
<path d="M10.6758 14.8154C10.6758 14.4607 10.4098 14.2539 10.0846 14.313C9.70042 14.4016 9.58219 14.8154 9.67086 15.1701C9.75953 15.5543 10.1733 15.7317 10.4984 15.4952C10.8827 15.2588 10.6758 15.1997 10.6758 14.8154Z" fill="#FAECE2"/>
<path d="M5.32608 13.6627C5.29652 13.6627 5.26697 13.6332 5.23741 13.6627C4.94184 13.3967 3.6118 13.6036 4.11426 14.1061C4.35071 14.3425 4.91229 14.2243 5.1783 14.1061C5.53297 13.9287 5.71031 13.7809 5.32608 13.6627Z" fill="#FAECE2"/>
<path d="M3.49354 13.3967C3.19798 13.2785 2.75463 13.4558 2.51818 13.6923C2.31128 13.8992 2.01572 14.3721 2.45907 14.4903C2.8433 14.579 3.37532 14.2834 3.55266 13.9583C3.67088 13.7218 3.90734 13.2194 3.49354 13.3967Z" fill="#FAECE2"/>
<path d="M3.07978 14.9336C2.87288 14.8745 2.42954 14.9336 2.31131 15.111C2.13397 15.111 1.83841 15.3474 1.89752 15.5543C1.95663 15.8203 2.48865 15.7317 2.66599 15.6726C2.87288 15.6134 3.19801 15.4657 3.22756 15.1997C3.25712 14.9337 3.28668 14.8745 3.07978 14.9336Z" fill="#FAECE2"/>
<path d="M1.80884 16.1455C1.12904 16.0864 0.685692 17.3277 1.39505 17.3868C2.04529 17.4164 2.48864 16.2046 1.80884 16.1455Z" fill="#FAECE2"/>
<path d="M9.90731 16.2341C9.31618 16.0273 8.51816 17.1504 9.05017 17.2686C9.78909 17.446 10.7645 16.5297 9.90731 16.2341Z" fill="#FAECE2"/>
<path d="M10.6758 16.6184C10.1142 16.5297 9.84821 17.8302 10.528 17.712C10.8236 17.6824 10.9122 17.3277 10.8531 17.0617C10.794 16.707 10.6167 16.6479 10.262 16.6479L10.6758 16.6184Z" fill="#FAECE2"/>
<path d="M9.70042 18.1553C9.25707 18.0075 9.1684 18.6578 9.13884 18.9533C9.10928 19.4262 9.46396 19.5445 9.8482 19.4262C10.1733 19.1011 10.1438 18.4213 9.75953 18.1553C9.70041 18.0962 9.78909 18.1849 9.70042 18.1553Z" fill="#FAECE2"/>
<path d="M8.6364 19.3376C8.34083 19.1602 7.77926 19.3967 7.51325 19.5445C7.09946 19.7809 7.21769 20.0765 7.72015 20.0765C8.01571 20.0765 8.60684 19.9583 8.75462 19.6627C8.81374 19.4262 8.87285 19.2194 8.6364 19.3376Z" fill="#FAECE2"/>
<path d="M8.66594 20.3129C7.77924 20.2243 7.30634 21.8794 8.19304 21.7908C8.63638 21.7316 8.9615 21.2883 8.93195 20.8449C8.93195 20.4312 8.72505 20.0469 8.25215 20.4607L8.66594 20.3129Z" fill="#FAECE2"/>
<path d="M7.15857 20.6972C6.83345 20.5494 6.27187 20.6676 6.03542 20.9336C5.73986 21.2587 5.97631 21.5543 6.36054 21.6134C6.68566 21.643 7.42458 21.4656 7.48369 21.0519C7.51325 20.6972 7.42458 20.6381 7.15857 20.6972Z" fill="#FAECE2"/>
<path d="M4.8236 20.7563C3.90735 20.6676 3.84824 22.1454 4.64626 22.0863C5.44429 22.0272 5.35562 20.4903 4.8236 20.7563Z" fill="#FAECE2"/>
<path d="M6.95166 22.1454C6.50831 22.0568 6.06496 22.0272 5.68073 22.2637C5.29649 22.5297 5.20782 22.9435 5.79895 23.0321C6.15363 23.0913 6.86299 23.0321 7.09944 22.7366C7.395 22.3228 7.27678 22.2046 6.95166 22.1454Z" fill="#FAECE2"/>
<path d="M3.43444 21.5543C3.0502 21.643 2.81375 22.0272 2.96153 22.4114C3.0502 22.6775 3.64133 22.9139 3.90734 22.8844C4.43936 22.7957 4.26202 21.3474 3.43444 21.5543Z" fill="#FAECE2"/>
<path d="M2.66597 20.1652C1.86794 20.1947 2.87286 21.909 3.40488 21.1701C3.75956 20.6381 3.10932 19.84 2.66597 20.1652Z" fill="#FAECE2"/>
<path d="M2.3113 19.2193C1.98618 19.1011 1.36549 19.3376 1.12904 19.6036C0.863032 19.8696 0.774362 20.372 1.24727 20.4016C1.69061 20.4312 2.22263 20.106 2.39997 19.7218C2.54775 19.3376 2.72509 19.3376 2.3113 19.2193Z" fill="#FAECE2"/>
<path d="M1.8975 18.0666C1.66104 17.8597 1.18814 17.8006 0.892575 17.9189C0.478784 18.0962 0.656123 18.5691 0.951688 18.7464C1.27681 18.9238 1.83838 18.9829 2.04528 18.5987C2.25217 18.244 2.13395 18.2735 1.8975 18.0666Z" fill="#FAECE2"/>
<path d="M2.45908 21.6134C2.37041 21.2883 2.22263 20.9336 1.86795 20.8745C1.48372 20.8154 1.27682 21.111 1.33594 21.4656C1.36549 21.8203 1.80884 22.2341 2.19307 22.1159C2.60687 21.9977 2.54775 21.9385 2.45908 21.6134Z" fill="#FAECE2"/>
<path d="M8.45904 18.2144C8.10436 17.9189 7.63146 17.6824 7.21767 18.0666C6.95166 18.3031 7.01077 18.9238 7.21767 19.1898C7.27678 19.308 7.39501 19.3671 7.48368 19.3967C7.83836 19.1011 8.19303 18.6873 8.45904 18.2144Z" fill="#B1353B"/>
<path d="M6.53787 19.9583C6.4492 19.8696 6.33098 19.8105 6.27187 19.7514C6.15364 19.6627 5.88763 19.6036 5.82852 19.4854H5.79896C5.56251 19.1898 5.26694 19.3967 5.00094 19.574C4.85315 19.6627 4.46892 19.8696 4.38025 20.106C5.03049 20.3129 5.79896 20.2538 6.53787 19.9583Z" fill="#DA2D36"/>
<path d="M4.02557 17.9484C3.87779 17.5051 3.37533 17.446 3.0502 17.6824C2.93198 17.7415 2.84331 17.8302 2.75464 17.9484C2.7842 18.3031 2.87286 18.6578 3.0502 19.0125C3.13887 19.2193 3.28666 19.3967 3.43444 19.5445C3.52311 19.5445 3.64133 19.4854 3.73 19.4262C4.11424 19.1307 4.17335 18.4213 4.02557 17.9484Z" fill="#B1353B"/>
<path d="M3.75955 15.2883L4.55758 17.1799L5.71028 16.1455L5.08959 14.4312C4.61669 14.6085 4.14379 14.9041 3.75955 15.2883Z" fill="#13AF5B"/>
<path d="M5.5625 15.7021C5.47383 15.8795 5.32605 15.9977 5.11915 16.0568C4.76447 16.1455 4.32113 15.9386 4.23246 15.5543C4.23246 15.5248 4.17334 15.377 4.23246 15.4952C4.2029 15.4657 4.2029 15.4066 4.17334 15.377C4.11423 15.2588 4.08467 15.1701 4.02556 15.0519V15.0223C3.93689 15.111 3.84822 15.1701 3.75955 15.2588L4.55758 17.1504L5.71028 16.1159L5.5625 15.7021Z" fill="#00903D"/>
<path d="M8.93195 15.8203C8.84328 15.4361 8.54771 14.6085 7.51323 14.2834L7.06989 16.7662L8.93195 15.9681C8.93195 15.9386 8.93195 15.8795 8.93195 15.8203Z" fill="#13AF5B"/>
<path d="M8.84328 15.5543C8.57727 15.7021 8.2817 15.8203 7.95658 15.8795C8.10436 15.8499 8.04525 15.8795 7.98614 15.8795C7.8088 15.909 7.6019 15.909 7.45412 15.8203C7.39501 15.7612 7.30634 15.7317 7.27678 15.643L7.06989 16.7957L8.93195 15.9977C8.93195 15.9386 8.93195 15.909 8.93195 15.8499C8.90239 15.7612 8.87283 15.6726 8.84328 15.5543Z" fill="#00903D"/>
<path d="M5.85807 15.8795L5.03049 17.0617L6.50831 16.9435L7.06989 16.2046L5.85807 15.8795Z" fill="#FBDF6A"/>
<path d="M6.56744 14.1652C6.1832 14.1652 5.76941 14.2243 5.41473 14.313L5.82852 15.7021L7.12901 15.9681L7.33591 14.2539C7.12901 14.1947 6.863 14.1652 6.56744 14.1652Z" fill="#FBDF6A"/>
<path d="M6.86301 16.3819C6.65611 16.5593 6.27188 16.5888 6.03542 16.5001C5.85808 16.441 5.7103 16.3524 5.62163 16.2046L5.06006 17.0322L6.50833 16.9139L7.0699 16.1455H7.04034C7.01079 16.2637 6.95167 16.3228 6.86301 16.3819Z" fill="#FFB152"/>
<path d="M6.36054 15.2292C5.91719 15.0223 5.88764 14.6085 5.88764 14.1947C5.73986 14.2243 5.56252 14.2539 5.41473 14.313L5.82852 15.7021L7.12901 15.9681L7.21768 15.1405C7.01078 15.3474 6.65611 15.377 6.36054 15.2292Z" fill="#FFB152"/>
<path opacity="0.55" d="M14.5479 13.7726C15.3121 13.7053 15.891 13.1894 15.8409 12.6203C15.7907 12.0512 15.1306 11.6444 14.3664 11.7117C13.6022 11.779 13.0233 12.2949 13.0734 12.864C13.1235 13.4331 13.7837 13.8399 14.5479 13.7726Z" fill="#8B868A"/>
<path opacity="0.55" d="M11.9533 12.7421C12.2459 12.7163 12.467 12.5109 12.4469 12.2833C12.4268 12.0556 12.1733 11.892 11.8807 11.9178C11.588 11.9436 11.367 12.149 11.387 12.3766C11.4071 12.6043 11.6606 12.7679 11.9533 12.7421Z" fill="#8B868A"/>
<path opacity="0.55" d="M13.3359 9.40659C13.3359 9.40659 5.44431 11.2982 3.43447 11.9484C3.37535 11.978 3.31624 11.978 3.25713 12.0076C3.22757 12.0076 3.22757 12.0076 3.19802 12.0371C3.16846 12.0371 3.16846 12.0371 3.1389 12.0667C3.10935 12.0962 3.07979 12.0962 3.05023 12.0962C3.02068 12.0962 3.02068 12.1258 2.99112 12.1258C4.82362 11.6824 6.71524 11.2095 8.51819 11.7711C10.3802 12.3622 11.533 13.8992 11.5921 15.8499C11.7103 18.9238 10.5576 21.4952 8.48863 23.1799C11.6807 21.9681 16.9122 19.5445 16.9122 19.5445C16.9122 19.5445 20.7546 12.51 13.3359 9.40659Z" fill="#544D53"/>
<path d="M22.8235 0.805641C22.8235 0.805641 13.3063 1.86967 12.3014 2.25391C11.2669 2.60859 8.28171 5.50512 8.42949 9.4657C8.57727 13.4263 12.2127 14.5199 14.459 14.313C16.7053 14.1061 25.1585 11.3278 25.1585 11.3278C25.1585 11.3278 29.7988 4.79577 22.8235 0.805641Z" fill="#4D294B"/>
<path opacity="0.55" d="M25.9565 5.06178C24.5082 5.29823 23.2077 6.0667 21.7595 5.8598C19.6019 5.53468 17.7102 6.33271 15.73 6.62827L15.4935 8.46077C17.6216 8.3721 19.7201 7.27851 21.8186 7.57408C24.5082 7.98787 25.3949 7.45586 26.1634 6.80561C26.193 6.24404 26.1338 5.65291 25.9565 5.06178Z" fill="#8B868A"/>
<path opacity="0.5" d="M21.3457 8.93368C19.8974 9.22925 17.0009 10.7957 15.5231 11.0913C15.4639 11.3278 15.4048 11.5642 15.3457 11.8007L15.1388 13.5445C18.124 12.9534 25.0403 10.7071 25.0403 10.7071C25.0403 10.7071 25.6018 9.55436 26.0156 8.43122C24.5673 9.52481 24.0649 8.40166 21.3457 8.93368Z" fill="#3C153A"/>
<path opacity="0.55" d="M24.0058 2.07657C21.7299 2.75637 19.4836 2.04702 16.5575 3.02238C16.4393 3.05194 16.2915 3.05194 16.1733 3.08149L16.0255 4.32286C17.4738 3.96819 19.7496 3.43617 21.0501 3.58395C22.794 3.79085 23.4146 3.22928 24.9516 3.05194C24.6856 2.75637 24.3604 2.43125 24.0058 2.07657Z" fill="#8B868A"/>
<path d="M18.3309 12.0076C19.8087 10.1159 20.7545 8.37211 20.4885 6.0667C19.927 1.16032 14.5477 1.86968 12.6856 2.16524C12.5083 2.1948 12.3605 2.22435 12.2718 2.25391C11.2373 2.60859 8.25214 5.50512 8.39992 9.4657C8.5477 13.3672 12.0945 14.4903 14.3408 14.313C14.6068 14.1947 17.2373 13.3672 18.3309 12.0076Z" fill="#634361"/>
<path d="M19.1585 5.3869C18.3014 3.17016 16.0551 2.81549 14.193 2.90416C13.395 3.02238 12.8039 3.11105 12.6265 3.19972C11.7694 3.49529 9.28664 5.91892 9.40487 9.22925C9.52309 12.51 12.5674 13.4558 14.459 13.2785C14.725 13.2489 15.1093 13.1898 15.5526 13.0716C17.9171 11.3869 20.193 8.04699 19.1585 5.3869Z" fill="#DED4CA"/>
<path d="M17.6511 6.65783C17.592 6.15537 17.326 4.94355 15.5231 4.7071C13.8383 4.47064 12.1536 5.35734 11.5034 6.92383C11.2374 7.54452 11.1487 8.28344 11.4147 9.11102C12.2423 11.5347 17.0896 11.0913 17.6511 6.98295C17.6511 6.86472 17.6511 6.7465 17.6511 6.65783Z" fill="#654F42"/>
<path d="M16.2029 8.75634C15.8186 7.51496 14.3703 7.24896 13.2176 7.78098C12.7152 7.95831 12.4196 8.31299 12.1832 8.69723C13.2472 9.34747 14.725 9.55436 16.2029 8.75634Z" fill="#DA2D36"/>
<path d="M14.9024 9.19969C14.9319 8.72678 14.7841 8.22432 14.2521 8.13565C13.8974 8.07654 13.4837 8.51989 13.3654 8.84502C13.3359 8.96324 13.3359 9.08146 13.3654 9.19969C13.8679 9.28836 14.3703 9.31791 14.9024 9.19969Z" fill="#B1353B"/>
<path d="M11.7398 6.42138C11.6512 6.56916 11.5625 6.7465 11.5034 6.89429C11.2374 7.51497 11.1487 8.25388 11.4147 9.08147C11.7103 9.9386 12.4787 10.4411 13.395 10.5297C13.8975 8.84501 13.2768 7.16029 11.7398 6.42138Z" fill="#E6545B"/>
<path d="M15.4344 9.6726C15.0501 9.4657 14.1043 8.60856 13.7201 8.72679C13.129 8.93368 13.0107 8.93368 12.5674 9.31792C12.3605 9.49525 12.124 9.6726 11.9171 9.82038C12.8038 10.7366 14.5772 10.8253 15.9368 9.90905C15.7299 9.84993 15.5822 9.76127 15.4344 9.6726Z" fill="#E6545B"/>
<path d="M17.4738 7.72186C16.3211 7.10118 15.1093 7.92876 14.6364 9.11102C14.3999 9.61348 14.4295 10.0568 14.5477 10.5002C15.7891 10.2342 17.0009 9.31791 17.4738 7.72186Z" fill="#E6545B"/>
<path d="M15.4639 3.3475C15.3457 3.08149 15.0501 2.69726 14.6659 2.6677C14.4294 2.46081 13.8383 2.57903 13.661 2.78593C13.395 3.11105 13.6905 3.37706 13.9861 3.52484C14.3999 3.73174 15.8482 4.14553 15.4639 3.3475Z" fill="#FAECE2"/>
<path d="M17.6511 2.96327C17.4147 2.63815 16.8235 2.57903 16.4689 2.63814C16.2028 2.6677 15.4935 2.78593 15.8777 3.19972C16.1437 3.46573 16.9713 3.73174 17.3555 3.5544C17.5624 3.43617 18.0353 3.08149 17.6511 2.96327Z" fill="#FAECE2"/>
<path d="M16.8235 4.26375C16.6758 4.05686 16.4097 3.84996 16.1437 3.76129C15.8777 3.67262 15.3457 3.70218 15.6413 4.08642C15.8482 4.35242 16.3211 4.55932 16.6462 4.64799C17.1487 4.73666 16.9418 4.44109 16.8235 4.26375Z" fill="#FAECE2"/>
<path d="M18.3901 3.96819C17.3851 3.46573 16.8236 5.62335 17.858 5.35734C18.4492 5.18 19.2176 4.38198 18.3901 3.96819Z" fill="#FAECE2"/>
<path d="M19.4836 5.8598C19.5132 5.50513 19.3063 5.26867 18.9516 5.29823C18.5378 5.32778 18.39 5.71202 18.4491 6.09625C18.5083 6.48049 18.8629 6.71694 19.2176 6.5396C19.6905 6.30315 19.4541 6.24404 19.4836 5.8598Z" fill="#FAECE2"/>
<path d="M14.3408 4.05686C14.3112 4.05686 14.2817 4.0273 14.2521 4.0273C13.9861 3.73174 12.6265 3.79085 13.0994 4.35242C13.3063 4.58888 13.8679 4.58888 14.1635 4.47065C14.5181 4.32287 14.725 4.2342 14.3408 4.05686Z" fill="#FAECE2"/>
<path d="M12.5674 3.5544C12.2718 3.40661 11.8285 3.52484 11.5625 3.73173C11.3556 3.90907 11.0009 4.35242 11.3851 4.52976C11.7694 4.67754 12.3014 4.44109 12.5083 4.14553C12.6856 3.90907 12.9812 3.43617 12.5674 3.5544Z" fill="#FAECE2"/>
<path d="M11.9763 5.06178C11.7989 4.97311 11.326 4.97311 11.1783 5.12089C11.0009 5.12089 10.6758 5.29823 10.7053 5.50513C10.7349 5.80069 11.2669 5.77114 11.4443 5.71203C11.6512 5.68247 12.0058 5.56424 12.0354 5.32779C12.1241 5.09134 12.1832 5.00267 11.9763 5.06178Z" fill="#FAECE2"/>
<path d="M10.528 6.09625C9.87775 5.94847 9.28662 7.13073 9.96642 7.27851C10.6462 7.39674 11.2374 6.24404 10.528 6.09625Z" fill="#FAECE2"/>
<path d="M18.5674 7.16029C18.0058 6.86473 17.0895 7.89921 17.592 8.1061C18.3014 8.34255 19.395 7.57408 18.5674 7.16029Z" fill="#FAECE2"/>
<path d="M19.3063 7.6332C18.7743 7.48541 18.3605 8.72678 19.0107 8.72678C19.3063 8.72678 19.4245 8.40166 19.4245 8.13565C19.395 7.78097 19.2472 7.69231 18.8925 7.66275L19.3063 7.6332Z" fill="#FAECE2"/>
<path d="M18.124 9.0519C17.7102 8.845 17.5329 9.46569 17.4738 9.79081C17.3851 10.2637 17.7102 10.4115 18.124 10.3524C18.4787 10.0864 18.5378 9.37702 18.1831 9.08146C18.124 8.96323 18.2127 9.08146 18.124 9.0519Z" fill="#FAECE2"/>
<path d="M16.9418 10.0864C16.6758 9.87949 16.0846 10.0568 15.7891 10.1751C15.3457 10.3524 15.4344 10.648 15.9073 10.7366C16.2029 10.7662 16.8236 10.7366 16.9713 10.4411C17.1191 10.2046 17.2078 9.99772 16.9418 10.0864Z" fill="#FAECE2"/>
<path d="M16.8531 11.0618C15.9664 10.8549 15.3162 12.4509 16.2029 12.4805C16.6462 12.4805 17.0304 12.0667 17.06 11.6529C17.0895 11.2391 16.9418 10.8253 16.4393 11.18L16.8531 11.0618Z" fill="#FAECE2"/>
<path d="M15.3162 11.2686C15.0206 11.0913 14.4295 11.1504 14.1635 11.3869C13.8383 11.6824 14.0452 12.0076 14.3999 12.0962C14.725 12.1553 15.464 12.0667 15.5822 11.6824C15.6708 11.2982 15.5822 11.2391 15.3162 11.2686Z" fill="#FAECE2"/>
<path d="M12.9812 11.0322C12.0945 10.8253 11.8285 12.3031 12.6561 12.3327C13.4541 12.3918 13.5428 10.8549 12.9812 11.0322Z" fill="#FAECE2"/>
<path d="M14.9023 12.6578C14.4886 12.51 14.0452 12.4213 13.6019 12.6282C13.1881 12.8351 13.0698 13.2489 13.6314 13.3967C13.9861 13.4854 14.6954 13.5149 14.9615 13.2489C15.3457 12.9238 15.257 12.776 14.9023 12.6578Z" fill="#FAECE2"/>
<path d="M11.5034 11.6824C11.1191 11.7415 10.8531 12.0962 10.9418 12.4805C11.0009 12.7465 11.5625 13.0716 11.8285 13.042C12.3605 13.0125 12.3605 11.5642 11.5034 11.6824Z" fill="#FAECE2"/>
<path d="M10.9122 10.2046C10.1142 10.1455 10.9122 11.9484 11.5034 11.2982C11.9467 10.7957 11.4147 9.90904 10.9122 10.2046Z" fill="#FAECE2"/>
<path d="M10.6758 9.19969C10.3507 9.0519 9.70042 9.19969 9.43441 9.43614C9.13884 9.6726 8.99106 10.1455 9.46397 10.2342C9.90731 10.3228 10.4689 10.0568 10.7053 9.70215C10.8827 9.34747 11.06 9.37703 10.6758 9.19969Z" fill="#FAECE2"/>
<path d="M10.4098 8.01743C10.2029 7.78098 9.72999 7.66275 9.43443 7.75142C8.99108 7.8992 9.10931 8.3721 9.40487 8.579C9.70044 8.7859 10.262 8.90413 10.4985 8.54945C10.7349 8.22433 10.6167 8.25388 10.4098 8.01743Z" fill="#FAECE2"/>
<path d="M10.528 11.6233C10.4985 11.2982 10.3802 10.914 10.0255 10.8253C9.64131 10.7366 9.43442 10.9731 9.43442 11.3573C9.43442 11.712 9.81865 12.1553 10.2029 12.0962C10.6167 12.0076 10.5576 11.9189 10.528 11.6233Z" fill="#FAECE2"/>
<path d="M16.8826 8.96324C16.5871 8.60857 16.1142 8.34256 15.6708 8.66768C15.3753 8.87457 15.3753 9.49526 15.523 9.79082C15.5821 9.90905 15.6708 9.99772 15.7595 10.0273C16.2028 9.76127 16.5871 9.40659 16.8826 8.96324Z" fill="#B1353B"/>
<path d="M14.7841 10.4411C14.6955 10.3524 14.6068 10.2637 14.5477 10.2046C14.4295 10.1159 14.193 9.99771 14.1339 9.90904H14.1044C13.8975 9.58392 13.5723 9.76127 13.3063 9.87949C13.1585 9.96816 12.7448 10.1159 12.6265 10.3228C13.2472 10.6184 14.0157 10.648 14.7841 10.4411Z" fill="#DA2D36"/>
<path d="M12.5379 8.16521C12.4492 7.72186 11.9763 7.60364 11.5921 7.78098C11.4738 7.84009 11.3556 7.92876 11.2669 8.01743C11.2374 8.37211 11.2965 8.72679 11.4147 9.11102C11.5034 9.31792 11.5921 9.52481 11.7398 9.70215C11.8285 9.70215 11.9467 9.67259 12.0354 9.61348C12.4787 9.31791 12.6265 8.63812 12.5379 8.16521Z" fill="#B1353B"/>
<path d="M12.597 5.47557L13.1585 7.45585L14.4295 6.56916L14.0157 4.79577C13.5132 4.91399 13.0107 5.15045 12.597 5.47557Z" fill="#13AF5B"/>
<path d="M14.3408 6.09625C14.2521 6.24404 14.0748 6.36226 13.8679 6.39182C13.5132 6.45093 13.0699 6.18492 13.0699 5.80069C13.0699 5.77113 13.0107 5.59379 13.0699 5.74158C13.0699 5.71202 13.0403 5.65291 13.0403 5.62335C13.0107 5.50513 12.9516 5.3869 12.9516 5.26867V5.23912C12.8334 5.29823 12.7447 5.3869 12.6561 5.44601L13.2176 7.4263L14.4886 6.5396L14.3408 6.09625Z" fill="#00903D"/>
<path d="M17.6511 6.65783C17.6216 6.2736 17.4147 5.41646 16.4393 4.97311L15.7004 7.39674L17.6511 6.80561C17.6511 6.7465 17.6511 6.68739 17.6511 6.65783Z" fill="#13AF5B"/>
<path d="M17.592 6.36227C17.2965 6.48049 17.0009 6.56916 16.6758 6.56916C16.8531 6.56916 16.7644 6.56916 16.7053 6.56916C16.4984 6.56916 16.3211 6.56916 16.1733 6.42138C16.1142 6.36227 16.0551 6.30315 15.996 6.24404L15.6413 7.36719L17.592 6.77606C17.592 6.71694 17.592 6.68739 17.592 6.62827C17.6511 6.56916 17.6216 6.48049 17.592 6.36227Z" fill="#00903D"/>
<path d="M14.5773 6.30315L13.661 7.39674L15.1093 7.45586L15.7595 6.77606L14.5773 6.30315Z" fill="#FBDF6A"/>
<path d="M15.523 4.7071C15.1388 4.64799 14.725 4.67755 14.3703 4.73666L14.6068 6.18493L15.8777 6.59872L16.2915 4.914C16.0551 4.82533 15.8186 4.73666 15.523 4.7071Z" fill="#FBDF6A"/>
<path d="M15.5231 6.95339C15.2866 7.10118 14.9319 7.10117 14.6659 6.98295C14.4886 6.89428 14.3704 6.77606 14.2817 6.65783L13.6314 7.4263L15.0797 7.48541L15.73 6.80561C15.7004 6.83517 15.6117 6.89428 15.5231 6.95339Z" fill="#FFB152"/>
<path d="M15.1684 5.74158C14.7546 5.50513 14.7841 5.06178 14.8432 4.67755C14.6955 4.67755 14.5181 4.7071 14.3703 4.73666L14.6068 6.18493L15.8777 6.59872L16.0846 5.77114C15.8186 5.94848 15.4639 5.91892 15.1684 5.74158Z" fill="#FFB152"/>
<path opacity="0.55" d="M24.8929 4.3159C24.912 3.74491 24.306 3.26119 23.5392 3.23547C22.7725 3.20975 22.1354 3.65177 22.1162 4.22276C22.0971 4.79374 22.7031 5.27746 23.4699 5.30319C24.2366 5.32891 24.8737 4.88688 24.8929 4.3159Z" fill="#8B868A"/>
<path opacity="0.55" d="M21.5779 3.55394C21.5856 3.32555 21.3537 3.13241 21.0601 3.12257C20.7664 3.11272 20.5222 3.28988 20.5145 3.51828C20.5069 3.74667 20.7387 3.9398 21.0323 3.94965C21.326 3.9595 21.5702 3.78233 21.5779 3.55394Z" fill="#8B868A"/>
<path d="M25.7201 11.0026C25.7201 11.0026 16.4098 13.2194 15.4344 13.6923C14.459 14.1652 11.8581 17.4164 12.4788 21.3179C13.0994 25.2193 16.8531 25.8696 19.0699 25.3967C21.2866 24.9238 29.326 21.1405 29.326 21.1405C29.326 21.1405 33.1388 14.1061 25.7201 11.0026Z" fill="#4D294B"/>
<path opacity="0.55" d="M29.3851 14.845C27.9664 15.2588 26.7841 16.175 25.3063 16.1455C23.1191 16.0864 21.3457 17.1208 19.4246 17.6529V19.4854C21.5231 19.1602 23.4738 17.8006 25.6019 17.8597C28.3211 17.9484 29.1487 17.2982 29.8285 16.5593C29.7693 15.9977 29.6216 15.4066 29.3851 14.845Z" fill="#8B868A"/>
<path opacity="0.5" d="M25.2472 19.2489C23.858 19.7218 21.1684 21.6134 19.7201 22.0863C19.6906 22.3228 19.661 22.5888 19.6314 22.8252V24.5986C22.528 23.6528 29.0895 20.5789 29.0895 20.5789C29.0895 20.5789 29.5033 19.3671 29.7989 18.2144C28.528 19.4558 27.8777 18.3918 25.2472 19.2489Z" fill="#3C153A"/>
<path opacity="0.55" d="M27.0501 12.1258C24.863 13.1011 22.5575 12.6578 19.7792 13.9878C19.661 14.047 19.5428 14.047 19.4246 14.1061V15.377C20.8137 14.845 23.0305 14.047 24.3309 14.047C26.1043 14.047 26.6068 13.3967 28.1437 13.042C27.8186 12.7169 27.4639 12.4213 27.0501 12.1258Z" fill="#8B868A"/>
<path d="M22.6166 22.6479C23.858 20.5789 24.5969 18.7464 24.0354 16.5001C22.8826 11.712 17.6216 13.042 15.8186 13.5741C15.6413 13.6332 15.5231 13.6923 15.4344 13.7218C14.459 14.1947 11.8581 17.446 12.4788 21.3474C13.0994 25.1898 16.7645 25.8991 18.9812 25.4262C19.2176 25.2784 21.7004 24.1553 22.6166 22.6479Z" fill="#634361"/>
<path d="M22.6758 15.9977C21.5822 13.8992 19.3063 13.8105 17.4443 14.1356C16.6758 14.3425 16.1142 14.5199 15.9073 14.6085C15.0797 15.0223 12.9221 17.712 13.4246 20.9632C13.9566 24.2144 17.0896 24.776 18.9221 24.3622C19.1881 24.3031 19.5428 24.1848 19.9861 24.0371C22.1437 22.0863 24.0058 18.51 22.6758 15.9977Z" fill="#DED4CA"/>
<path d="M21.3162 17.4164C21.1979 16.9435 20.7842 15.7612 18.9812 15.7317C17.2965 15.7021 15.7004 16.7662 15.2571 18.3918C15.0797 19.042 15.0502 19.8105 15.4344 20.5789C16.5576 22.8843 21.3162 21.8794 21.3457 17.712C21.3457 17.6233 21.3457 17.5346 21.3162 17.4164Z" fill="#654F42"/>
<path d="M20.1339 19.6922C19.6019 18.51 18.1241 18.4213 17.0305 19.0716C16.528 19.308 16.2916 19.6922 16.1142 20.106C17.2669 20.6676 18.7743 20.6676 20.1339 19.6922Z" fill="#DA2D36"/>
<path d="M18.9221 20.2834C18.8925 19.8105 18.6856 19.308 18.1536 19.308C17.7989 19.308 17.4147 19.7809 17.3556 20.106C17.326 20.2243 17.3556 20.3425 17.3852 20.4607C17.8581 20.5198 18.3901 20.4607 18.9221 20.2834Z" fill="#B1353B"/>
<path d="M15.4344 17.9189C15.3458 18.0962 15.2866 18.244 15.2571 18.4213C15.0797 19.0716 15.0502 19.84 15.4344 20.6085C15.8187 21.4065 16.6758 21.8203 17.592 21.8203C17.8581 20.0469 17.0305 18.4804 15.4344 17.9189Z" fill="#E6545B"/>
<path d="M19.4541 20.6972C19.0699 20.5494 18.0058 19.7809 17.6216 19.9583C17.06 20.2243 16.9418 20.2538 16.528 20.6972C16.3507 20.9041 16.1438 21.111 15.9369 21.2883C16.9418 22.0863 18.7152 21.9681 19.927 20.9041C19.8088 20.845 19.6315 20.7858 19.4541 20.6972Z" fill="#E6545B"/>
<path d="M21.2866 18.51C20.0748 18.0371 18.9516 19.0124 18.6561 20.2538C18.4787 20.7858 18.5674 21.1996 18.7448 21.643C19.8975 21.1996 20.991 20.1652 21.2866 18.51Z" fill="#E6545B"/>
<path d="M18.7448 14.4016C18.5674 14.1356 18.2423 13.8105 17.8581 13.8401C17.5921 13.6627 17.0305 13.8401 16.8827 14.1061C16.6462 14.4607 16.9714 14.6972 17.2965 14.7859C17.7398 14.9336 19.2177 15.1405 18.7448 14.4016Z" fill="#FAECE2"/>
<path d="M20.8728 13.7514C20.6068 13.4558 20.0157 13.4854 19.661 13.5741C19.395 13.6332 18.7152 13.8401 19.129 14.1947C19.4246 14.4312 20.2817 14.6085 20.6364 14.3721C20.8433 14.2243 21.2571 13.8401 20.8728 13.7514Z" fill="#FAECE2"/>
<path d="M20.193 15.1701C20.0157 14.9928 19.7497 14.8154 19.4541 14.7563C19.1881 14.6972 18.6561 14.8154 18.9812 15.1405C19.2177 15.377 19.7201 15.5248 20.0452 15.5543C20.5773 15.5839 20.3408 15.3179 20.193 15.1701Z" fill="#FAECE2"/>
<path d="M21.73 14.6676C20.6659 14.2834 20.3999 16.5001 21.3753 16.1159C21.9369 15.8795 22.5871 14.9928 21.73 14.6676Z" fill="#FAECE2"/>
<path d="M23.06 16.4115C23.06 16.0568 22.794 15.8499 22.4689 15.909C22.0846 15.9977 21.9664 16.4115 22.0551 16.7662C22.1437 17.1504 22.5575 17.3277 22.8827 17.0913C23.2964 16.8548 23.06 16.7957 23.06 16.4115Z" fill="#FAECE2"/>
<path d="M17.7103 15.2588C17.6807 15.2588 17.6512 15.2292 17.6216 15.2588C17.3261 14.9928 15.996 15.1997 16.4985 15.7021C16.7349 15.9386 17.2965 15.8203 17.5625 15.7021C17.9467 15.4952 18.0945 15.377 17.7103 15.2588Z" fill="#FAECE2"/>
<path d="M15.9073 14.9928C15.6118 14.8745 15.1684 15.0519 14.932 15.2883C14.7251 15.4952 14.4295 15.9681 14.8729 16.0864C15.2571 16.175 15.7891 15.8795 15.9664 15.5543C16.0551 15.3179 16.2916 14.8154 15.9073 14.9928Z" fill="#FAECE2"/>
<path d="M15.464 16.5297C15.2571 16.4706 14.8138 16.5297 14.6955 16.707C14.5182 16.707 14.2226 16.9435 14.2817 17.1504C14.3408 17.4164 14.8729 17.3277 15.0502 17.2686C15.2571 17.2095 15.5822 17.0617 15.6118 16.7957C15.6413 16.5297 15.6709 16.4706 15.464 16.5297Z" fill="#FAECE2"/>
<path d="M14.1931 17.712C13.5133 17.6529 13.0699 18.8942 13.7793 18.9533C14.4295 19.0124 14.9024 17.8006 14.1931 17.712Z" fill="#FAECE2"/>
<path d="M22.2915 17.8006C21.7004 17.5937 20.9024 18.7169 21.4344 18.8351C22.1733 19.042 23.1487 18.1258 22.2915 17.8006Z" fill="#FAECE2"/>
<path d="M23.06 18.2144C22.4984 18.1258 22.2324 19.4262 22.9122 19.308C23.2078 19.2785 23.2965 18.9238 23.2373 18.6578C23.1782 18.3031 23.0009 18.244 22.6462 18.244L23.06 18.2144Z" fill="#FAECE2"/>
<path d="M22.0846 19.7514C21.6413 19.6036 21.5526 20.2538 21.5231 20.5494C21.4935 21.0223 21.8482 21.1405 22.2324 21.0223C22.5575 20.6972 22.528 20.0174 22.1437 19.7514C22.0846 19.6627 22.1733 19.7809 22.0846 19.7514Z" fill="#FAECE2"/>
<path d="M21.0206 20.9041C20.725 20.7267 20.1635 20.9632 19.8975 21.111C19.4837 21.3474 19.6019 21.643 20.1044 21.643C20.3999 21.643 20.9911 21.5248 21.1388 21.2292C21.198 21.0223 21.2866 20.8154 21.0206 20.9041Z" fill="#FAECE2"/>
<path d="M21.0502 21.909C20.1635 21.8203 19.6906 23.4755 20.5773 23.3868C21.0206 23.3277 21.3457 22.8844 21.3162 22.441C21.3162 22.0272 21.1093 21.643 20.6364 22.0568L21.0502 21.909Z" fill="#FAECE2"/>
<path d="M19.5428 22.2932C19.2177 22.1454 18.6561 22.2637 18.4196 22.5297C18.1241 22.8548 18.3605 23.1504 18.7448 23.2095C19.0699 23.239 19.8088 23.0617 19.8679 22.6479C19.8975 22.2932 19.8383 22.2341 19.5428 22.2932Z" fill="#FAECE2"/>
<path d="M17.2078 22.3523C16.2916 22.2637 16.2325 23.7415 17.0305 23.6824C17.8581 23.6233 17.7694 22.0863 17.2078 22.3523Z" fill="#FAECE2"/>
<path d="M19.3359 23.7415C18.8925 23.6528 18.4492 23.6233 18.0649 23.8597C17.6807 24.1257 17.592 24.5395 18.1832 24.6282C18.5378 24.6873 19.2472 24.6282 19.4837 24.3326C19.7792 23.9188 19.661 23.8006 19.3359 23.7415Z" fill="#FAECE2"/>
<path d="M15.8187 23.1504C15.4344 23.239 15.198 23.6233 15.3458 24.0075C15.4344 24.2735 16.0255 24.51 16.2916 24.4804C16.8531 24.3917 16.6462 22.9435 15.8187 23.1504Z" fill="#FAECE2"/>
<path d="M15.0502 21.7612C14.2522 21.7908 15.2571 23.505 15.7891 22.7661C16.1438 22.2341 15.5231 21.4361 15.0502 21.7612Z" fill="#FAECE2"/>
<path d="M14.6955 20.8154C14.3704 20.6972 13.7497 20.9336 13.5133 21.1996C13.2472 21.4656 13.1586 21.9681 13.6315 21.9977C14.0748 22.0272 14.6068 21.7021 14.7842 21.3179C14.932 20.9336 15.1093 20.9336 14.6955 20.8154Z" fill="#FAECE2"/>
<path d="M14.3113 19.6627C14.0748 19.4558 13.6019 19.3967 13.3064 19.5149C12.8926 19.6922 13.0699 20.1652 13.3655 20.3425C13.6906 20.5198 14.2522 20.579 14.4591 20.1947C14.6364 19.84 14.5182 19.8696 14.3113 19.6627Z" fill="#FAECE2"/>
<path d="M14.8433 23.2095C14.7546 22.8844 14.6068 22.5297 14.2522 22.4706C13.8679 22.4114 13.661 22.707 13.7202 23.0617C13.7497 23.4164 14.1931 23.8302 14.5773 23.7119C14.9911 23.5937 14.932 23.5346 14.8433 23.2095Z" fill="#FAECE2"/>
<path d="M20.8433 19.8105C20.4886 19.5149 20.0157 19.2785 19.6019 19.6627C19.3359 19.8991 19.395 20.5198 19.6019 20.7858C19.661 20.9041 19.7792 20.9632 19.8679 20.9927C20.2521 20.6972 20.5772 20.2834 20.8433 19.8105Z" fill="#B1353B"/>
<path d="M18.9221 21.5543C18.8334 21.4656 18.7152 21.4065 18.6561 21.3474C18.5379 21.2587 18.2718 21.1996 18.2127 21.0814H18.1832C17.9467 20.7858 17.6512 20.9927 17.3852 21.1701C17.2374 21.2587 16.8531 21.4656 16.7645 21.7021C17.4147 21.909 18.1832 21.8499 18.9221 21.5543Z" fill="#DA2D36"/>
<path d="M16.4098 19.5445C16.262 19.1011 15.7595 19.042 15.4344 19.2785C15.3162 19.3376 15.2275 19.4262 15.1389 19.5445C15.1684 19.8991 15.2571 20.2538 15.4344 20.6085C15.5231 20.8154 15.6709 20.9927 15.8187 21.1405C15.9073 21.1405 16.0255 21.0814 16.1142 21.0223C16.4985 20.6972 16.5576 19.9878 16.4098 19.5445Z" fill="#B1353B"/>
<path d="M16.1733 16.8844L16.9714 18.776L18.1241 17.7415L17.5034 16.0272C17.0009 16.2046 16.528 16.5001 16.1733 16.8844Z" fill="#13AF5B"/>
<path d="M17.9467 17.2982C17.858 17.4755 17.7103 17.5937 17.5034 17.6529C17.1487 17.7415 16.7053 17.5346 16.6167 17.1504C16.6167 17.1208 16.5576 16.9731 16.6167 17.0913C16.5871 17.0617 16.5871 17.0026 16.5576 16.9731C16.4984 16.8548 16.4689 16.7662 16.4098 16.6479V16.6184C16.3211 16.707 16.2324 16.7662 16.1438 16.8548L16.9418 18.7464L18.0945 17.712L17.9467 17.2982Z" fill="#00903D"/>
<path d="M21.3162 17.4164C21.2275 17.0322 20.9319 16.2046 19.8974 15.8795L19.4541 18.3622L21.3162 17.5642C21.3162 17.5346 21.3162 17.4755 21.3162 17.4164Z" fill="#13AF5B"/>
<path d="M21.2275 17.1504C20.9615 17.2982 20.6659 17.4164 20.3408 17.4755C20.4886 17.446 20.4295 17.4755 20.3704 17.4755C20.193 17.5051 19.9861 17.5051 19.8383 17.4164C19.7792 17.3573 19.6906 17.3277 19.661 17.2391L19.4541 18.3918L21.3162 17.5937C21.3162 17.5346 21.3162 17.5051 21.3162 17.446C21.2866 17.3573 21.257 17.2686 21.2275 17.1504Z" fill="#00903D"/>
<path d="M18.2423 17.446L17.4443 18.6578L18.8925 18.5395L19.4541 17.8006L18.2423 17.446Z" fill="#FBDF6A"/>
<path d="M18.9812 15.7612C18.597 15.7612 18.1832 15.8203 17.8285 15.909L18.2423 17.2982L19.5428 17.5642L19.7497 15.8499C19.5132 15.7908 19.2472 15.7612 18.9812 15.7612Z" fill="#FBDF6A"/>
<path d="M19.2472 17.978C19.0403 18.1553 18.6561 18.1849 18.4196 18.0962C18.2423 18.0371 18.0945 17.9484 18.0058 17.8006L17.4443 18.6282L18.8925 18.51L19.4541 17.7415H19.4246C19.395 17.8597 19.3359 17.9189 19.2472 17.978Z" fill="#FFB152"/>
<path d="M18.7448 16.8253C18.3014 16.6184 18.2719 16.2046 18.2719 15.7908C18.1241 15.8204 17.9467 15.8499 17.799 15.909L18.2127 17.2982L19.5132 17.5642L19.6019 16.7366C19.395 16.9435 19.0403 16.9731 18.7448 16.8253Z" fill="#FFB152"/>
<path opacity="0.55" d="M27.5655 15.9463C28.3146 15.7806 28.8219 15.1941 28.6985 14.6363C28.5752 14.0784 27.8679 13.7605 27.1188 13.9261C26.3697 14.0918 25.8624 14.6783 25.9858 15.2361C26.1091 15.794 26.8164 16.1119 27.5655 15.9463Z" fill="#8B868A"/>
<path opacity="0.55" d="M24.8907 15.2485C25.1776 15.1851 25.3701 14.9528 25.3208 14.7297C25.2715 14.5065 24.9989 14.3771 24.712 14.4405C24.4251 14.5039 24.2325 14.7362 24.2819 14.9594C24.3312 15.1825 24.6038 15.312 24.8907 15.2485Z" fill="#8B868A"/>
</svg>
