<svg width="42" height="24" viewBox="0 0 42 24" fill="none" xmlns="http://www.w3.org/2000/svg">
<path d="M23.0711 15.1373C23.0711 15.1373 39.2432 8.23493 39.2717 4.81226C39.2717 3.21502 38.6727 2.44492 37.9311 1.93152C36.8758 1.21846 35.1075 1.41812 32.1411 2.55901C27.0927 4.52704 18.0512 7.26517 10.5213 8.66276C2.99143 10.0604 -1.54361 12.0284 1.30862 15.394C4.16084 18.7596 16.7106 17.7328 23.0711 15.1373Z" fill="#F89945"/>
<path d="M36.2198 1.81743C35.3642 1.04733 34.0521 1.30403 32.9398 1.6463C32.0556 1.903 31.1714 2.1597 30.2872 2.4164C29.9735 2.50197 29.6597 2.58753 29.3745 2.6731C28.9752 3.27207 28.2906 3.6999 27.3494 3.6999C27.0071 3.6999 26.6934 3.64286 26.4082 3.52877C26.0089 3.64286 25.6096 3.75695 25.2388 3.87104C25.0391 4.12774 24.8395 4.32739 24.5828 4.49852C24.4116 5.12601 23.7841 5.52532 23.1566 5.55385C22.6432 5.55385 22.3865 5.18306 22.1869 4.75523C22.0443 4.81227 21.8731 4.84079 21.7305 4.89784C20.8463 5.15454 19.9622 5.41123 19.078 5.66793C18.7357 6.5236 17.9941 7.17962 16.7962 7.17962C16.2257 7.17962 15.7409 7.00848 15.3701 6.7803C15.0278 6.89439 14.657 6.97996 14.3148 7.09404C14.2292 7.12257 14.1721 7.15109 14.0866 7.15109C13.6873 7.83563 13.0027 8.32051 11.9474 8.32051C11.8048 8.32051 11.6907 8.3205 11.5766 8.29198C11.0347 8.69129 10.4928 9.09061 9.83677 9.17617C8.86701 9.31878 7.92578 8.74834 6.9275 8.69129C6.01479 8.60572 5.15913 8.97652 4.3605 9.46139C4.38903 10.6878 4.27493 11.8573 3.53336 12.9411C3.27666 13.3119 2.99144 13.6542 2.64917 13.9394C2.76326 13.9964 2.87735 14.0535 2.99144 14.1105C3.76154 14.3957 4.58868 14.3387 5.3873 14.2531C9.89381 13.7112 14.7711 14.082 19.0494 12.5703C23.3278 11.0301 27.2068 7.52188 31.7418 7.8071C33.282 7.89267 35.1075 8.09232 36.1343 6.95143C36.7617 6.2669 36.9044 5.26863 36.9329 4.32739C36.9614 3.44321 36.8758 2.4164 36.2198 1.81743Z" fill="#7BB027"/>
<path d="M37.0184 4.32739C36.8473 3.98513 36.2768 4.2133 35.9631 3.98512C35.6779 3.75695 35.8205 3.27207 36.1057 3.01537C36.3909 2.75867 36.7617 2.58753 36.9043 2.24527C37.161 1.6463 36.505 0.990289 35.8775 0.990289C35.25 0.961767 34.6511 1.36108 34.1377 1.73187C33.4531 2.21675 32.7686 2.70163 32.0841 3.1865C32.3408 2.38788 31.8274 1.41813 31.0002 1.18995C30.1731 0.961771 29.2319 1.50369 29.0322 2.33084C28.8611 3.01537 29.1463 3.84251 28.747 4.44148C28.4047 4.95488 27.5205 5.01192 27.0927 4.55557C27.7487 4.49852 27.8628 3.47172 27.3779 3.07241C26.8645 2.6731 26.1229 2.78719 25.5525 3.07241C25.0391 3.35763 24.5542 3.81399 24.5542 4.41296C24.5542 5.01192 25.2673 5.55384 25.7236 5.21158C24.7539 6.40951 23.0711 6.95144 21.5879 6.58065C21.8731 5.89611 22.1869 5.21158 22.4721 4.52704C20.9034 4.12773 19.0779 5.01192 18.4505 6.5236C18.8783 6.09577 19.734 6.49508 19.791 7.09404C19.848 7.69301 19.2491 8.23493 18.6216 8.23493C18.1652 8.23493 17.7374 8.00675 17.4807 7.63596C17.3096 7.35074 17.224 7.037 17.0529 6.75178C16.6536 6.03873 15.6838 5.72498 14.9137 5.98168C14.1436 6.23838 13.5732 7.037 13.5161 7.86415C13.8013 7.46484 14.5144 7.94971 14.3718 8.40607C14.2577 8.86242 13.6302 9.03356 13.1738 8.86243C12.7175 8.69129 12.4037 8.29198 12.1185 7.92119C12.033 7.8071 11.9474 7.69301 11.8618 7.57893C11.4055 7.00848 10.6924 6.35247 10.0649 6.72326C10.3787 6.89439 10.3787 7.43631 10.0934 7.69301C9.80822 7.94971 9.40891 7.97823 9.03812 7.92119C8.66733 7.86414 8.29654 7.75006 7.92575 7.75006C7.32679 7.75006 6.78486 8.0638 6.27146 8.34902C5.90067 8.54868 6.07181 9.68957 5.70102 9.88923C4.93092 10.3171 3.73298 10.1174 2.96288 10.5452C2.70618 10.9731 2.59209 11.515 2.59209 11.9713C2.59209 12.7129 1.93608 12.9126 1.56529 13.426C0.595539 14.681 2.90584 15.6222 3.59037 16.2212C3.84707 16.4493 4.0182 16.6205 4.16082 16.7631C5.84363 15.993 5.98624 13.2834 7.69757 12.4562C8.69585 11.9714 9.89378 12.3136 11.0347 12.228C12.4608 12.0854 14.3147 13.3689 15.6268 12.827C18.2508 11.7717 21.1886 11.9999 23.9838 11.6006C26.7789 11.2013 28.8325 8.0638 31.4566 7.037C33.1394 6.40952 34.7937 5.7535 36.4765 5.12601C36.7902 4.95488 37.1896 4.64114 37.0184 4.32739Z" fill="#9FCC29"/>
<path d="M37.0184 4.32739C36.8473 3.98513 36.2768 4.2133 35.9631 3.98512C35.6779 3.75695 35.8205 3.27207 36.1057 3.01537C36.3909 2.75867 36.7617 2.58753 36.9043 2.24527C37.161 1.6463 36.505 0.990289 35.8775 0.990289C35.25 0.961767 34.6511 1.36108 34.1377 1.73187C33.4531 2.21675 32.7686 2.70163 32.0841 3.1865C32.3408 2.38788 31.8274 1.41813 31.0002 1.18995C30.1731 0.961771 29.2319 1.50369 29.0322 2.33084C28.8611 3.01537 29.1463 3.84251 28.747 4.44148C28.4047 4.95488 27.5205 5.01192 27.0927 4.55557C27.7487 4.49852 27.8628 3.47172 27.3779 3.07241C26.8645 2.6731 26.1229 2.78719 25.5525 3.07241C25.0391 3.35763 24.5542 3.81399 24.5542 4.41296C24.5542 5.01192 25.2673 5.55384 25.7236 5.21158C24.7539 6.40951 23.0711 6.95144 21.5879 6.58065C21.8731 5.89611 22.1869 5.21158 22.4721 4.52704C20.9034 4.12773 19.0779 5.01192 18.4505 6.5236C18.8783 6.09577 19.734 6.49508 19.791 7.09404C19.848 7.69301 19.2491 8.23493 18.6216 8.23493C18.1652 8.23493 17.7374 8.00675 17.4807 7.63596C17.3096 7.35074 17.224 7.037 17.0529 6.75178C16.6536 6.03873 15.6838 5.72498 14.9137 5.98168C14.1436 6.23838 13.5732 7.037 13.5161 7.86415C13.8013 7.46484 14.5144 7.94971 14.3718 8.40607C14.2577 8.86242 13.6302 9.03356 13.1738 8.86243C12.7175 8.69129 12.4037 8.29198 12.1185 7.92119C12.033 7.8071 11.9474 7.69301 11.8618 7.57893C11.4055 7.00848 10.6924 6.35247 10.0649 6.72326C10.3787 6.89439 10.3787 7.43631 10.0934 7.69301C9.80822 7.94971 9.40891 7.97823 9.03812 7.92119C8.66733 7.86414 8.29654 7.75006 7.92575 7.75006C7.32679 7.75006 6.78486 8.0638 6.27146 8.34902C5.90067 8.54868 6.07181 9.68957 5.70102 9.88923C4.93092 10.3171 3.73298 10.1174 2.96288 10.5452C2.70618 10.9731 2.59209 11.515 2.59209 11.9713C2.59209 12.7129 1.93608 12.9126 1.56529 13.426C0.595539 14.681 2.90584 15.6222 3.59037 16.2212C3.84707 16.4493 4.0182 16.6205 4.16082 16.7631C5.84363 15.993 5.98624 13.2834 7.69757 12.4562C8.69585 11.9714 9.89378 12.3136 11.0347 12.228C12.4608 12.0854 14.3147 13.3689 15.6268 12.827C18.2508 11.7717 21.1886 11.9999 23.9838 11.6006C26.7789 11.2013 28.8325 8.0638 31.4566 7.037C33.1394 6.40952 34.7937 5.7535 36.4765 5.12601C36.7902 4.95488 37.1896 4.64114 37.0184 4.32739Z" fill="#9FCC29"/>
<path d="M36.5621 4.12773C36.3624 4.47 36.2198 4.81226 36.1057 5.21157C36.2198 5.15453 36.3624 5.12601 36.4765 5.06896C36.7902 4.95487 37.1896 4.64113 37.047 4.32739C36.9329 4.18478 36.7617 4.15625 36.5621 4.12773Z" fill="#9FCC29"/>
<path d="M34.5655 5.72498C34.6226 5.04045 34.7652 4.35592 35.1075 3.75695C35.3071 3.38616 35.5353 3.01537 35.792 2.6731C36.3054 2.18822 36.0487 1.84596 34.9649 1.61778C34.2803 2.30232 33.6814 3.27206 32.6831 3.50024C31.8845 3.6999 31.2855 2.90128 31.1429 2.18823C30.9717 1.30404 30.2016 1.81744 29.7168 2.18823C29.346 2.47345 29.4315 3.61433 29.3175 4.07069C28.8611 5.86759 25.8092 5.38271 26.7505 3.87104C27.435 2.75867 24.8395 3.55729 25.2673 4.07069C25.6951 4.55556 26.0659 5.04045 25.8948 5.72498C25.6096 6.95144 22.8144 7.77858 21.7876 7.60745C21.1601 7.52188 20.989 6.75178 21.2457 6.2669C21.4168 5.89611 21.702 5.58237 21.9302 5.2401C21.9587 5.18306 22.0158 5.12601 22.0443 5.06896C21.9302 5.06896 21.8161 5.09749 21.7305 5.09749C21.0175 5.18306 20.5041 5.41123 19.8481 5.66793C19.6769 5.81054 19.5058 5.89611 19.3347 5.92463C19.4488 5.95315 19.5629 6.0102 19.6769 6.06724C20.3044 6.5236 20.4756 7.037 20.1333 7.75006C19.791 8.49164 18.8213 8.57721 18.1653 8.46312C17.3381 8.34903 16.7962 7.43631 16.3398 6.72326C15.9691 6.66621 15.5127 6.75178 15.0563 6.89439C14.7996 6.97996 14.5144 7.037 14.2862 7.15109C14.3148 7.17961 14.3148 7.17961 14.3433 7.20813C14.9137 7.60744 15.5412 8.3205 15.1134 9.06208C14.7426 9.68956 13.7158 9.83218 13.1168 9.46139C12.5179 9.09061 11.9474 7.77858 11.2344 7.35074C11.2344 7.49335 11.2058 7.60745 11.1203 7.75006C10.8636 8.12085 10.4928 8.43459 10.0079 8.40607C9.43746 8.37755 8.52475 7.92119 8.01135 8.12085C7.46943 8.3205 7.21273 9.54696 6.81342 10.0033C6.41411 10.4311 5.67253 10.5167 5.13061 10.5167C4.41755 10.5452 3.67597 10.4597 3.59041 11.515C3.56188 11.9143 3.53336 12.0854 3.39075 12.4277C3.10553 13.1693 1.99317 13.2834 2.9344 14.1676C3.64745 14.8236 4.41755 15.3655 5.18765 15.9359C6.07184 14.795 6.47115 13.0552 7.78318 12.3992C8.78145 11.9143 9.97939 12.2566 11.1203 12.171C12.5464 12.0284 14.4003 13.3119 15.7124 12.77C18.3364 11.7146 21.2742 11.9428 24.0694 11.5435C26.8645 11.1442 28.9181 8.00676 31.5422 6.97996C32.569 6.58065 33.6243 6.18133 34.6511 5.78202C34.5655 5.78202 34.5655 5.7535 34.5655 5.72498Z" fill="#81BE00"/>
<path opacity="0.65" d="M36.9044 4.75523C36.4195 4.5841 36.0202 4.29887 35.5638 4.09922C34.8507 3.75695 33.7099 3.9566 32.9683 4.09922C29.2604 4.86932 25.8948 6.95144 22.4151 8.37755C19.3061 9.68957 16.1402 10.4026 12.746 10.203C10.778 10.0889 7.12714 9.48992 5.95773 11.572C5.50137 12.3707 4.27492 11.6576 4.73127 10.859C4.81684 10.6879 4.93093 10.5452 5.0165 10.4026C4.21787 11.0872 3.93265 12.5133 3.90413 13.5116C3.87561 14.139 4.13231 14.8521 3.96117 15.4796C3.87561 15.7933 3.70448 16.0215 3.50482 16.1926C3.76152 16.4208 3.93266 16.592 4.07527 16.7346C5.75808 15.9645 5.90069 13.2549 7.61202 12.4277C8.6103 11.9428 9.80823 12.2851 10.9491 12.1995C12.3752 12.0569 14.2292 13.3404 15.5412 12.7985C18.1652 11.7432 21.103 11.9714 23.8982 11.572C26.6934 11.1727 28.747 8.03529 31.371 7.00849C33.0538 6.381 34.7081 5.72498 36.3909 5.09749C36.5621 5.04045 36.7617 4.92636 36.8758 4.78375C36.9329 4.75523 36.9329 4.75523 36.9044 4.75523Z" fill="#9FCC29"/>
<path d="M10.8635 15.394C10.8635 15.394 3.30514 16.1641 2.64913 17.8184C1.99312 19.4727 4.1608 23.2376 13.0883 23.4658C22.0157 23.694 32.8827 21.2126 39.2717 14.3672C41.8957 11.5435 43.4644 6.43804 40.0132 5.58238C35.5923 4.47001 33.2535 13.7968 21.702 14.9091C10.1505 15.993 10.8635 15.394 10.8635 15.394Z" fill="#F89F16"/>
<path d="M4.56016 16.6205C4.78834 17.4476 3.93267 18.3033 3.76154 19.1019C4.21789 19.5868 4.67425 20.0431 5.21617 20.3854C7.07012 21.4978 9.40894 21.7259 11.5481 22.0682C12.8886 22.1538 14.2007 22.1253 15.4842 21.5833C16.4539 21.184 17.3096 20.8418 18.3649 20.9558C19.5914 21.0985 20.8749 21.8115 22.0443 21.0129C22.5577 20.6706 23.1281 19.9005 23.7841 19.7864C24.4972 19.6723 25.1817 19.8435 25.8948 19.6438C26.9786 19.3301 27.9199 18.7026 29.0037 18.4174C30.1161 18.1036 31.1429 17.7328 32.1126 17.1053C32.9683 16.5349 34.0236 16.0215 34.7081 15.2799C35.2786 14.6524 35.7349 13.9109 36.3339 13.3404C37.7885 11.9713 39.5569 11.6006 39.3002 9.17617C39.1576 7.72154 37.5604 7.37926 37.2181 6.09576C34.0521 8.09232 30.658 13.9964 21.645 14.8521C10.0935 15.9645 10.8065 15.337 10.8065 15.337C10.8065 15.337 7.01307 15.7933 4.56016 16.6205Z" fill="#E2762E"/>
<path opacity="0.32" d="M41.2397 7.32224C40.8404 10.1745 39.671 13.2549 36.8473 14.3957C35.849 14.7951 34.7366 15.2229 33.9951 15.993C33.4246 16.592 32.9112 17.2765 32.1982 17.7043C31.5992 18.0466 30.9717 18.3603 30.2872 18.617C29.3174 19.1304 28.2906 19.5583 27.2638 19.8435C26.0659 20.1858 24.8394 20.3569 23.613 20.5565C22.1869 20.8132 20.8178 21.2411 19.4202 21.5263C17.9656 21.84 16.5395 21.783 15.0563 21.7545C13.7443 21.726 12.1185 22.2679 10.8921 21.9256C9.60855 21.5548 8.29653 21.0129 7.04155 20.528C5.92918 20.1002 4.64568 19.6724 3.73297 18.9308C4.30342 20.5565 7.07007 22.7242 13.6872 22.8954C21.9872 23.095 32.1982 20.8988 38.5301 14.5954C40.5552 12.5703 42.1239 9.2047 41.2397 7.32224Z" fill="#E2762E"/>
<path d="M38.0168 8.66277C38.0168 8.66277 37.703 6.2669 35.792 7.83562C33.9095 9.40435 32.2267 11.8002 26.9501 12.3707C21.702 12.9126 17.11 15.7078 12.3753 15.0803C7.6691 14.4243 5.58698 13.7968 5.44436 14.9091C5.30175 16.0215 6.49969 18.3033 6.41412 18.9308C6.32856 19.5583 7.9258 19.9861 8.89556 19.9005C9.86531 19.815 12.689 20.7847 13.944 20.4139C15.199 20.0431 18.1368 19.5297 20.2474 19.3016C22.358 19.0734 24.8965 17.8469 26.0089 17.8469C27.1213 17.8469 31.257 16.3352 31.6848 15.7933C32.1412 15.2799 35.079 12.3421 35.4212 11.9143C35.7635 11.4865 38.6442 8.69129 38.4446 8.63424C38.2164 8.60572 38.0168 8.66277 38.0168 8.66277Z" fill="#3B8600"/>
<path d="M2.64921 12.9982C2.82035 12.1995 3.39079 11.3724 3.98976 10.9446C4.67429 10.4597 5.47291 10.3171 6.24301 10.3456C7.92582 10.3741 9.58011 10.859 11.2914 11.0016C13.5447 11.2013 15.6268 11.572 18.0227 11.2583C19.8481 11.0301 22.6148 10.6023 24.2691 9.37583C25.7522 8.29198 31.314 3.0439 33.5958 2.84424C35.9061 2.67311 39.4144 3.47173 37.1896 8.46312C35.0219 13.2834 26.6649 17.2765 20.6753 18.3318C15.0279 19.3301 8.03991 19.159 5.50144 17.6188C3.04853 16.05 2.27843 14.738 2.64921 12.9982Z" fill="#F87465"/>
<path opacity="0.32" d="M19.5344 11.9143C17.3382 12.228 15.199 12.3707 13.0884 12.114C12.1756 11.9999 11.2915 11.7717 10.4073 11.6006C9.58013 11.458 8.7815 11.2868 7.98288 11.1442C7.61209 11.0872 7.2413 11.0301 6.84199 11.0016C6.44268 10.9731 6.07189 11.0301 5.7011 11.0586C4.87396 11.2012 4.36056 11.8002 4.53169 12.6274C4.81691 14.0249 7.44096 14.139 8.72446 14.4528C10.5784 14.9091 13.5732 14.9377 15.6268 14.9091C17.823 14.8521 22.4436 14.6524 26.1515 12.827C27.9484 11.9428 29.5742 10.8305 31.257 9.7181C32.3409 9.00504 33.3677 8.1779 33.7099 7.03701C33.9096 6.35248 33.8811 5.26863 32.9683 4.95488C32.0556 4.64114 31.1429 5.3542 30.5725 5.83907C27.0357 8.89095 24.0694 11.2868 19.5344 11.9143Z" fill="#FF9D9A"/>
<path d="M33.7384 8.74835C32.569 10.26 31.4566 11.5435 29.8879 12.6559C26.6079 14.9947 23.2137 16.6205 19.5344 17.3906C17.5948 17.7899 15.3131 17.7899 12.8316 17.6188C11.1203 17.5047 9.3234 17.1624 7.75468 16.592C6.243 16.0215 5.04507 15.0518 4.13236 13.7397C3.84713 13.3404 3.70452 12.5988 3.44782 12.171C3.30521 12.3992 3.21964 12.6274 3.1626 12.8555C2.82033 14.3957 3.47634 15.6792 5.90073 17.0198C8.38217 18.3889 14.8567 18.9308 20.6182 17.9325C26.8931 16.8201 34.4515 12.171 36.4195 8.49164C36.4195 8.49164 36.4195 8.49165 36.4195 8.46313C36.7903 7.77859 36.2484 6.97996 35.5353 7.20814C34.8223 7.43632 34.0522 8.32051 33.7384 8.74835Z" fill="#DA4E43"/>
<path d="M9.43749 11.8573C9.43749 11.8573 7.21275 12.6844 6.95605 16.4779C6.95605 16.4779 8.89557 15.7363 9.43749 11.8573Z" fill="url(#paint0_linear_66_2535)"/>
<path d="M14.2293 12.3707C14.2293 12.3707 11.8619 13.5686 12.4609 17.4191C12.4894 17.4191 14.5715 15.1658 14.2293 12.3707Z" fill="url(#paint1_linear_66_2535)"/>
<path d="M18.9925 12.0569C18.9925 12.0569 16.6537 13.3689 18.2794 17.3906C18.2794 17.3621 19.677 15.4796 18.9925 12.0569Z" fill="url(#paint2_linear_66_2535)"/>
<path d="M24.9822 10.0604C24.9822 10.0604 22.843 13.0552 25.2103 15.5081C25.2103 15.5081 26.066 12.1995 24.9822 10.0604Z" fill="url(#paint3_linear_66_2535)"/>
<path d="M29.8024 6.80882C29.8024 6.80882 29.2034 10.0604 31.2 11.6576C31.1714 11.6291 31.856 8.3205 29.8024 6.80882Z" fill="url(#paint4_linear_66_2535)"/>
<path opacity="0.75" d="M7.55506 12.7129C7.46949 13.1978 6.89905 13.5116 6.24304 13.3975C5.61555 13.2834 5.15919 12.7985 5.24476 12.3136C5.33033 11.8287 5.90077 11.515 6.52826 11.6291C7.18427 11.7147 7.64063 12.2281 7.55506 12.7129Z" fill="#FFAEAA"/>
<path opacity="0.75" d="M16.9103 13.6256C16.9103 14.0535 16.4825 14.3957 15.9691 14.3957C15.4557 14.3957 15.0564 14.082 15.0564 13.6542C15.0564 13.2263 15.4842 12.8841 15.9976 12.8841C16.511 12.8841 16.9103 13.2263 16.9103 13.6256Z" fill="#FFAEAA"/>
<path opacity="0.75" d="M23.0711 12.7129C23.1282 13.2549 22.5292 13.7683 21.7876 13.8823C21.0461 13.9964 20.3901 13.6542 20.3615 13.1408C20.3045 12.6274 20.8749 12.0854 21.645 11.9713C22.3581 11.8287 23.0141 12.171 23.0711 12.7129Z" fill="#FFAEAA"/>
<path opacity="0.75" d="M34.5371 5.24011C34.7652 5.66794 34.4515 6.29543 33.8525 6.66622C33.2536 7.03701 32.5976 7.00849 32.3979 6.58065C32.1697 6.18134 32.4835 5.52533 33.0539 5.15454C33.6529 4.81228 34.3089 4.84079 34.5371 5.24011Z" fill="#FFAEAA"/>
<path opacity="0.55" d="M32.569 12.5418C32.2553 12.5133 31.9416 12.4847 31.6278 12.4847C29.3175 12.3992 27.0072 12.827 24.868 13.7112C22.1299 14.8521 19.1921 15.2799 16.511 15.4225C12.6035 15.6222 8.58186 15.1944 5.27328 13.4545C4.47466 13.0267 3.73308 12.5133 3.10559 11.8858C2.87741 12.2281 2.70628 12.6274 2.62071 12.9982C2.24993 14.738 3.04855 16.05 5.52998 17.5902C8.06846 19.159 15.0279 19.3016 20.7038 18.3033C24.7825 17.5902 29.9735 15.5081 33.5388 12.7129C33.2251 12.6274 32.9113 12.5703 32.569 12.5418Z" fill="#DD7465"/>
<path d="M32.9683 13.9109C32.626 13.9679 32.2837 13.8538 31.9415 13.8538C31.5992 13.8538 31.1999 13.9679 31.0858 14.2817C30.8576 14.8236 31.6277 15.4796 31.3425 16.0215C31.1999 16.3067 30.8006 16.3923 30.4868 16.3352C30.1731 16.2782 29.8594 16.1356 29.5171 16.1356C28.9752 16.1356 28.5188 16.5064 28.148 16.8772C27.7772 17.2765 27.435 17.7043 26.9501 17.961C26.4652 18.1892 25.7807 18.1607 25.524 17.7043C25.2388 17.2194 25.524 16.5634 25.2388 16.0786C24.9821 15.6507 24.3546 15.5652 23.8982 15.7933C23.4419 16.0215 23.1566 16.4779 22.957 16.9342C22.7573 17.3906 22.6147 17.8755 22.358 18.3033C21.5023 19.6724 19.3917 19.9291 18.1082 18.9593C17.7374 18.6741 17.4237 18.3318 17.0244 18.1036C16.625 17.8755 16.0831 17.7899 15.7123 18.0751C15.3415 18.3603 15.2845 18.8737 15.0563 19.3016C14.7426 19.9291 14.058 20.2713 13.3735 20.3854C12.689 20.4995 12.0044 20.3854 11.3199 20.2713C11.377 19.8435 11.434 19.3871 11.2629 18.9593C11.0917 18.5315 10.6639 18.2177 10.2361 18.3033C9.83676 18.3889 9.6371 18.7882 9.3804 19.1019C8.72439 19.9005 7.52646 20.1858 6.5567 19.7864C7.64055 20.5565 8.95257 20.9844 10.2646 21.0414C10.2361 20.8703 10.2075 20.7277 10.179 20.5565C15.1419 20.2143 20.0762 19.3301 24.9821 18.4459C25.9233 18.2748 26.8645 18.1036 27.7772 17.7899C28.4618 17.5617 29.0893 17.2765 29.7167 16.9342C30.1731 16.6775 30.6295 16.3923 31.0573 16.0786C31.5422 15.7363 32.027 15.3655 32.5119 14.9947C33.0253 14.5954 33.5672 14.7951 34.0806 14.3957C34.7367 13.8538 35.3071 12.7129 35.9346 12.171C36.3909 11.7717 36.8473 11.3724 37.3322 10.9731C37.76 10.6023 38.1878 10.2315 38.416 9.74662C38.6442 9.23322 38.6157 8.57721 38.1878 8.23494C37.9882 9.83218 35.4497 10.5167 34.2518 11.6006C33.8239 11.9714 34.6226 12.8841 34.1947 13.2549C33.7669 13.5401 33.3961 13.8538 32.9683 13.9109Z" fill="#7BB027"/>
<path d="M4.93095 20.1857C4.7313 18.9878 5.33026 17.6758 6.38559 17.0483C6.89899 16.7346 7.64057 16.6205 8.0684 17.0768C8.41067 17.4191 8.38214 18.0181 8.15396 18.4459C7.92578 18.8737 7.52648 19.1875 7.12717 19.5012C7.61204 19.216 8.12544 18.9593 8.61032 18.6741C8.69589 18.6455 8.75293 18.5885 8.8385 18.56C9.12372 18.3888 9.40894 18.2462 9.69417 18.0751C10.2076 17.7899 10.7495 17.5047 11.3485 17.4191C11.9474 17.3335 12.6034 17.5902 12.8601 18.1321C13.1168 18.6741 12.7746 19.4442 12.1756 19.4727C12.8887 20.2713 14.3433 20.2428 15.0278 19.4156C14.4003 19.1589 14.2292 18.3033 14.5144 17.7043C14.7996 17.1053 15.4557 16.7346 16.0831 16.5349C16.8818 16.2782 17.823 16.2212 18.5075 16.7346C19.1921 17.2194 19.3917 18.3888 18.7072 18.9022C20.1048 19.216 21.6735 18.8167 22.7288 17.8184C22.1584 18.2177 21.3312 17.5332 21.3598 16.8486C21.3883 16.1356 21.9872 15.5937 22.5862 15.2229C23.3278 14.7665 24.1264 14.4528 24.9821 14.3102C25.581 14.1961 26.2941 14.2246 26.6649 14.7095C26.9786 15.1373 26.8931 15.7648 26.5793 16.1926C26.2656 16.6205 25.8092 16.9057 25.3529 17.1909C25.9804 17.8469 27.0927 17.7043 27.8343 17.2194C28.7755 16.649 28.8326 14.4813 29.6597 15.1944C31.1144 16.4208 30.8291 15.0517 30.2016 14.2816C29.9164 13.9109 30.715 13.4545 31.1144 13.1693C31.5137 12.8841 32.0841 12.7985 32.4549 13.0837C32.7116 13.2834 32.8542 13.5971 33.0253 13.8538C33.1965 14.1105 33.5387 14.3387 33.8525 14.2246C34.1948 14.082 34.2233 13.5971 34.0521 13.2548C33.881 12.9411 33.5958 12.6844 33.4247 12.3421C33.168 11.8858 33.225 11.2583 33.5673 10.859C33.9095 10.4597 34.48 10.26 34.9934 10.4026C35.3356 11.0301 36.2198 11.3439 36.8758 11.0301C37.5319 10.7164 37.9026 9.88922 37.6459 9.20468C37.5033 8.80537 37.1896 8.49163 36.9899 8.09232C36.7903 7.69301 36.7903 7.15108 37.1611 6.9229C37.4463 6.75177 37.8456 6.86586 38.0738 7.06552C38.3305 7.29369 38.4446 7.60744 38.5872 7.92118C38.8154 8.49163 39.0721 9.0906 38.9294 9.68956C38.7013 10.7449 37.5033 11.2583 36.4195 11.4009C35.6494 11.515 34.7367 11.6291 34.4515 12.3136C34.2518 12.7414 34.3944 13.2263 34.4229 13.6827C34.4515 14.139 34.3374 14.7095 33.9095 14.8521C33.4532 15.0232 32.9683 14.6239 32.5405 14.3672C32.1126 14.1105 31.3425 14.139 31.314 14.6524C31.2855 15.1373 32.0271 15.3084 32.1982 15.7648C32.4264 16.3067 31.7133 16.8201 31.1429 16.7916C30.5724 16.7631 30.0305 16.4493 29.4315 16.4493C28.8041 16.4493 28.8611 17.8469 28.3762 18.2462C27.8913 18.6455 26.9216 18.9878 26.2941 18.9878C25.1247 18.9878 24.7539 18.1607 24.5542 17.5617C24.925 17.4191 25.1532 16.9342 24.9821 16.5634C24.8395 16.1926 24.3546 15.993 23.9553 16.1356C23.5845 16.3067 23.3848 16.7346 23.3278 17.1339C23.2707 17.5332 23.2993 17.961 23.2137 18.3603C22.9855 19.3871 21.9017 20.0431 20.8464 20.1572C19.791 20.2428 18.7642 19.929 17.7374 19.5868C17.766 19.1304 17.4807 18.7026 17.0814 18.5029C16.6821 18.3033 16.1687 18.3888 15.8264 18.6741C16.3113 19.216 16.0261 20.1287 15.4271 20.5565C14.8282 20.9844 14.0581 21.0414 13.345 21.0985C12.8887 21.127 12.4038 21.1555 11.9759 21.0414C11.5196 20.9273 11.1203 20.6136 10.9777 20.1572C10.8921 19.815 10.9777 19.4727 10.9491 19.1019C10.9206 18.7311 10.6924 18.3603 10.3502 18.3888C10.0079 18.3888 9.80825 18.8167 9.77973 19.1589C9.77973 19.5012 9.8653 19.872 9.75121 20.2143C9.63712 20.6136 9.18077 20.9273 8.78145 20.8418C7.21273 20.3854 5.2447 20.6421 4.93095 20.1857Z" fill="#9FCC29"/>
<path opacity="0.55" d="M8.03985 15.1088C7.72611 15.2514 7.38384 15.1088 7.09862 14.9091C6.81339 14.738 6.5567 14.4813 6.21443 14.4243C5.87216 14.3672 5.47285 14.6239 5.52989 14.9377C5.55842 15.1088 5.70103 15.2514 5.84364 15.3655C6.35704 15.7933 6.87044 16.2212 7.41236 16.6205C7.72611 16.8487 8.03985 17.0483 8.38212 17.1339C8.75291 17.1909 9.18074 17.1054 9.38039 16.7631C9.75118 16.1641 9.06665 15.3655 9.23778 14.681C9.52301 14.5669 9.80823 14.7951 9.95084 15.0518C10.0935 15.3085 10.1505 15.6222 10.3216 15.8504C10.6924 16.3638 11.434 16.4493 12.0615 16.4779C12.689 16.5064 13.3735 16.4779 13.8584 16.0786C14.4003 15.5937 14.4574 14.7665 14.4574 14.0535C14.6855 13.9109 14.9708 14.025 15.1704 14.1961C15.3701 14.3672 15.5127 14.5954 15.7123 14.7665C16.2828 15.3085 17.1955 15.2229 17.9656 15.1088C18.5646 14.9947 19.192 14.8521 19.7054 14.5098C20.2188 14.1676 20.6467 13.6256 20.6467 12.9982C20.6467 12.6559 20.5896 12.2281 20.8749 12.0569C21.103 11.9143 21.4168 12.0569 21.5879 12.2851C21.759 12.5133 21.8161 12.77 21.9872 12.9982C22.2724 13.426 22.7858 13.6256 23.2992 13.6542C23.8126 13.6827 24.2975 13.5401 24.8109 13.3975C25.3243 13.2263 25.8662 13.0552 26.2941 12.7415C26.7219 12.4277 27.0642 11.9143 27.0642 11.3724C27.0642 11.0301 26.9216 10.6878 26.9501 10.3456C26.9786 10.0033 27.2353 9.63253 27.5776 9.68958C27.8057 9.7181 27.9484 9.94628 28.091 10.1174C28.8611 11.0586 30.2587 11.4294 31.371 10.9731C32.4834 10.5167 33.2535 9.29026 33.1679 8.09233C33.1394 7.86415 33.1109 7.60745 33.225 7.4078C33.4532 7.00849 34.0806 7.12258 34.4229 7.43632C34.7652 7.72154 35.0219 8.14938 35.4497 8.32051C35.6779 8.40608 35.9916 8.37756 36.1057 8.14938C36.1342 8.06381 36.1342 7.94972 36.1342 7.83563C36.0202 7.35075 35.5923 7.00849 35.193 6.75179C34.7081 6.40952 34.2232 6.06725 33.6243 5.95316C33.0538 5.81055 32.3693 5.95317 32.027 6.43804C31.5136 7.1511 31.9415 8.23495 31.5422 9.03357C31.1999 9.74662 30.1731 10.0033 29.5171 9.54696C29.1463 9.29026 28.8896 8.89095 28.6044 8.54869C28.2051 8.12085 27.6917 7.80711 27.0927 7.80711C26.5223 7.80711 25.9233 8.1779 25.7807 8.71982C25.6381 9.2047 25.8662 9.74662 25.8948 10.26C25.9233 10.9731 25.5525 11.6576 24.9535 12.0284C24.3546 12.3992 23.5559 12.3992 22.957 12.0569C22.4436 11.7717 22.1013 11.2583 21.645 10.8875C21.1886 10.5167 20.5326 10.2315 20.0477 10.5452C19.2776 11.0016 19.5628 12.171 19.2206 12.9696C18.8213 13.9394 17.3096 14.2246 16.5965 13.4545C16.0546 12.8555 15.8835 11.8287 15.1134 11.6291C14.3718 11.4294 13.7158 12.2281 13.5161 12.9696C13.3735 13.483 13.3165 14.025 12.9742 14.4243C12.6034 14.8521 11.9474 14.9662 11.4625 14.681C10.9491 14.3957 10.7209 13.7968 10.3787 13.3404C10.0364 12.8841 9.35187 12.5133 8.89552 12.8841C8.15394 13.426 8.75291 14.7665 8.03985 15.1088Z" fill="#DD7465"/>
<path d="M8.03985 14.4243C7.72611 14.5669 7.38384 14.4243 7.09862 14.2246C6.81339 14.0535 6.5567 13.7968 6.21443 13.7397C5.87216 13.6827 5.47285 13.9394 5.52989 14.2531C5.55842 14.4243 5.70103 14.5669 5.84364 14.681C6.35704 15.1088 6.87044 15.5366 7.41236 15.9359C7.72611 16.1641 8.03985 16.3638 8.38212 16.4493C8.75291 16.5064 9.18074 16.4208 9.38039 16.0785C9.75118 15.4796 9.06665 14.681 9.23778 13.9964C9.52301 13.8823 9.80823 14.1105 9.95084 14.3672C10.0935 14.6239 10.1505 14.9377 10.3216 15.1658C10.6924 15.6792 11.434 15.7648 12.0615 15.7933C12.689 15.8218 13.3735 15.7933 13.8584 15.394C14.4003 14.9091 14.4574 14.082 14.4574 13.3689C14.6855 13.2263 14.9708 13.3404 15.1704 13.5115C15.3701 13.6827 15.5127 13.9109 15.7123 14.082C16.2828 14.6239 17.1955 14.5383 17.9656 14.4243C18.5646 14.3102 19.192 14.1676 19.7054 13.8253C20.2188 13.483 20.6467 12.9411 20.6467 12.3136C20.6467 11.9713 20.5896 11.5435 20.8749 11.3724C21.103 11.2298 21.4168 11.3724 21.5879 11.6006C21.759 11.8287 21.8161 12.0854 21.9872 12.3136C22.2724 12.7414 22.7858 12.9411 23.2992 12.9696C23.8126 12.9981 24.2975 12.8555 24.8109 12.7129C25.3243 12.5418 25.8662 12.3707 26.2941 12.0569C26.7219 11.7432 27.0642 11.2298 27.0642 10.6878C27.0642 10.3456 26.9216 10.0033 26.9501 9.66104C26.9786 9.31878 27.2353 8.94799 27.5776 9.00504C27.8057 9.03356 27.9484 9.26174 28.091 9.43287C28.8611 10.3741 30.2587 10.7449 31.371 10.2885C32.4834 9.83218 33.2535 8.60572 33.1679 7.40779C33.1394 7.17961 33.1109 6.92291 33.225 6.72326C33.4532 6.32395 34.0806 6.43804 34.4229 6.75178C34.7652 7.037 35.0219 7.46483 35.4497 7.63596C35.6779 7.72153 35.9916 7.69302 36.1057 7.46484C36.1342 7.37927 36.1342 7.26518 36.1342 7.15109C36.0202 6.66621 35.5923 6.32394 35.193 6.06724C34.7081 5.72497 34.2232 5.38271 33.6243 5.26862C33.0538 5.12601 32.3693 5.26863 32.027 5.7535C31.5136 6.46656 31.9415 7.5504 31.5422 8.34902C31.1999 9.06208 30.1731 9.31878 29.5171 8.86242C29.1463 8.60572 28.8896 8.20641 28.6044 7.86415C28.2051 7.43631 27.6917 7.12257 27.0927 7.12257C26.5223 7.12257 25.9233 7.49336 25.7807 8.03528C25.6381 8.52016 25.8662 9.06208 25.8948 9.57548C25.9233 10.2885 25.5525 10.9731 24.9535 11.3439C24.3546 11.7146 23.5559 11.7146 22.957 11.3724C22.4436 11.0872 22.1013 10.5738 21.645 10.203C21.1886 9.83218 20.5326 9.54696 20.0477 9.8607C19.2776 10.3171 19.5628 11.4865 19.2206 12.2851C18.8213 13.2548 17.3096 13.5401 16.5965 12.77C16.0546 12.171 15.8835 11.1442 15.1134 10.9445C14.3718 10.7449 13.7158 11.5435 13.5161 12.2851C13.3735 12.7985 13.3165 13.3404 12.9742 13.7397C12.6034 14.1676 11.9474 14.2816 11.4625 13.9964C10.9491 13.7112 10.7209 13.1122 10.3787 12.6559C10.0364 12.1995 9.35187 11.8287 8.89552 12.1995C8.15394 12.7414 8.75291 14.082 8.03985 14.4243Z" fill="#FFE02A"/>
<path d="M13.8584 13.3689C13.7158 13.8253 13.402 14.2246 13.0027 14.4243C12.4608 14.7095 11.7762 14.7095 11.1488 14.7095C11.0061 14.7095 10.835 14.7095 10.7495 14.8521C10.6639 14.9662 10.7209 15.1373 10.835 15.2229C10.9491 15.3084 11.0917 15.337 11.2343 15.3655C11.8333 15.4796 12.4893 15.5081 13.0312 15.2229C13.5732 14.9662 14.001 14.3387 13.8584 13.7397C13.8298 13.6256 13.7728 13.483 13.8584 13.3689Z" fill="#FFFF66"/>
<path d="M8.98108 14.8521C8.98108 14.738 8.95256 14.6239 8.95256 14.5098C8.86699 14.7665 8.69586 15.0232 8.43916 15.1088C8.29655 15.1373 8.12542 15.1088 7.95428 15.0803C7.86872 15.0517 7.78315 15.0518 7.69758 15.0232C7.55497 14.9947 7.38384 15.0518 7.26975 15.1373C7.24123 15.1658 7.21271 15.1944 7.21271 15.2229C7.21271 15.2799 7.26975 15.337 7.29827 15.3655C7.44088 15.4796 7.55497 15.5937 7.69758 15.7078C7.81167 15.7933 7.92576 15.9074 8.06837 15.9645C8.21099 16.0215 8.35359 16.0786 8.52473 16.0215C8.75291 15.9645 8.92404 15.7363 8.98108 15.5081C9.03813 15.3084 9.00961 15.0803 8.98108 14.8521Z" fill="#FFFF66"/>
<path d="M16.9673 14.1105C17.5663 14.1676 18.1938 14.1676 18.7927 14.025C19.078 13.9394 19.3917 13.8253 19.6199 13.5971C20.0192 13.1978 20.1333 12.5988 20.0762 12.0284C19.7625 12.7415 19.0494 13.2263 18.2793 13.4545C17.9371 13.5686 17.5663 13.6256 17.224 13.5401C16.8532 13.4545 16.511 13.1978 16.1402 13.1408C16.0831 13.1408 16.0261 13.1408 15.969 13.1693C15.912 13.1978 15.912 13.2834 15.912 13.3404C15.912 13.5686 16.0831 13.7968 16.3113 13.9109C16.4824 14.0249 16.7106 14.082 16.9673 14.1105Z" fill="#FFFF66"/>
<path d="M22.5862 12.1425C22.8429 12.4848 23.3563 12.5133 23.7842 12.4847C24.4687 12.4277 25.1532 12.3136 25.7237 11.9143C26.2941 11.515 26.6934 10.859 26.5793 10.1745C26.3226 10.7449 25.8092 11.1442 25.2673 11.458C24.9251 11.6576 24.5828 11.8287 24.212 11.9143C23.8412 11.9999 23.4419 11.9999 23.0711 11.8287C22.9855 11.7717 22.9 11.7432 22.7859 11.7147C22.6718 11.6861 22.5577 11.7146 22.5292 11.8002C22.4721 11.9143 22.5007 12.0569 22.5862 12.1425Z" fill="#FFFF66"/>
<path d="M32.2838 6.92291C32.1412 7.15109 32.1697 7.43632 32.1412 7.72154C32.0556 8.52016 31.4281 9.23322 30.6295 9.40435C30.0305 9.54696 29.403 9.37582 28.8326 9.20469C28.69 9.31878 28.7185 9.54696 28.8326 9.66105C28.9467 9.77514 29.1178 9.86071 29.2889 9.88923C29.6027 9.9748 29.9449 10.0033 30.2872 10.0318C30.5154 10.0318 30.7436 10.0318 30.9717 9.97479C31.4566 9.86071 31.8845 9.57548 32.1412 9.14765C32.4264 8.74834 32.5405 8.23494 32.4549 7.75006C32.3979 7.49336 32.2838 7.20813 32.2838 6.92291Z" fill="#FFFF66"/>
<path d="M35.5924 7.37926C35.6209 7.35074 35.6494 7.32222 35.6494 7.26517C35.6779 7.12256 35.5924 7.00847 35.4783 6.9229C35.2501 6.72325 34.9649 6.55212 34.6511 6.49507C34.6511 6.6662 34.7367 6.83734 34.8508 6.97995C34.9649 7.12256 35.1075 7.23666 35.2501 7.32222C35.3927 7.37927 35.5068 7.43631 35.5924 7.37926Z" fill="#FFFF66"/>
<path d="M6.3856 14.2246C6.32855 14.1961 6.30003 14.139 6.21446 14.1105C6.15742 14.082 6.10038 14.082 6.07185 14.1105C5.95776 14.139 5.92924 14.3387 5.98629 14.4242C6.04333 14.5383 6.15742 14.5954 6.27151 14.6809C6.32855 14.7095 6.35707 14.738 6.41412 14.738C6.52821 14.738 6.61377 14.5954 6.58525 14.4813C6.55673 14.3957 6.47116 14.2816 6.3856 14.2246Z" fill="#FFFF66"/>
<path d="M9.03812 12.7415C8.92403 12.9126 8.95255 13.1978 9.12368 13.3404C9.26629 13.4545 9.46595 13.4545 9.6656 13.4545C9.72265 13.4545 9.80821 13.4545 9.86526 13.3975C9.9223 13.3404 9.95083 13.2549 9.95083 13.1978C9.95083 13.1122 9.89378 13.0552 9.86526 12.9982C9.75117 12.8555 9.63708 12.7129 9.46595 12.6844C9.29482 12.6274 9.09516 12.6844 8.98107 12.827C8.92403 12.8555 9.06664 12.7129 9.03812 12.7415Z" fill="#FFFF66"/>
<path d="M15.0278 11.515C14.7996 11.5435 14.5715 11.6291 14.3718 11.7717C14.3148 11.8002 14.2292 11.8572 14.2007 11.9143C14.1722 11.9713 14.1436 12.0569 14.1722 12.1425C14.2007 12.1995 14.2292 12.228 14.2862 12.2566C14.5429 12.4277 14.9137 12.3421 15.1419 12.5418C15.1704 12.5703 15.199 12.5988 15.2275 12.5988C15.313 12.5988 15.3416 12.5418 15.3701 12.4562C15.4271 12.2851 15.4271 12.114 15.3986 11.9428C15.3701 11.8287 15.313 11.7146 15.2275 11.6291C15.1134 11.572 15.1419 11.515 15.0278 11.515Z" fill="#FFFF66"/>
<path d="M20.7608 10.26C20.5041 10.1174 20.1618 10.203 20.0192 10.4597C19.9622 10.5452 19.9337 10.6308 19.9622 10.7164C20.0192 10.859 20.1904 10.859 20.333 10.859C20.5326 10.859 20.7608 10.859 20.9605 10.859C21.046 10.7734 21.046 10.6308 20.989 10.5452C20.9319 10.4311 20.8464 10.3456 20.7608 10.2885C20.7323 10.203 20.8464 10.2885 20.7608 10.26Z" fill="#FFFF66"/>
<path d="M26.2941 8.63425C26.3226 8.66277 26.3796 8.6913 26.4082 8.6913C26.5793 8.74834 26.7789 8.6913 26.9216 8.60573C27.0071 8.52017 27.0927 8.43459 27.2068 8.37755C27.3209 8.3205 27.4635 8.32051 27.5776 8.32051C27.6061 8.32051 27.6346 8.32051 27.6631 8.29199C27.6917 8.26346 27.6917 8.23494 27.6917 8.23494C27.6917 8.14937 27.6346 8.09233 27.5776 8.03529C27.435 7.89268 27.2068 7.86415 27.0071 7.83563C26.9216 7.83563 26.836 7.80711 26.7504 7.83563C26.4652 7.86415 26.237 8.12085 26.2085 8.37755C26.2085 8.46312 26.2085 8.5772 26.2941 8.63425Z" fill="#FFFF66"/>
<path d="M33.9665 5.7535C33.6813 5.55384 33.2535 5.58236 32.9112 5.66793C32.8542 5.69645 32.7686 5.69645 32.7116 5.7535C32.626 5.81054 32.5689 5.86758 32.5404 5.95315C32.5119 6.01019 32.5119 6.03871 32.5119 6.09576C32.5404 6.23837 32.683 6.32394 32.8256 6.32394C32.9683 6.32394 33.1109 6.20985 33.225 6.12428C33.339 6.03872 33.4531 5.92463 33.5957 5.89611C33.7098 5.86759 33.8524 5.86758 33.9665 5.83906C34.0236 5.75349 34.0521 5.81054 33.9665 5.7535Z" fill="#FFFF66"/>
<defs>
<linearGradient id="paint0_linear_66_2535" x1="7.43788" y1="13.6478" x2="8.7493" y2="14.5316" gradientUnits="userSpaceOnUse">
<stop offset="0.1872" stop-color="#C13D31"/>
<stop offset="1" stop-color="#EA5A4D"/>
</linearGradient>
<linearGradient id="paint1_linear_66_2535" x1="12.4441" y1="14.6425" x2="13.9651" y2="15.0573" gradientUnits="userSpaceOnUse">
<stop offset="0.1872" stop-color="#C13D31"/>
<stop offset="1" stop-color="#EA5A4D"/>
</linearGradient>
<linearGradient id="paint2_linear_66_2535" x1="17.7085" y1="14.7104" x2="19.1845" y2="14.7104" gradientUnits="userSpaceOnUse">
<stop offset="0.1872" stop-color="#C13D31"/>
<stop offset="1" stop-color="#EA5A4D"/>
</linearGradient>
<linearGradient id="paint3_linear_66_2535" x1="23.8119" y1="13.3504" x2="25.7944" y2="12.4617" gradientUnits="userSpaceOnUse">
<stop offset="0.1872" stop-color="#C13D31"/>
<stop offset="1" stop-color="#EA5A4D"/>
</linearGradient>
<linearGradient id="paint4_linear_66_2535" x1="29.8029" y1="9.9028" x2="31.1872" y2="8.51853" gradientUnits="userSpaceOnUse">
<stop offset="0.1872" stop-color="#C13D31"/>
<stop offset="1" stop-color="#EA5A4D"/>
</linearGradient>
</defs>
</svg>
