<svg width="33" height="26" viewBox="0 0 33 26" fill="none" xmlns="http://www.w3.org/2000/svg">
<path d="M1.87415 20.1052C1.87415 20.1052 2.33446 23.689 3.22219 24.4452C4.07705 25.2015 19.1028 27.4044 28.5063 24.3466C28.8022 24.248 28.9994 24.0507 29.131 23.7877C29.5584 22.8013 30.5448 20.4011 30.3146 19.2503C30.0187 17.7708 24.0018 22.5711 1.87415 20.1052Z" fill="#F89945"/>
<path d="M6.21412 22.7356C7.52928 23.2616 8.51566 22.2424 9.66643 22.7684C10.8172 23.2945 11.0802 23.4918 12.0008 22.8342C12.1652 22.7027 12.4283 22.8342 12.5927 22.8671C13.9078 23.2288 14.6641 23.3931 16.1765 22.8342C16.5382 22.7027 16.7354 22.6369 17.13 22.7356C18.1492 22.9657 19.1356 22.7027 20.0234 22.2424C20.0891 22.2095 20.1549 22.1766 20.2206 22.1766C21.0097 22.1766 21.3056 22.6369 22.0947 22.8013C23.3113 23.0315 24.3963 23.2287 25.0867 22.0122C25.1854 21.8478 25.4155 21.7163 25.6128 21.6834C26.7636 21.3546 27.191 22.604 28.3418 21.4533C28.9336 20.8615 29.4597 21.3875 29.9857 21.4862C30.2488 20.6642 30.4132 19.8093 30.2816 19.2504C29.9857 17.8037 23.936 22.604 1.84119 20.1052C1.84119 20.1052 2.03847 21.6834 2.43302 22.9657C3.55091 23.7877 5.12911 22.3081 6.21412 22.7356Z" fill="#D77124"/>
<path opacity="0.55" d="M20.4837 24.3795C19.1027 23.5904 17.2286 22.4067 16.4067 20.9272C12.8557 21.0587 8.31838 20.9929 2.59741 20.4011C2.59741 20.4011 3.02483 23.3274 3.81393 23.9521C4.43864 24.4452 13.4804 25.7275 21.4043 24.8398C21.1084 24.7083 20.7796 24.5439 20.4837 24.3795Z" fill="#CD4200"/>
<path d="M14.138 12.806C14.138 12.806 2.43308 14.1541 1.90701 15.4364C1.38094 16.7187 1.70973 19.2504 2.63035 19.9408C3.55096 20.6313 15.3875 20.5984 17.3273 20.7299C24.758 21.2231 29.2296 18.5599 29.5255 18.527C29.8214 18.4941 31.4654 15.3377 29.5255 13.365C27.7171 11.5238 16.3081 12.9376 14.138 12.806Z" fill="#BE5B2A"/>
<path d="M17.3931 18.4284C16.0451 17.6393 14.7299 16.7844 13.6778 15.6008C12.9873 14.8446 12.4612 13.9239 11.9023 13.0691C9.46923 13.3979 5.65525 13.9568 3.48523 14.6144C3.41947 17.1132 4.27432 19.1517 6.41147 20.4998C10.3241 20.7957 16.0122 20.8943 17.2945 20.6971C17.8534 20.5984 19.1686 20.4011 20.681 20.1052C19.596 19.6778 18.4781 19.1189 17.3931 18.4284Z" fill="#AE4D25"/>
<path d="M10.324 15.272C12.231 15.2062 13.9736 15.7323 15.8477 16.0611C17.393 16.3241 18.9055 16.5543 20.385 17.0475C21.5687 17.442 24.1004 19.2504 24.9224 17.9023C25.5471 16.8831 26.6649 16.4228 27.6184 15.798C28.2103 15.4364 29.2624 14.8117 30.2488 14.6144C30.1173 14.187 29.8542 13.7595 29.4926 13.365C27.6842 11.5238 16.2751 12.9376 14.1051 12.806C14.1051 12.806 2.40015 14.1541 1.87408 15.4364C1.74256 15.7652 1.6768 16.1268 1.64392 16.5543C4.47153 15.6008 7.29914 15.3706 10.324 15.272Z" fill="#953E25"/>
<path d="M1.87415 19.8422C1.87415 19.8422 3.35371 19.1188 4.24145 18.9545C5.12918 18.7901 7.62799 19.5792 10.0611 19.1517C12.4941 18.7243 12.3626 20.2039 15.1573 19.6449C17.9849 19.0531 18.7411 20.1381 19.6618 19.8422C20.5824 19.5463 23.2456 19.7436 23.8045 19.908C24.3964 20.0395 27.487 18.0996 28.572 18.3298C29.6899 18.5599 30.742 17.6064 31.0051 18.0667C31.2681 18.527 31.7284 19.5792 30.1831 19.9408C28.6378 20.2696 27.9473 20.8286 27.2568 20.5327C26.5664 20.2367 22.851 22.341 22.3578 21.7163C21.8647 21.1245 20.2865 21.1902 18.9055 21.3875C17.5246 21.5848 16.9985 21.1245 15.3217 21.4862C13.6449 21.8478 11.2776 21.1574 10.5542 21.5519C9.8309 21.9136 7.52936 22.2424 6.97041 21.7163C6.37859 21.2231 4.43871 20.8943 3.94553 21.1902C3.45234 21.4533 1.97278 20.2039 1.87415 19.8422Z" fill="#7BB027"/>
<path d="M3.3866 18.8887C3.3866 18.8558 3.35372 18.8229 3.41948 18.8229C3.51812 18.7572 3.68251 18.6257 3.81402 18.5928V18.5599C4.0113 18.4941 4.1757 18.3626 4.37297 18.3298V18.2969C4.73464 18.2969 5.26071 18.1982 5.62238 18.1325C6.04981 18.1654 6.60875 18.4613 6.27996 18.9216C6.14844 19.1189 5.88541 19.1517 5.91829 19.4805C5.95117 19.7107 6.21421 19.9408 6.34572 20.0066C6.83891 20.171 7.52937 20.1381 8.05543 20.0723C8.48286 20.0395 9.40348 19.9408 9.43636 19.349C9.46924 19.1846 9.20621 19.0531 9.17333 18.8887C9.14045 18.6585 9.30484 18.4613 9.43636 18.3626C9.66651 18.3626 9.96243 18.264 10.1597 18.1982C10.4556 18.264 10.8173 18.1325 11.1132 18.1325C11.3762 18.1325 11.705 18.1982 11.9681 18.1982C12.1325 18.2969 12.3297 18.3955 12.527 18.4941C12.6585 18.6585 12.9216 18.9216 12.79 19.1846C12.7243 19.349 12.4941 19.349 12.3626 19.4476C12.1982 19.5792 12.1324 19.6778 12.0338 19.8422C12.0667 20.0066 12.1653 20.1381 12.2969 20.2039C12.3626 20.2367 12.3955 20.2039 12.4612 20.2696C13.1188 20.2039 13.7764 20.4669 14.4011 20.3025C14.5326 20.3354 14.6313 20.3354 14.697 20.2696C14.8614 20.3025 15.0258 20.2696 15.1902 20.2367V20.2039C15.2231 20.2039 15.256 20.2367 15.256 20.2039C15.256 20.171 15.256 20.171 15.256 20.171C15.6834 20.0066 14.8614 19.6778 14.7299 19.5463C14.3354 19.1517 14.9272 18.8887 15.2888 18.8229C16.1766 18.6585 17.4589 18.5928 18.248 19.1517C18.3137 19.4476 18.0836 19.8422 17.7877 19.908C17.7219 20.0066 17.5575 20.1052 17.4589 20.2367C17.4589 20.2696 17.4589 20.3354 17.4589 20.3683C17.5246 20.4011 17.6233 20.4669 17.689 20.4669C17.8863 20.5984 18.2151 20.5327 18.4124 20.5327C18.4452 20.5327 18.511 20.5327 18.511 20.5327C18.6096 20.5655 18.7083 20.5327 18.8069 20.5327V20.4998C18.9384 20.4998 19.2015 20.434 19.1686 20.2367C19.4316 19.8751 18.8069 19.2832 19.5631 19.2504C19.9906 19.2175 20.5824 19.4476 20.8454 19.0202C21.1413 18.9216 21.3386 18.8229 21.6674 18.9216C22.0948 19.4805 21.5688 19.7436 21.2071 20.171L21.1742 20.2039C21.1742 20.2696 21.1742 20.3354 21.2071 20.3683C21.24 20.4011 21.24 20.4011 21.2729 20.434V20.4011C21.4044 20.5655 21.9304 20.6642 22.0619 20.5655C22.588 20.7957 23.0154 19.9737 23.2785 19.612C23.4758 19.3819 23.6401 19.1188 23.8703 18.9545C24.1333 18.7572 24.3635 18.8229 24.5936 18.6914C25.0211 18.8229 25.2841 18.8887 25.58 19.2175C25.8102 19.4476 25.9417 19.9408 26.3362 19.8422C27.5856 20.0723 27.9802 18.001 28.9337 17.5407C29.1967 17.4091 29.4926 17.442 29.657 17.705C29.8214 17.9352 29.7228 18.2311 29.8543 18.4613C30.0187 18.6914 30.3146 18.7243 30.5448 18.5599C30.7749 18.3955 30.742 18.0667 30.9064 17.8366C31.3667 17.2447 32.2216 17.5735 32.2216 18.2969C32.2216 18.7572 31.5969 19.6778 31.1695 19.8093C31.1366 20.0395 30.5448 20.5327 30.2817 20.5984C29.7885 20.7299 29.4598 20.3683 29.394 19.9408C29.3611 19.5792 29.4598 18.9873 29.0323 18.8558C28.7035 18.7243 28.2104 19.086 28.2432 19.4148C28.1117 19.6449 28.1117 20.0723 28.046 20.3683C27.9802 20.6313 27.8816 20.9601 27.7172 21.1902C27.6514 21.2231 27.6514 21.2231 27.6514 21.256C26.8952 21.6177 26.0732 21.0916 25.8102 20.2696C25.5471 20.0066 25.0868 19.4148 24.8896 20.171C24.8238 20.434 24.8896 20.697 24.8896 20.9601C24.8896 21.1902 24.7909 21.4861 24.8567 21.7163C24.5608 22.2095 24.1662 22.3739 23.5415 22.4396C22.8839 22.5054 22.2264 22.2424 21.6674 21.9793C21.2071 21.7492 20.8125 21.6177 20.9441 21.0258C20.9769 20.8614 21.1413 20.5327 21.0427 20.3354C20.9441 20.1052 20.5824 20.0395 20.418 20.1381C19.7933 20.1381 19.9248 20.8943 19.7933 21.3218C19.596 21.9465 19.07 22.1766 18.4781 22.2424C18.0507 22.2752 16.7027 22.3081 16.7355 21.6834C16.7355 21.4204 17.0972 21.2231 17.1301 20.9601C17.1958 20.6313 16.8999 20.4011 16.6369 20.2696C16.4396 20.171 15.6176 20.1052 15.8149 20.4998C15.8149 20.6313 15.9464 20.7957 15.9793 20.9601C16.0122 21.1245 15.9793 21.2889 16.0451 21.4533C15.9136 21.6177 15.8807 21.8807 15.8149 22.0451C15.7163 22.2752 15.519 22.4396 15.3217 22.5383C15.256 22.5383 15.2231 22.5712 15.1573 22.604C14.3682 22.5712 13.7106 22.5712 12.9873 22.2095C12.79 22.1109 12.4612 21.9465 12.3626 21.7821C12.1653 21.519 12.3297 21.2231 12.1653 20.9601C11.9352 20.4998 10.8502 20.2367 10.9817 21.0258C11.0474 21.3875 11.3433 21.5519 11.3433 21.9793C11.3433 22.2424 11.3105 22.5054 11.0474 22.6698V22.7027C9.66651 23.1301 10.3241 21.0587 9.30485 20.8943C8.97605 20.8286 8.25271 20.9272 8.05543 21.2231C7.75952 21.6834 8.51574 21.9465 8.08831 22.4068C8.05543 22.4068 7.9568 22.4396 7.9568 22.4068C7.33209 22.5712 6.34572 22.341 6.14845 21.6177C6.04981 21.3546 6.27996 21.0258 6.18133 20.7957C6.08269 20.5984 5.68814 20.4011 5.52374 20.4011C5.35935 20.3025 5.09631 20.3354 4.93191 20.4669C4.66888 20.6642 4.73464 20.8286 4.86616 21.0587C5.19495 21.6505 5.26071 22.0122 4.83328 22.604C4.34009 22.7356 3.71539 22.7684 3.25508 22.4725C2.89341 22.2095 2.79477 21.5519 2.66325 21.1902C2.49886 20.9272 1.8084 20.993 1.54536 21.0587C0.328836 20.9272 -0.0328342 19.1517 1.38097 19.1846C1.90704 19.1846 2.36734 19.5463 2.82765 19.8093C3.18932 20.0066 3.97843 20.3025 4.07706 19.6449C4.1757 19.1189 3.551 19.2175 3.41948 18.8558C3.3866 18.8229 3.32084 18.9545 3.3866 18.8887Z" fill="#9FCC29"/>
<path d="M5.16199 11.9512C5.16199 11.9512 1.21649 13.2335 0.0328369 15.1405L0.460272 15.7981C0.460272 15.7981 7.00321 14.0883 12.0008 14.7788C17.0314 15.4693 22.4893 16.7187 24.1333 17.3763C24.1333 17.3763 27.6184 13.1348 32.3202 13.3321V12.543C32.3202 12.543 30.5776 11.3923 28.5391 11.2936C26.5006 11.1621 12.9215 13.2006 5.16199 11.9512Z" fill="#FFCF08"/>
<path d="M25.2841 15.3706C24.5278 15.8967 23.8703 16.3899 23.8703 16.3899C18.5767 15.0747 14.5983 13.9897 10.8172 13.9897C4.66885 13.9897 0.0328791 15.1076 0 15.1076L0.427435 15.7652C0.427435 15.7652 6.97039 14.0555 11.968 14.7459C16.9985 15.4364 22.4565 16.6858 24.1004 17.3434C24.1004 17.3434 27.5856 13.102 32.2873 13.2992V12.5101C28.5062 12.6745 26.3033 14.6473 25.2841 15.3706Z" fill="#EFA708"/>
<path d="M28.6377 9.28796C28.6377 9.28796 29.3282 9.58388 29.394 10.1428C29.4597 10.7018 29.2953 11.8197 29.0323 12.0498C28.4076 12.5101 14.1709 14.0554 3.02489 12.8389C3.02489 12.8389 2.66322 12.6416 2.46594 10.5045C2.46594 10.5045 5.72098 11.721 17.3602 11.2607C26.5664 10.9319 28.6377 9.28796 28.6377 9.28796Z" fill="#E72124"/>
<path opacity="0.55" d="M16.604 12.4444C19.0042 12.4115 21.4043 12.0498 23.7716 11.7539C25.8759 11.5237 27.6843 11.2607 29.394 10.1099C29.2953 9.58388 28.6377 9.28796 28.6377 9.28796C28.6377 9.28796 26.5664 10.9319 17.3602 11.2936C5.72098 11.721 2.46594 10.5374 2.46594 10.5374C2.5317 11.3594 2.63034 11.8854 2.72898 12.2142C7.23342 13.2006 12.0338 12.5101 16.604 12.4444Z" fill="#C42124"/>
<path d="M15.9793 0.311966C13.4805 0.344845 10.9817 0.706517 8.58148 1.3641C6.9704 1.79153 5.35932 2.41623 3.94552 3.33685C2.59747 4.22459 1.74262 5.34248 1.11792 6.82204C1.11792 6.82204 0.361696 8.86055 1.87414 10.8662C3.3537 12.8718 26.0074 12.0169 29.1967 9.7154C29.1967 9.7154 30.3475 8.33448 29.5913 6.13158C29.1638 4.98081 28.0459 3.89579 27.0596 3.20533C25.5142 2.12032 23.7059 1.42986 21.8647 0.969549C19.9248 0.509241 17.952 0.311966 15.9793 0.311966Z" fill="#F89945"/>
<path d="M24.3635 8.17009C21.1413 9.15647 17.9849 8.82767 14.6641 8.89343C11.2776 8.95919 7.7595 9.32086 4.40583 8.66328C2.89339 8.36737 1.7755 7.93994 1.11791 6.95356C0.986396 7.41387 0.624723 9.15646 1.90701 10.8662C3.38657 12.8718 26.0403 12.017 29.2296 9.71541C29.2296 9.71541 30.3146 8.43312 29.657 6.32886C28.0788 7.28235 26.2705 7.57827 24.3635 8.17009Z" fill="#E8761F"/>
<path opacity="0.32" d="M16.5383 1.33122C15.8149 1.10106 13.8093 0.903787 13.612 2.02168C13.4476 2.94229 15.2231 3.13957 15.8149 3.17245C16.4725 3.20533 17.5246 3.07381 17.6233 2.38335C17.6561 1.8244 17.1301 1.49561 16.5383 1.33122Z" fill="#FDE5C1"/>
<path opacity="0.32" d="M21.9962 3.50124C20.3193 3.33685 18.4781 3.46836 17.2287 4.48762C16.2423 5.34247 17.1958 5.9343 18.0835 6.23021C19.4316 6.65764 21.0098 6.85491 22.4236 6.69052C23.3771 6.59188 25.1197 6.39461 24.9224 5.07944C24.8566 4.71777 24.5607 4.38898 24.2648 4.15883C23.8374 3.86291 22.5551 3.53412 21.9962 3.50124Z" fill="#FDE5C1"/>
<path d="M9.67716 4.23817C10.066 4.04135 10.2881 3.69794 10.1733 3.47112C10.0585 3.24431 9.65023 3.21998 9.26141 3.41679C8.87258 3.6136 8.65044 3.95702 8.76525 4.18383C8.88005 4.41065 9.28833 4.43498 9.67716 4.23817Z" fill="#FBD198"/>
<path d="M16.1208 7.66415C16.5096 7.46734 16.7318 7.12393 16.617 6.89711C16.5022 6.6703 16.0939 6.64597 15.705 6.84278C15.3162 7.03959 15.0941 7.38301 15.2089 7.60983C15.3237 7.83665 15.732 7.86096 16.1208 7.66415Z" fill="#FBD198"/>
<path d="M21.4815 7.17066C21.8704 6.97385 22.0925 6.63043 21.9777 6.40362C21.8629 6.1768 21.4546 6.15248 21.0658 6.34929C20.677 6.5461 20.4548 6.88951 20.5696 7.11633C20.6844 7.34315 21.0927 7.36747 21.4815 7.17066Z" fill="#FBD198"/>
<path d="M5.8606 5.72929C6.24943 5.53247 6.47156 5.18906 6.35676 4.96224C6.24195 4.73543 5.83367 4.7111 5.44485 4.90791C5.05602 5.10472 4.83388 5.44814 4.94869 5.67495C5.0635 5.90177 5.47177 5.9261 5.8606 5.72929Z" fill="#FBD198"/>
<path d="M26.7015 5.50318C27.0903 5.30637 27.3125 4.96295 27.1977 4.73613C27.0829 4.50932 26.6746 4.485 26.2858 4.68181C25.8969 4.87862 25.6748 5.22203 25.7896 5.44885C25.9044 5.67566 26.3127 5.69999 26.7015 5.50318Z" fill="#FBD198"/>
<path d="M18.3026 5.66174C18.4128 5.43266 18.1838 5.09376 17.7911 4.90479C17.3984 4.71583 16.9907 4.74835 16.8805 4.97743C16.7702 5.20651 16.9992 5.5454 17.3919 5.73437C17.7846 5.92333 18.1924 5.89082 18.3026 5.66174Z" fill="#FBD198"/>
<path d="M22.3543 4.74429C22.7811 4.65582 23.0852 4.3823 23.0336 4.13337C22.982 3.88443 22.5942 3.75435 22.1675 3.84282C21.7407 3.93129 21.4366 4.20481 21.4882 4.45374C21.5398 4.70267 21.9276 4.83275 22.3543 4.74429Z" fill="#FBD198"/>
<path d="M10.1822 7.32542C10.2924 7.09634 10.0634 6.75745 9.67072 6.56848C9.27801 6.37952 8.8703 6.41203 8.76007 6.64111C8.64984 6.87019 8.87884 7.20908 9.27154 7.39805C9.66425 7.58701 10.072 7.5545 10.1822 7.32542Z" fill="#FBD198"/>
<path d="M13.8705 5.83711C13.9724 5.64448 13.7427 5.32316 13.3574 5.11942C12.9722 4.91568 12.5773 4.90667 12.4754 5.0993C12.3735 5.29192 12.6033 5.61324 12.9885 5.81698C13.3738 6.02072 13.7687 6.02973 13.8705 5.83711Z" fill="#FBD198"/>
<path d="M5.51228 7.49308C5.56445 7.28152 5.26373 7.02543 4.84061 6.9211C4.41748 6.81676 4.03218 6.9037 3.98001 7.11526C3.92785 7.32682 4.22857 7.5829 4.6517 7.68723C5.07482 7.79156 5.46012 7.70464 5.51228 7.49308Z" fill="#FBD198"/>
<path d="M20.1266 2.57683C20.237 2.36815 20.0271 2.0407 19.6579 1.84545C19.2887 1.6502 18.9 1.66108 18.7896 1.86976C18.6792 2.07844 18.8891 2.40589 19.2583 2.60114C19.6275 2.79639 20.0162 2.78551 20.1266 2.57683Z" fill="#FBD198"/>
<path d="M25.1922 3.27543C25.3026 3.06676 25.0928 2.7393 24.7236 2.54405C24.3544 2.3488 23.9656 2.35969 23.8552 2.56837C23.7449 2.77705 23.9547 3.10449 24.3239 3.29975C24.6931 3.495 25.0819 3.48411 25.1922 3.27543Z" fill="#FBD198"/>
<path d="M12.2086 2.2821C12.3189 2.07342 12.1091 1.74597 11.7399 1.55072C11.3707 1.35547 10.9819 1.36636 10.8716 1.57504C10.7612 1.78372 10.971 2.11116 11.3403 2.30641C11.7095 2.50166 12.0982 2.49078 12.2086 2.2821Z" fill="#FBD198"/>
<path opacity="0.35" d="M29.3939 5.73703C26.2375 7.31523 22.0947 7.90706 18.7739 8.20297C16.3738 8.40025 13.7763 8.66328 11.4419 7.97282C9.14035 7.31523 7.46351 5.73704 7.72654 3.17246C7.7923 2.51488 8.05534 1.92305 8.41701 1.39699C6.83881 1.82442 5.29349 2.41624 3.91257 3.33686C2.56453 4.2246 1.70967 5.34249 1.08496 6.82205C1.08496 6.82205 0.328737 8.86056 1.84118 10.8662C3.32074 12.8718 25.9745 12.017 29.1637 9.71541C29.1637 9.71541 30.3145 8.33449 29.5583 6.13159C29.5254 6.03295 29.4597 5.90143 29.3939 5.73703Z" fill="#D48745"/>
<path opacity="0.32" d="M15.7163 8.95917C15.3217 8.95917 14.8943 8.95917 14.4997 8.95917C11.2118 9.02493 7.82527 9.32084 4.57024 8.7619C3.12355 8.53174 2.03854 8.13719 1.38096 7.31522C1.24944 7.70977 0.887764 9.18933 2.13717 10.6689C2.95915 11.6224 10.2912 11.8197 17.0643 11.458C16.5054 10.6689 16.0451 9.81403 15.7163 8.95917Z" fill="#BA773D"/>
</svg>
