<svg width="50" height="25" viewBox="0 0 50 25" fill="none" xmlns="http://www.w3.org/2000/svg">
<path d="M28.9374 14.9977L5.85239 21.7233L6.48859 24.9649L45.3877 19.7238L45.5089 16.9063L28.9374 14.9977Z" fill="#EC9936"/>
<path opacity="0.55" d="M28.9374 14.9977L5.85239 21.7233L6.45829 24.9649L23.3933 22.6927C23.5145 21.6627 23.8175 20.663 24.7566 20.1479C26.1502 19.3603 27.877 19.1179 29.4524 19.1785C30.9974 19.2391 32.2698 20.2994 33.2999 21.3597L45.3574 19.7238L45.4786 16.9063L28.9374 14.9977Z" fill="#EC9936"/>
<path d="M38.5409 18.3605C35.1782 18.1182 31.8154 18.512 28.5132 19.027C26.2411 19.3906 23.0904 19.542 21.0909 20.7235C17.0616 23.0563 13.4565 22.4504 9.4272 23.8439C8.45775 24.1772 7.42772 24.5407 6.42797 24.359C5.42823 24.1772 4.42849 23.2683 4.61026 22.2686C4.76174 21.2689 5.85236 20.7235 6.82181 20.36C9.15454 19.4814 11.5479 18.7544 13.9412 18.1182C24.5748 15.3007 35.7538 14.6645 46.6297 16.2399C45.9633 17.5728 44.4788 18.2999 43.0246 18.512C41.4796 18.6938 39.9951 18.4514 38.5409 18.3605Z" fill="#6F9E23"/>
<path d="M11.2146 23.3895C9.15457 23.4501 7.09449 23.5107 5.03442 23.5713C4.39822 23.6016 3.70142 23.6016 3.12582 23.2986C2.55021 22.9957 2.12607 22.2989 2.36843 21.693C2.64109 21.0568 3.48936 20.9053 4.18615 21.0265C4.88294 21.178 5.51914 21.5112 6.21593 21.5112C7.0036 21.5112 7.7004 21.1477 8.42748 20.8447C9.24545 20.5418 10.0937 20.36 10.9723 20.2085C12.2144 19.9965 13.4262 19.8147 14.6683 19.6632C18.1825 19.1785 20.8788 17.694 24.3931 17.2093C27.4832 16.7852 31.361 17.3911 34.4511 16.9669C38.5107 16.4216 42.6308 15.846 46.5086 14.5433C47.2054 14.301 48.084 14.0586 48.6596 14.5433C49.2655 15.0583 49.0534 16.149 48.4475 16.664C47.8416 17.179 46.9933 17.3002 46.1753 17.3911C45.6603 17.4517 45.115 17.5122 44.6 17.6031C43.8123 17.694 43.0246 17.8152 42.2673 18.0879C41.0555 18.5423 40.0254 19.3905 38.753 19.6026C37.4806 19.7844 36.2082 19.2391 34.9661 18.8755C31.3913 17.8455 27.5741 18.3908 23.8781 18.9058C22.3027 19.1482 20.6668 19.3906 19.3035 20.1479C18.0917 20.8447 17.0919 21.9051 15.8498 22.5413C14.3956 23.2683 12.7597 23.3289 11.2146 23.3895Z" fill="#9FCC29"/>
<path opacity="0.55" d="M26.029 17.9667C26.6046 17.7243 27.0288 17.7546 27.665 17.694C29.1191 17.5728 30.543 17.3305 31.9669 17.179C29.4221 17.2093 26.6652 16.9367 24.3628 17.2699C20.8485 17.7546 18.1523 19.2391 14.638 19.7238C13.3959 19.9056 12.1538 20.0571 10.942 20.2691C10.0937 20.4206 9.21516 20.6024 8.39719 20.9053C7.6701 21.178 6.97331 21.5718 6.18564 21.5718C5.73121 21.5718 5.27678 21.4203 4.82235 21.2689C4.15586 22.6624 6.94302 22.1474 7.63981 22.0262C8.85162 21.8142 10.0634 21.693 11.3055 21.6021C14.2442 21.3295 17.0919 20.4509 19.97 19.8753C21.1818 19.3603 22.5148 19.1785 23.7872 18.9967C24.3022 18.9361 24.8172 18.8453 25.3625 18.7847C25.6352 18.4817 25.7261 18.0879 26.029 17.9667Z" fill="#B87936"/>
<path opacity="0.55" d="M39.7831 16.6943C40.904 16.5125 42.0249 16.2398 43.1458 16.0278C43.3276 15.9975 44.085 15.9369 44.6303 15.8157C44.4788 15.6642 44.3879 15.4825 44.297 15.2704C41.1463 16.1187 37.8745 16.5731 34.6026 17.0275C36.3294 16.9366 38.0865 16.9669 39.7831 16.6943Z" fill="#B87936"/>
<path d="M4.15585 19.6026L4.5194 21.9051L25.514 18.3908L25.0596 16.5428L24.0901 14.9371L9.91195 16.4519L4.15585 19.6026Z" fill="#FFCF08"/>
<path d="M4.15585 19.6026L4.5194 21.9051L25.514 18.3908L25.0596 16.5428L4.15585 19.6026Z" fill="#EFA708"/>
<path d="M23.6963 15.3916L24.2416 17.694L44.6303 15.3613L43.9335 13.3315C43.9335 13.3315 38.2077 10.1202 32.8152 10.6049C27.8467 11.0291 24.6051 12.9377 23.6963 15.3916Z" fill="#F73333"/>
<path d="M39.7225 11.5441C37.723 10.9079 35.2691 10.3929 32.8454 10.6049C30.3006 10.817 28.2103 11.4229 26.6652 12.3015L39.7225 11.5441Z" fill="#D63333"/>
<path opacity="0.55" d="M31.1186 15.3613C31.1186 14.816 31.3004 14.301 31.6033 13.8465L24.2719 14.2707C24.0295 14.6342 23.8175 14.9977 23.6963 15.3613L24.2416 17.6637L31.3913 16.8458C31.2095 16.4216 31.1186 15.9066 31.1186 15.3613Z" fill="#D63333"/>
<path d="M23.6963 15.3916L43.9335 13.3315C43.9335 13.3315 38.2077 10.1202 32.8152 10.6049C27.8467 11.0291 24.6051 12.9377 23.6963 15.3916Z" fill="#EA3333"/>
<path d="M28.6647 13.7556C29.1797 13.8162 30.8763 14.513 31.058 14.513C31.2398 14.513 29.8765 13.2709 29.8765 13.2709C29.8765 13.2709 31.3004 12.4529 34.542 12.8165C34.542 12.8165 33.6634 13.6345 34.6329 13.9677C35.6326 14.301 35.875 12.9377 35.8447 12.7559C35.8144 12.6044 38.3289 12.7862 39.6619 13.7556L43.9638 13.3012C43.9638 13.3012 38.238 10.0899 32.8454 10.5746C27.8467 11.0291 24.6051 12.9074 23.6963 15.3613L27.3317 14.9977C27.665 14.513 28.3012 13.6951 28.6647 13.7556Z" fill="#C91D1D"/>
<path d="M31.2398 12.0894C34.1178 11.6956 37.6624 11.6047 41.0858 13.6042L43.9638 13.3012C43.9638 13.3012 38.238 10.0899 32.8454 10.5746C27.8467 11.0291 24.6051 12.9074 23.6963 15.3613L25.3928 15.1795C26.3926 13.0589 28.8162 12.4227 31.2398 12.0894Z" fill="#C92222"/>
<path d="M29.21 14.4827C29.1797 14.6039 29.0282 14.6645 28.8162 14.6342C28.6041 14.6039 28.4526 14.4827 28.4829 14.3616C28.5132 14.2404 28.6647 14.1798 28.8768 14.2101C29.0888 14.2404 29.2403 14.3616 29.21 14.4827Z" fill="#FF7E70"/>
<path d="M31.6639 13.6042C31.6639 13.7556 31.4822 13.8162 31.2398 13.7859C31.0277 13.7557 30.846 13.6345 30.846 13.483C30.846 13.3618 31.0277 13.2709 31.2398 13.3012C31.5125 13.3315 31.6942 13.4527 31.6639 13.6042Z" fill="#FF7E70"/>
<path d="M33.2393 13.8465C33.2393 13.998 33.0575 14.1192 32.7849 14.0889C32.5425 14.0586 32.3304 13.9071 32.3304 13.7556C32.3304 13.6042 32.5425 13.5133 32.7546 13.5436C33.0272 13.5133 33.2393 13.6648 33.2393 13.8465Z" fill="#FF7E70"/>
<path d="M37.2989 13.4224C37.3292 13.5436 37.1474 13.6345 36.9353 13.6042C36.7233 13.5739 36.5112 13.4527 36.5112 13.3315C36.4809 13.2103 36.6627 13.1497 36.8747 13.1497C37.0565 13.18 37.2686 13.3012 37.2989 13.4224Z" fill="#FF7E70"/>
<path d="M6.09476 16.2701L6.79155 18.7543L26.847 15.543L26.2411 13.5133C26.2411 13.5133 20.8788 10.2717 15.5166 10.8473C10.3664 11.3926 6.94302 13.5436 6.09476 16.2701Z" fill="#F73333"/>
<path opacity="0.55" d="M12.4871 14.6039C12.4568 14.4827 12.3962 14.3918 12.3659 14.2707L7.03391 14.5736C6.60978 15.1189 6.27653 15.6945 6.09476 16.3004L6.79155 18.7846L14.3351 17.5728C13.3353 16.9366 12.7597 15.8157 12.4871 14.6039Z" fill="#D63333"/>
<path d="M6.09476 16.2701L26.2411 13.5133C26.2411 13.5133 20.8788 10.2717 15.5166 10.8473C10.3664 11.3926 6.94302 13.5436 6.09476 16.2701Z" fill="#EA3333"/>
<path d="M11.3055 14.3312C11.8509 14.3918 13.5777 15.0583 13.7898 15.0583C13.9715 15.0583 12.5477 13.7556 12.5477 13.7556C12.5477 13.7556 14.0018 12.8468 17.2737 13.18C17.2737 13.18 16.4254 14.0889 17.3646 14.3918C18.3643 14.7251 18.5764 13.2709 18.5461 13.0891C18.5158 12.9377 20.9697 13.0891 22.2421 14.0283L26.2714 13.483C26.2714 13.483 20.9091 10.2414 15.5469 10.817C10.3664 11.3623 6.97333 13.5133 6.12506 16.2399L9.97256 15.7248C10.3058 15.1795 10.9117 14.301 11.3055 14.3312Z" fill="#C91D1D"/>
<path d="M13.9109 12.4832C16.8193 11.9985 20.3032 11.847 23.5751 13.8768L26.2411 13.5133C26.2411 13.5133 20.8788 10.2717 15.5166 10.8473C10.3361 11.3926 6.94302 13.5436 6.09476 16.2701L7.91247 16.0278C8.91221 13.6345 11.4267 12.9074 13.9109 12.4832Z" fill="#C92222"/>
<path d="M11.9115 15.1189C11.9115 15.2401 11.6994 15.331 11.4873 15.3007C11.2753 15.2704 11.1238 15.1492 11.1238 15.028C11.1541 14.9069 11.3358 14.816 11.5176 14.8463C11.76 14.8766 11.9115 14.9977 11.9115 15.1189Z" fill="#FF7E70"/>
<path d="M14.3957 14.0889C14.3957 14.2404 14.2139 14.3312 13.9715 14.3009C13.7595 14.2706 13.5777 14.1192 13.5777 13.998C13.5777 13.8465 13.7595 13.7556 14.0018 13.7859C14.2139 13.8162 14.3957 13.9374 14.3957 14.0889Z" fill="#FF7E70"/>
<path d="M15.971 14.301C15.971 14.4827 15.7893 14.5736 15.5166 14.5433C15.2742 14.513 15.0622 14.3615 15.0622 14.1798C15.0622 14.0283 15.2439 13.9071 15.4863 13.9374C15.759 13.9677 15.971 14.1495 15.971 14.301Z" fill="#FF7E70"/>
<path d="M19.97 13.7556C20.0003 13.8768 19.8488 13.9677 19.6064 13.9374C19.3944 13.9071 19.2126 13.7859 19.1823 13.6648C19.152 13.5436 19.3338 13.4527 19.5458 13.483C19.7579 13.5133 19.9397 13.6345 19.97 13.7556Z" fill="#FF7E70"/>
<path d="M34.6329 9.30224C34.6329 9.30224 22.7268 9.54461 22.4542 10.3323C22.1815 11.0897 24.3325 13.6042 26.7864 13.9071C29.2403 14.2101 44.2365 12.7862 45.3574 11.635L45.1453 10.2414C45.1453 10.2717 40.8131 8.18131 34.6329 9.30224Z" fill="#DB4C51"/>
<path d="M41.2675 11.4532C38.4804 11.9682 35.6629 12.2106 32.8152 12.3924C30.2401 12.5438 27.4529 13.0891 25.0293 12.1803C23.8781 11.7562 23.0601 11.2714 22.4239 10.6352C22.6057 11.6047 24.5446 13.6648 26.7561 13.9374C29.21 14.2404 44.2062 12.8165 45.3271 11.6653L45.1453 10.4535C44.3273 11.3017 42.3885 11.2411 41.2675 11.4532Z" fill="#F27162"/>
<path d="M27.9376 12.2409C28.9677 12.4529 29.8765 13.1194 30.9368 13.0589C32.6031 12.968 33.6937 11.0291 35.36 10.9382C36.2688 10.8776 37.1474 11.3926 38.0562 11.3623C38.9651 11.3017 39.7225 10.7261 40.601 10.4232C41.8734 9.99903 43.2367 10.2717 44.5091 10.6655C45.7815 11.0594 47.0236 11.6047 48.3263 11.7259C48.7807 11.7561 49.2958 11.7562 49.6593 11.4532C50.0228 11.1805 50.144 10.5443 49.7805 10.2414C49.5078 9.99903 49.114 10.0596 48.7504 10.0899C48.3869 10.0899 47.9628 9.99903 47.8416 9.66578C47.7204 9.21135 48.296 8.8781 48.4778 8.42367C48.6596 7.96925 48.3263 7.42393 47.8719 7.21186C47.4175 6.9998 46.9024 7.03009 46.4177 7.06039C43.1155 7.36334 39.8133 8.39338 36.5112 8.06014C34.3905 7.84807 32.3304 7.09069 30.1795 6.93921C27.5135 6.75744 24.7869 7.57541 22.6662 9.18106C22.3936 9.39312 22.1209 9.60519 21.9695 9.90814C21.5756 10.6655 22.0906 11.6653 22.848 12.0591C23.6054 12.4529 24.5143 12.4226 25.3625 12.3318C26.2108 12.2409 27.0894 12.0894 27.9376 12.2409Z" fill="#9FCC29"/>
<path d="M22.0906 11.7259C22.6965 11.7562 23.1813 12.2106 23.7872 12.3015C24.5748 12.4227 25.3928 11.847 25.6352 11.0594C25.8775 10.2717 25.6352 9.42343 25.1202 8.78723C24.6051 8.15103 23.8478 7.78748 23.0601 7.57542C21.1818 7.09069 19.1823 7.60571 17.3949 8.3328C15.5772 9.05988 13.8503 9.99903 11.972 10.3929C10.427 10.7261 8.73043 10.7261 7.36714 11.5744C6.67035 11.9985 6.12504 12.6044 5.51913 13.1194C4.91323 13.6345 4.18614 14.0889 3.36817 14.0889C2.85315 14.0889 2.36843 13.9071 1.85341 13.8162C1.33839 13.7254 0.762779 13.7859 0.399237 14.1192C-0.0551921 14.5736 0.00540026 15.3613 0.429534 15.8157C0.853667 16.2701 1.52016 16.4519 2.15636 16.3913C2.79256 16.3307 3.36817 16.0581 3.91349 15.7854C4.4588 15.5128 5.03441 15.2098 5.64031 15.028C7.36714 14.5736 9.30604 15.3916 10.8814 14.5736C12.0023 13.998 12.6688 12.6953 13.8806 12.3924C15.6377 11.9379 17.4555 13.8162 19.1823 13.2103C20.2426 12.8468 21 11.635 22.0906 11.7259Z" fill="#9FCC29"/>
<path d="M22.3027 11.2108C20.0911 10.9988 18.334 12.665 16.2133 12.7256C17.2131 13.0891 18.2431 13.5739 19.2126 13.2406C20.2729 12.8771 21 11.6653 22.1209 11.7561C22.7268 11.7864 23.2116 12.2409 23.8175 12.3318C24.2416 12.3923 24.6657 12.2409 25.0293 11.9985C24.1507 11.847 23.3024 11.3017 22.3027 11.2108Z" fill="#6F9E23"/>
<path opacity="0.55" d="M5.30705 14.8766C7.33683 14.8766 9.36661 14.816 11.3964 14.7554C15.9104 14.5736 20.0911 13.7859 24.4839 12.8468C28.6344 11.9379 32.9363 12.4833 37.0868 11.4532C38.9348 10.9988 40.7525 10.4535 42.6308 10.2111C43.6608 10.0899 44.7212 9.96875 45.7512 9.81727C45.8118 9.81727 45.9936 9.78697 46.2359 9.75668C46.1753 9.69609 46.145 9.6355 46.0844 9.54462C45.6603 8.78724 45.4785 8.02985 45.4179 7.24218C42.449 7.63601 39.4801 8.42369 36.4808 8.12074C34.3602 7.90867 32.3001 7.15129 30.1491 6.99982C28.1497 6.84834 26.1199 7.27247 24.3325 8.18133C23.9386 7.93897 23.5145 7.75719 23.0601 7.63601C21.1818 7.15129 19.1823 7.66631 17.3949 8.39339C15.5771 9.12048 13.8503 10.0596 11.972 10.4535C10.4269 10.7867 8.73041 10.7867 7.36713 11.635C6.67034 12.0591 6.12502 12.665 5.51912 13.18C5.06469 13.5739 4.54967 13.9071 3.97406 14.0586C4.27701 14.4827 3.85288 14.8766 5.30705 14.8766Z" fill="#B87936"/>
<path d="M9.85132 12.5741C11.3661 11.6956 12.5173 10.9079 14.2744 11.4835C15.7589 11.9379 16.9404 12.15 18.3643 11.4835C19.2731 11.0594 20.1214 10.6655 21.0909 10.4535C22.4238 10.1808 24.3021 11.5744 25.6048 11.1503C25.6048 11.12 25.6351 11.0897 25.6351 11.0594C25.8775 10.302 25.6351 9.42343 25.1201 8.78723C24.6051 8.18132 23.8477 7.78748 23.06 7.57542C21.1817 7.09069 19.1823 7.60571 17.3948 8.3328C15.5771 9.05988 13.8503 9.99903 11.972 10.3929C10.4269 10.7261 8.7304 10.7261 7.36711 11.5744C6.85209 11.9076 6.39767 12.3318 5.94324 12.7256C7.33682 13.1194 8.79099 13.2103 9.85132 12.5741Z" fill="#6F9E23"/>
<path d="M27.2711 0.758987L2.21695 10.8776L3.8226 14.0283C3.8226 14.0283 36.9656 11.4229 46.1451 8.87811L46.5389 5.96976L27.2711 0.758987Z" fill="#EA8D1E"/>
<path opacity="0.55" d="M36.6626 3.30379C36.602 5.36386 36.4506 7.39364 35.9052 9.33254C35.7841 9.78697 35.6326 10.2717 35.4811 10.7867C39.9648 10.1808 43.8123 9.5446 46.145 8.87811L46.5389 5.96976L36.6626 3.30379Z" fill="#EC9936"/>
<path opacity="0.55" d="M20.5153 8.48427C20.0306 6.90892 20.0306 4.84885 20.8485 3.36438L2.21695 10.8776L3.8226 14.0283C3.8226 14.0283 13.9412 13.2406 24.5445 12.0894C22.7268 11.4835 21.1212 10.3929 20.5153 8.48427Z" fill="#EC9936"/>
<path d="M27.2711 0.758987L2.21695 10.8776L2.42902 10.9079C9.45751 11.4229 18.3946 10.3626 26.4834 9.15076C34.3299 7.96925 46.5389 5.96976 46.5389 5.96976L27.2711 0.758987Z" fill="#F89F16"/>
<path d="M26.9984 1.21342L4.27701 10.3929L4.45878 10.4232C10.8208 10.9079 18.9096 9.93845 26.2714 8.81753C33.3907 7.7269 44.4485 5.93948 44.4485 5.93948L26.9984 1.21342Z" fill="#F9C22D"/>
<path opacity="0.32" d="M8.00333 10.0899C12.2447 8.2419 16.5163 6.3939 20.7576 4.54589C23.363 3.39467 26.1805 2.24345 28.9979 2.75847C29.4827 2.84936 30.028 3.03112 30.2703 3.45526C30.5127 3.87939 30.24 4.60648 29.725 4.54589C32.9666 4.51559 36.2385 4.90943 39.3892 5.7274C39.4195 6.09094 39.1468 6.3939 38.8439 6.54537C38.5106 6.69685 38.1471 6.72714 37.8138 6.72714C27.7861 7.15127 8.00333 10.0899 8.00333 10.0899Z" fill="#E39700"/>
<path opacity="0.32" d="M25.2658 4.5243C25.7002 4.40025 25.9964 4.10406 25.9275 3.86275C25.8586 3.62144 25.4506 3.52638 25.0162 3.65043C24.5819 3.77448 24.2856 4.07067 24.3546 4.31198C24.4235 4.55329 24.8315 4.64835 25.2658 4.5243Z" fill="#F9C22D"/>
<path opacity="0.32" d="M34.2462 6.00812C34.6805 5.88402 34.9768 5.5878 34.9078 5.34649C34.8389 5.10517 34.4309 5.01015 33.9965 5.13425C33.5621 5.25835 33.2659 5.55457 33.3349 5.79588C33.4038 6.03719 33.8118 6.13221 34.2462 6.00812Z" fill="#F9C22D"/>
<path opacity="0.32" d="M22.3361 7.61342C22.7705 7.48932 23.0667 7.1931 22.9978 6.95179C22.9288 6.71048 22.5208 6.61546 22.0865 6.73955C21.6521 6.86365 21.3559 7.15987 21.4248 7.40118C21.4938 7.64249 21.9018 7.73751 22.3361 7.61342Z" fill="#F9C22D"/>
<path opacity="0.32" d="M14.5819 8.51965C15.0163 8.39556 15.3125 8.09933 15.2435 7.85802C15.1746 7.61671 14.7666 7.52169 14.3322 7.64579C13.8979 7.76988 13.6016 8.0661 13.6706 8.30742C13.7395 8.54873 14.1475 8.64375 14.5819 8.51965Z" fill="#F9C22D"/>
<path opacity="0.32" d="M26.414 6.10328C26.8484 5.97923 27.1447 5.68304 27.0757 5.44173C27.0068 5.20042 26.5988 5.10536 26.1645 5.22941C25.7301 5.35346 25.4339 5.64965 25.5028 5.89096C25.5717 6.13227 25.9797 6.22733 26.414 6.10328Z" fill="#F9C22D"/>
<path opacity="0.32" d="M28.6881 3.92295C29.1225 3.7989 29.4187 3.50271 29.3498 3.2614C29.2809 3.02009 28.8729 2.92503 28.4385 3.04908C28.0042 3.17313 27.7079 3.46932 27.7768 3.71063C27.8457 3.95194 28.2537 4.047 28.6881 3.92295Z" fill="#F9C22D"/>
<path opacity="0.32" d="M29.6084 6.59577C30.0553 6.53027 30.3882 6.27587 30.3518 6.02755C30.3154 5.77924 29.9236 5.63105 29.4766 5.69655C29.0296 5.76205 28.6968 6.01645 28.7332 6.26477C28.7696 6.51308 29.1614 6.66128 29.6084 6.59577Z" fill="#F9C22D"/>
<path opacity="0.32" d="M21.3672 5.56745C21.8142 5.50195 22.147 5.24755 22.1106 4.99923C22.0742 4.75092 21.6824 4.60272 21.2354 4.66823C20.7885 4.73373 20.4556 4.98813 20.492 5.23645C20.5284 5.48476 20.9203 5.63296 21.3672 5.56745Z" fill="#F9C22D"/>
<path opacity="0.32" d="M17.9165 7.90048C18.3635 7.83497 18.6963 7.58057 18.6599 7.33226C18.6235 7.08394 18.2317 6.93575 17.7847 7.00125C17.3377 7.06676 17.0049 7.32116 17.0413 7.56947C17.0777 7.81778 17.4695 7.96598 17.9165 7.90048Z" fill="#F9C22D"/>
<path opacity="0.55" d="M33.2696 2.90996C34.9358 4.21265 36.602 5.51535 38.1168 6.96952C41.7219 6.39391 44.4485 5.93948 44.4485 5.93948L33.2696 2.90996Z" fill="#F9C22D"/>
<path opacity="0.55" d="M23.8477 6.24243C22.5451 5.51535 21.2424 4.78826 19.9397 4.06117L16.3042 5.51534C17.0919 5.90918 17.8493 6.24243 18.334 6.51509C19.97 7.36336 21.6059 8.21162 23.2721 8.99929C23.3933 9.05988 23.5448 9.12048 23.666 9.18107C24.5445 9.05989 25.4231 8.93871 26.3017 8.78723C26.8167 8.69635 27.362 8.63575 27.9376 8.54486C26.5743 7.78748 25.211 7.03011 23.8477 6.24243Z" fill="#F9C22D"/>
<path opacity="0.55" d="M12.2144 7.18158L4.30731 10.3929L4.48908 10.4232C8.03362 10.6958 12.0932 10.5141 16.2739 10.0899C14.9106 9.15077 13.5474 8.18132 12.2144 7.18158Z" fill="#F9C22D"/>
</svg>
