<svg width="40" height="27" viewBox="0 0 40 27" fill="none" xmlns="http://www.w3.org/2000/svg">
<path d="M34.921 12.4951C34.921 12.4951 24.1816 0.593016 17.3279 2.42882C10.4743 4.29522 7.84294 5.02954 5.88474 8.2116C4.69147 10.1698 3.13104 17.0541 2.33552 19.257C1.54001 21.46 -0.815938 26.1719 6.3437 26.2943C13.5645 26.4778 27.8532 11.5466 34.921 12.4951Z" fill="#F89945"/>
<path opacity="0.35" d="M23.1719 3.31612C23.0495 3.28552 22.9577 3.28553 22.8353 3.25493H22.8047C22.6823 3.46911 22.4681 3.5915 22.1928 3.5303C20.1734 3.04075 18.7353 3.28553 16.6853 3.71388C15.6756 3.89746 13.9928 4.60119 12.9831 4.20343C12.9525 4.17283 12.9219 4.14223 12.8913 4.11164C12.6466 4.14223 12.4018 4.17283 12.157 4.20343C10.3518 4.53999 9.80108 5.30491 8.82199 6.80415C8.14886 7.84444 6.61903 10.2616 5.18098 10.8429C5.11979 11.7302 5.21157 12.8011 5.21157 13.1683C5.21157 14.1474 5.21157 15.0653 4.9056 16.0138C4.59964 16.9929 3.98771 17.9414 2.85563 17.7272C2.76384 18.0331 2.67205 18.3391 2.58026 18.6145C2.85563 19.4712 3.131 20.3585 3.03921 21.2458C2.94742 22.1943 2.51906 23.1122 2.48846 23.9995C3.0698 24.4891 3.16159 25.101 3.22278 25.8353C3.9877 26.1413 4.9974 26.3555 6.37425 26.3555C13.5645 26.4778 27.8531 11.5772 34.921 12.5257C34.921 12.4951 29.0158 5.94744 23.1719 3.31612Z" fill="#E09945"/>
<path d="M9.98467 7.72205C9.34214 8.54817 9.6481 9.89442 10.566 10.384C10.9944 10.5981 11.4839 10.6593 11.9429 10.6593C14.1458 10.6593 16.257 9.80263 18.3682 9.09891C20.4487 8.36458 22.7129 7.78325 24.8853 8.30339C25.4666 8.45637 26.0479 8.67055 26.6293 8.76234C27.2412 8.85413 27.8838 8.82353 28.3733 8.45637C28.9546 8.02802 29.1688 7.2937 29.383 6.62057C29.5972 5.88625 29.7808 5.06014 29.3218 4.44821C29.0464 4.08104 28.5875 3.86687 28.3121 3.49971C27.9755 3.07135 27.9143 2.49002 27.7308 2.00047C27.3024 0.868389 26.0785 0.103468 24.8853 0.195258C24.6405 0.225855 24.3039 0.348243 24.3345 0.593017C24.3651 0.83779 24.7017 0.929581 24.9465 0.898984C25.1912 0.898984 25.4972 0.868389 25.6196 1.08257C25.742 1.29674 25.5278 1.60271 25.283 1.6333C25.0383 1.6945 24.7935 1.57211 24.5487 1.48032C23.1413 0.929579 21.642 0.684809 20.1428 0.776599C19.898 0.776599 19.6226 0.807195 19.4085 0.929582C19.1943 1.05197 19.0413 1.32734 19.1025 1.57211C19.2249 2.03106 19.9592 2.15345 19.9592 2.6124C19.9592 2.82658 19.7756 3.04075 19.5614 3.10195C19.3473 3.16314 19.1025 3.13254 18.8883 3.10195C18.2152 2.97956 17.5727 2.88777 16.8995 2.76539C16.5936 2.49002 16.257 2.21464 15.8592 2.12285C15.4615 2.03106 14.9719 2.12285 14.7578 2.52061C14.5436 2.94897 14.7578 3.5609 14.3906 3.86687C14.1152 4.11164 13.6257 3.98925 13.3503 3.71388C13.0749 3.46911 12.8608 3.13255 12.5242 2.91837C12.0041 2.6124 11.2697 2.73479 10.872 3.16314C10.4436 3.59149 10.3518 4.29522 10.5354 4.84596C10.719 5.3661 11.1168 5.85565 10.9944 6.40639C10.872 6.98773 10.3212 7.2937 9.98467 7.72205Z" fill="#9FCC29"/>
<path d="M27.7002 3.31612C27.4554 2.85717 27.3636 2.36762 27.1495 1.87808C26.9353 1.41913 26.5375 0.960177 26.048 0.929581C26.3845 1.17435 26.3233 1.7251 26.048 2.00047C25.9868 2.06166 25.9256 2.09225 25.8644 2.12285C25.9562 2.30643 26.0786 2.52061 26.1398 2.73479C26.2927 3.22433 26.4151 3.68328 26.5069 4.17283C26.6599 4.90715 26.9353 5.73326 26.5069 6.40639C26.1398 7.01833 25.1607 6.68176 25.2831 6.10042C25.2831 6.06983 25.2525 6.03923 25.2525 6.00863C25.1607 5.12133 25.0077 4.20343 24.6405 3.37732C24.3957 2.82658 23.998 2.33703 23.7226 1.78629C22.9577 1.44972 22.101 1.26614 21.2749 1.23555C21.0607 1.23555 20.7853 1.26614 20.7241 1.48032C20.6324 1.69449 20.8159 1.90868 21.0301 2.00047C21.2137 2.09226 21.4585 2.15345 21.5808 2.33703C21.8256 2.64299 21.6115 3.13254 21.2443 3.28553C20.9077 3.43851 20.4794 3.37731 20.1122 3.31612C19.898 3.25493 19.6533 3.22433 19.4085 3.19374C19.3473 3.19374 19.2555 3.19374 19.1943 3.19374C19.1331 3.19374 19.0413 3.19374 18.9801 3.22433C18.613 3.31612 18.3376 3.5915 18.0622 3.83627C17.7563 4.05045 17.3891 4.26462 17.0219 4.17283C16.4712 4.01985 16.1346 3.25493 15.5839 3.40791C14.972 3.5609 15.0943 4.53999 14.5742 4.87656C14.2682 5.06014 13.8705 4.96835 13.5951 4.75417C13.2891 4.57059 13.075 4.29522 12.769 4.11164C12.463 3.92806 12.0347 3.86686 11.7899 4.11164C11.4839 4.38701 11.5451 4.90715 11.7287 5.27431C11.9123 5.64147 12.1571 6.03923 12.0959 6.46758C11.9735 7.2631 10.872 7.53847 10.5048 8.2422C10.1989 8.82353 10.4742 9.55785 10.9332 10.0474C11.178 10.3228 11.4839 10.537 11.8205 10.7205C11.8817 10.7205 11.9735 10.7205 12.0347 10.7205C14.2376 10.7205 16.3488 9.86382 18.46 9.1601C20.5406 8.42578 22.8047 7.84444 24.9771 8.36458C25.5584 8.51756 26.1398 8.73174 26.7211 8.82353C27.333 8.91532 27.9756 8.88472 28.4651 8.51756C29.0464 8.08921 29.2606 7.35489 29.4748 6.68176C29.5666 6.3146 29.689 5.91684 29.689 5.54968C29.077 4.72357 28.1591 4.17283 27.7002 3.31612Z" fill="#73A624"/>
<path d="M7.32275 11.516C7.32275 11.516 8.7608 7.17131 8.97498 6.49818C8.97498 6.49818 11.4227 8.73174 14.1764 8.70115L16.4406 12.1586C16.4406 12.128 10.3824 13.9026 7.32275 11.516Z" fill="#FFCF08"/>
<path opacity="0.35" d="M13.9622 8.88473C13.8705 8.88473 13.7787 8.88473 13.6869 8.88473C13.0749 9.98621 11.8511 10.8123 10.6272 10.8429C9.61752 10.8735 8.8832 10.2922 8.36305 9.52726C8.02649 10.5369 7.72052 11.4549 7.72052 11.4549C10.5048 13.6272 15.9816 12.0362 15.9816 12.0362L13.9622 8.88473Z" fill="#E6B970"/>
<path d="M9.15856 7.07952C8.94438 7.78324 7.53693 12.0974 7.53693 12.0974C7.7511 12.281 7.7511 12.1892 7.99588 12.3116C8.11826 10.9347 9.52571 8.05861 9.52571 8.05861C12.7078 9.43546 14.4518 9.71084 14.0234 9.0683C12.7078 8.88472 10.566 8.11981 9.15856 7.07952Z" fill="#EFA708"/>
<path d="M10.5048 12.5563C10.5048 12.5869 10.5048 12.6175 10.4742 12.6787C13.3503 13.0459 16.4406 12.128 16.4406 12.128L15.3391 11.3019C13.9929 11.4549 10.4742 11.5772 10.5048 12.5563Z" fill="#EFA708"/>
<path d="M13.2585 15.9832C13.4115 15.2488 13.4115 14.4839 13.4115 13.719C13.4115 13.3824 13.4115 13.0459 13.4115 12.7093C13.4727 12.4339 13.1973 12.1892 12.8914 12.1892C12.616 12.1586 12.3406 12.281 12.0653 12.3116C11.4533 12.3422 10.9332 11.9138 10.413 11.5772C9.49512 10.9653 8.42425 10.537 7.32276 10.384C6.83322 10.3228 6.28247 10.2922 5.82352 10.5064C5.36457 10.7205 4.99741 11.2101 5.0586 11.6996C5.18099 12.5257 6.31307 12.8623 6.49665 13.6578C6.52725 13.7802 6.49665 13.9638 6.37426 14.025C6.22128 14.0862 6.09889 13.9332 6.0071 13.8414C5.57875 13.3213 4.99741 12.9235 4.35488 12.7399C3.71235 12.5563 2.97803 12.6481 2.42729 13.0459C1.87655 13.4436 1.57057 14.178 1.72356 14.8205C1.87654 15.463 2.54967 15.9832 3.2228 15.8914C3.58996 15.8302 3.98772 15.6466 4.26309 15.922C4.47727 16.1362 4.35488 16.5645 4.04891 16.7175C3.77354 16.8705 3.40638 16.7787 3.13101 16.6563C2.82504 16.5339 2.54967 16.3503 2.24371 16.2891C1.60118 16.1361 0.897451 16.4727 0.560887 17.0235C0.224323 17.5742 0.254921 18.3085 0.591485 18.8899C0.928049 19.4406 1.53998 19.8078 2.18251 19.8996C2.82504 19.9913 3.43698 19.8384 4.07951 19.7772C5.79293 19.6242 7.53694 20.2055 9.21976 19.8996C11.1473 19.5018 12.8302 17.9108 13.2585 15.9832Z" fill="#9FCC29"/>
<path d="M5.02803 16.1973C5.11982 16.6563 4.63027 17.0846 4.17132 17.1458C3.71236 17.207 3.22282 17.0541 2.76386 16.9929C2.30491 16.9317 1.75418 16.9929 1.44821 17.36C1.11165 17.819 1.32582 18.5227 1.78477 18.8593C2.24373 19.1958 2.85566 19.2264 3.437 19.1652C4.47728 19.0428 5.45638 18.6145 6.52727 18.5839C7.23099 18.5533 7.93471 18.6757 8.63844 18.7063C9.34216 18.7369 10.1071 18.5839 10.6272 18.1249C11.025 17.7578 11.2392 17.2682 11.4227 16.7787C11.9735 15.4018 12.4018 14.025 12.769 12.5869C11.8205 12.8929 10.7496 13.1989 9.83171 12.8011C9.46455 12.6481 9.12799 12.3728 8.82202 12.0974C8.51605 11.822 8.21008 11.5466 7.84292 11.3937C7.47576 11.2101 7.04741 11.1489 6.64965 11.3019C6.28249 11.4549 5.97653 11.8526 6.06832 12.281C6.12951 12.6481 6.46607 12.8929 6.80264 13.0459C7.1392 13.1989 7.50636 13.2907 7.81232 13.5048C8.11829 13.719 8.36307 14.0862 8.24068 14.4227C8.14889 14.6981 7.87352 14.8817 7.59815 14.9429C7.1392 15.0347 6.61906 14.8511 6.2213 14.6063C5.79295 14.3615 5.42578 14.025 4.99743 13.8108C4.56908 13.5966 4.04893 13.4436 3.58998 13.6272C3.13103 13.8108 2.82506 14.3309 3.00864 14.7899C3.19222 15.1876 3.68177 15.3406 4.07953 15.463C4.47729 15.5548 4.96684 15.769 5.02803 16.1973Z" fill="#73A624"/>
<path d="M6.71086 19.3794C6.64967 19.6548 6.80265 19.9607 7.01683 20.1443C7.23101 20.3279 7.53697 20.4197 7.81234 20.4809C8.60785 20.6339 9.46457 20.6033 10.2295 20.3585C11.178 20.0525 12.0347 19.41 12.5242 18.5533C13.0138 17.6966 13.1362 16.5951 12.7384 15.6772C12.3407 14.7593 11.4533 14.0556 10.4437 13.9944C10.0765 13.9638 9.61755 14.0862 9.55635 14.4533C9.46456 14.8205 9.83173 15.1265 9.92352 15.463C9.98471 15.7078 9.92351 16.0138 9.70934 16.1973C9.52576 16.3809 9.21979 16.4421 8.97502 16.3809C8.54666 16.2585 8.24069 15.7384 7.81234 15.769C7.47577 15.7996 7.231 16.1361 7.2004 16.4727C7.16981 16.8093 7.29219 17.1458 7.35339 17.4824C7.44518 17.819 7.47578 18.1861 7.3228 18.4921C7.16981 18.7675 6.77206 19.0122 6.71086 19.3794Z" fill="#9FCC29"/>
<path d="M12.4936 15.5242C12.2182 15.4324 11.9735 15.2488 11.7593 15.0653C11.5451 14.8817 11.2697 14.6981 10.9944 14.6675C10.6884 14.6369 10.3518 14.8205 10.3518 15.1265C10.3518 15.3406 10.5048 15.5548 10.5966 15.7384C10.719 16.0138 10.6578 16.3503 10.4742 16.5951C10.2906 16.8399 9.95408 16.9623 9.67871 16.9317C9.46454 16.9011 9.25036 16.7787 9.06678 16.7175C8.8526 16.6563 8.60783 16.6257 8.42425 16.7481C8.21007 16.9011 8.17947 17.2376 8.27126 17.4824C8.39365 18.0026 8.73022 18.4309 9.15857 18.7369C9.58693 19.0428 10.1071 19.1958 10.6272 19.2264C11.2697 19.2876 11.9429 19.1652 12.4936 18.8287C13.0444 18.4921 13.4421 17.8802 13.4727 17.2376C13.5033 16.5951 13.1055 15.922 12.4936 15.6772C12.463 15.616 12.4936 15.5548 12.4936 15.5242Z" fill="#73A624"/>
<path d="M24.5181 6.03923L25.0995 7.78325L32.2897 8.48697L32.3203 7.14071C32.3203 7.14071 30.5457 3.77508 28.1897 3.25493C25.8338 2.73479 24.5181 4.05045 24.5181 6.03923Z" fill="#D12424"/>
<path d="M24.5181 6.03923L32.3203 7.14071C32.3203 7.14071 30.5457 3.77508 28.1897 3.25493C25.8338 2.73479 24.5181 4.05045 24.5181 6.03923Z" fill="#EA3333"/>
<path d="M26.5069 5.45789C26.7516 5.61088 27.486 6.3452 27.5472 6.37579C27.6083 6.40639 26.9964 5.21312 26.9964 5.21312C26.9964 5.21312 27.5778 4.72357 28.924 5.54968C28.924 5.54968 28.5874 6.06983 28.9546 6.43699C29.3218 6.80415 29.4442 5.82505 29.4442 5.70267C29.4442 5.58028 30.3927 6.06983 30.821 6.95713L32.3508 7.17131C32.3508 7.17131 30.5762 3.80567 28.2203 3.28553C25.8337 2.76538 24.5181 4.05044 24.5487 6.06983L26.0785 6.28401C26.1703 5.91685 26.3539 5.33551 26.5069 5.45789Z" fill="#C91D1D"/>
<path d="M27.5472 4.41761C28.8016 4.53999 30.2397 5.02954 31.3412 7.01833L32.3508 7.17131C32.3508 7.17131 30.5762 3.80567 28.2203 3.28553C25.8337 2.76538 24.5181 4.05044 24.5487 6.06983L25.283 6.16162C25.4054 4.4788 26.4457 4.29522 27.5472 4.41761Z" fill="#FF3333"/>
<path d="M26.8129 6.13102C26.8129 6.22281 26.7517 6.25341 26.6599 6.19222C26.5681 6.13102 26.5069 6.00863 26.5069 5.91684C26.5069 5.82505 26.5681 5.79446 26.6599 5.85565C26.7211 5.91684 26.8129 6.03923 26.8129 6.13102Z" fill="#FF7E70"/>
<path d="M27.7919 5.76386C27.7919 5.88625 27.7308 5.91684 27.639 5.85565C27.5472 5.79446 27.4554 5.67207 27.4554 5.54968C27.4554 5.4273 27.5166 5.3967 27.6084 5.45789C27.7002 5.51909 27.7919 5.67207 27.7919 5.76386Z" fill="#FF7E70"/>
<path d="M28.4345 6.16162C28.4345 6.28401 28.3733 6.3452 28.2509 6.28401C28.1591 6.22282 28.0673 6.06983 28.0673 5.94744C28.0673 5.82506 28.1285 5.76387 28.2509 5.82506C28.3427 5.88625 28.4039 6.03923 28.4345 6.16162Z" fill="#FF7E70"/>
<path d="M29.9949 6.40639C29.9949 6.49818 29.9337 6.52878 29.8419 6.49818C29.7502 6.43699 29.689 6.3452 29.689 6.25341C29.689 6.16162 29.7502 6.13102 29.8419 6.16162C29.9031 6.19221 29.9949 6.3146 29.9949 6.40639Z" fill="#FF7E70"/>
<path d="M13.2585 4.4482L11.9734 5.3355L16.41 15.4018L17.7256 15.3712C17.7256 15.3712 19.745 12.7399 18.5823 9.43546C17.4197 6.10042 15.2167 4.32581 13.2585 4.4482Z" fill="#D12424"/>
<path d="M13.2585 4.4482L17.7256 15.3712C17.7256 15.3712 19.745 12.7399 18.5823 9.43546C17.4196 6.10042 15.2167 4.32581 13.2585 4.4482Z" fill="#EA3333"/>
<path d="M15.2473 7.20191C15.2779 7.53847 15.0637 8.60935 15.0943 8.70115C15.1249 8.79294 15.8286 7.84444 15.8286 7.84444C15.8286 7.84444 16.7159 8.63995 16.8689 10.5675C16.8689 10.5675 16.104 10.1086 16.0122 10.6287C15.9204 11.1795 16.9607 11.3019 17.0831 11.2713C17.2055 11.2713 17.3891 12.6175 16.8383 13.2295L17.695 15.3406C17.695 15.3406 19.7144 12.7093 18.5517 9.40487C17.3891 6.06983 15.1861 4.29522 13.2279 4.4176L14.1152 6.55937C14.5436 6.71236 15.2473 6.95713 15.2473 7.20191Z" fill="#C91D1D"/>
<path d="M16.9913 8.54816C17.7562 10.2922 18.3069 12.3422 17.1443 13.9638L17.7256 15.3712C17.7256 15.3712 19.745 12.7399 18.5823 9.43546C17.4196 6.10042 15.2167 4.32581 13.2585 4.4482L13.6868 5.45789C15.4003 5.61087 16.3182 7.04892 16.9913 8.54816Z" fill="#FF3333"/>
<path d="M14.8098 7.63055C14.8939 7.62308 14.9537 7.5215 14.9432 7.40368C14.9328 7.28585 14.8561 7.1964 14.7719 7.20387C14.6877 7.21134 14.628 7.31292 14.6384 7.43074C14.6489 7.54857 14.7256 7.63802 14.8098 7.63055Z" fill="#FF7E70"/>
<path d="M15.8515 8.97665C15.9525 8.96768 16.0247 8.85126 16.0127 8.7166C16.0008 8.58194 15.9092 8.48005 15.8082 8.48901C15.7072 8.49798 15.6351 8.61441 15.647 8.74907C15.659 8.88373 15.7505 8.98562 15.8515 8.97665Z" fill="#FF7E70"/>
<path d="M15.9125 9.86349C16.0303 9.85303 16.1162 9.73539 16.1042 9.60073C16.0923 9.46607 15.9871 9.36539 15.8692 9.37584C15.7514 9.3863 15.6656 9.50395 15.6775 9.6386C15.6895 9.77326 15.7947 9.87394 15.9125 9.86349Z" fill="#FF7E70"/>
<path d="M16.7964 12.067C16.8806 12.0596 16.9403 11.958 16.9298 11.8402C16.9194 11.7223 16.8427 11.6329 16.7585 11.6403C16.6744 11.6478 16.6146 11.7494 16.6251 11.8672C16.6355 11.985 16.7122 12.0745 16.7964 12.067Z" fill="#FF7E70"/>
<path d="M13.0138 4.23402L11.7287 5.12133L16.1652 15.1876L17.4809 15.1571C17.4809 15.1571 19.5003 12.5257 18.3376 9.22129C17.1443 5.88625 14.9413 4.11163 13.0138 4.23402Z" fill="#D12424"/>
<path d="M13.0137 4.23402L17.4809 15.1571C17.4809 15.1571 19.5002 12.5257 18.3376 9.22129C17.1443 5.88625 14.9413 4.11163 13.0137 4.23402Z" fill="#EA3333"/>
<path d="M15.0025 6.95713C15.0331 7.2937 14.819 8.36458 14.8495 8.45637C14.8801 8.54816 15.5839 7.59966 15.5839 7.59966C15.5839 7.59966 16.4712 8.39518 16.6242 10.3228C16.6242 10.3228 15.8592 9.86382 15.7674 10.384C15.6757 10.9347 16.7159 11.0571 16.8383 11.0265C16.9607 11.0265 17.1443 12.3728 16.5936 12.9847L17.4503 15.0959C17.4503 15.0959 19.4697 12.4645 18.307 9.1601C17.1443 5.82505 14.9413 4.05044 12.9832 4.17283L13.8705 6.3146C14.2988 6.49818 14.9719 6.74296 15.0025 6.95713Z" fill="#C91D1D"/>
<path d="M16.7159 8.33399C17.4809 10.078 18.0316 12.128 16.8689 13.7496L17.4503 15.1571C17.4503 15.1571 19.4697 12.5257 18.307 9.22129C17.1443 5.88625 14.9413 4.11163 12.9832 4.23402L13.4115 5.24371C15.1555 5.3967 16.0734 6.83475 16.7159 8.33399Z" fill="#FF3333"/>
<path d="M14.5351 7.41764C14.6192 7.41017 14.679 7.3086 14.6685 7.19077C14.658 7.07294 14.5813 6.98348 14.4972 6.99096C14.413 6.99843 14.3533 7.10001 14.3637 7.21783C14.3742 7.33566 14.4509 7.42511 14.5351 7.41764Z" fill="#FF7E70"/>
<path d="M15.5767 8.76369C15.6777 8.75473 15.7499 8.63829 15.738 8.50364C15.726 8.36898 15.6344 8.26709 15.5335 8.27606C15.4325 8.28502 15.3603 8.40145 15.3722 8.53611C15.3842 8.67076 15.4757 8.77266 15.5767 8.76369Z" fill="#FF7E70"/>
<path d="M15.6377 9.65055C15.7555 9.6401 15.8414 9.52246 15.8294 9.3878C15.8175 9.25314 15.7123 9.15246 15.5944 9.16291C15.4766 9.17337 15.3908 9.29101 15.4027 9.42567C15.4147 9.56033 15.5199 9.66101 15.6377 9.65055Z" fill="#FF7E70"/>
<path d="M16.5217 11.8541C16.6058 11.8467 16.6656 11.7451 16.6551 11.6273C16.6447 11.5094 16.568 11.42 16.4838 11.4274C16.3996 11.4349 16.3399 11.5365 16.3504 11.6543C16.3608 11.7721 16.4375 11.8616 16.5217 11.8541Z" fill="#FF7E70"/>
<path d="M23.6308 6.43699C23.845 6.3452 24.0898 6.22281 24.2428 6.00864C24.4264 5.73326 24.3958 5.33551 24.304 4.99894C24.1816 4.60119 23.9674 4.20343 23.692 3.89746C23.4779 3.65269 23.2025 3.40792 22.8965 3.28553C22.5905 3.16314 22.2234 3.16314 21.9174 3.31612C21.6114 3.46911 21.4279 3.83627 21.4891 4.14224C21.1831 3.49971 20.51 3.01016 19.8062 2.94896C19.3779 2.91837 18.9189 3.01016 18.5824 3.28553C18.2458 3.5609 18.0316 3.98925 18.0928 4.41761C18.154 4.84596 18.4906 5.24372 18.9189 5.30491C18.4294 5.02954 17.7563 5.09073 17.3279 5.45789C16.8996 5.82505 16.716 6.46759 16.869 6.98773C17.0219 7.50787 17.4809 7.90563 18.001 8.05862C18.5212 8.2422 19.0719 8.2116 19.5921 8.05862C20.1122 7.93623 20.6018 7.69146 21.0913 7.47728C21.948 7.20191 22.8047 6.80415 23.6308 6.43699Z" fill="#FFCF08"/>
<path d="M23.4166 6.40639C23.7532 6.06983 23.845 5.51908 23.6614 5.09073C23.4778 4.66238 23.0495 4.32581 22.5599 4.29522C22.101 4.26462 21.6114 4.53999 21.3972 4.93775C21.1831 4.26462 20.4793 3.77507 19.7756 3.77507C19.4696 3.77507 19.1331 3.86686 18.9801 4.11164C18.7965 4.38701 18.8883 4.78477 19.1025 5.06014C19.3167 5.30491 19.6226 5.48849 19.9286 5.64147C19.3473 5.51909 18.7047 5.64147 18.2152 5.94744C17.9704 6.10042 17.7562 6.3146 17.7562 6.58997C17.7562 6.83475 17.9092 7.01832 18.0928 7.17131C18.2764 7.2937 18.5211 7.35489 18.7353 7.38548C19.5614 7.53847 20.4181 7.59966 21.2748 7.50787C21.7338 7.47728 22.2233 7.38549 22.6517 7.17131C23.0801 6.95713 23.4472 6.62057 23.6002 6.16162L23.4166 6.40639Z" fill="#EFA708"/>
<path d="M32.9934 8.2728C33.1158 8.51757 33.33 8.67055 33.5747 8.82353C33.8195 8.94592 34.0643 9.06831 34.2785 9.22129C34.4926 9.40487 34.6456 9.64965 34.6456 9.92502C34.615 10.1698 34.4315 10.384 34.2479 10.5676C33.5441 11.1183 32.5039 11.1183 31.8001 10.6287C31.5248 10.4452 31.3106 10.2004 31.0964 9.95562C30.8822 9.71084 30.6681 9.46607 30.4845 9.22129C30.2703 8.91533 30.0561 8.60936 29.8419 8.33399C29.3218 7.63026 28.7711 6.89594 27.9449 6.58998C28.1897 6.13103 28.6793 5.88625 29.1688 5.82506C29.6584 5.76387 30.1785 5.88625 30.6375 6.03924C30.8822 6.13103 31.1882 6.22281 31.433 6.06983C31.6166 5.94744 31.6777 5.67208 31.8307 5.51909C32.0143 5.30492 32.3509 5.24372 32.5956 5.33551C32.8404 5.4273 33.0852 5.67207 33.177 5.91685C33.2688 6.19222 33.2688 6.46759 33.2076 6.74296C33.1464 7.01833 33.0546 7.2631 32.9628 7.53847C32.9016 7.72205 32.871 8.02802 32.9934 8.2728Z" fill="#9FCC29"/>
<path d="M28.3734 7.32429C29.5054 7.35489 30.6375 7.04892 31.6166 6.43699C31.8002 6.3146 31.9532 6.19221 32.1673 6.16162C32.3815 6.13102 32.5957 6.16162 32.6875 6.3452C32.7793 6.52878 32.7181 6.74295 32.5957 6.92653C32.4733 7.07952 32.2897 7.2019 32.1673 7.38548C32.0144 7.59966 31.9226 7.90563 31.9838 8.181C32.045 8.45637 32.1979 8.70114 32.4121 8.85413C32.5651 8.94592 32.7181 9.00711 32.9017 9.0683C33.0852 9.1295 33.2382 9.22129 33.33 9.37427C33.4524 9.52726 33.483 9.71084 33.3912 9.86382C33.33 9.95561 33.2382 10.0168 33.1464 10.078C32.5957 10.384 31.892 10.4758 31.28 10.3228C30.6681 10.1698 30.0868 9.77203 29.7502 9.25189C29.536 8.91532 29.383 8.54816 29.1995 8.2116C28.9547 7.84443 28.7099 7.50787 28.3734 7.32429Z" fill="#73A624"/>
<path d="M3.03923 25.4681C4.07952 26.0801 5.33398 26.2943 6.52726 26.0189C7.68993 25.7741 8.76081 25.0092 9.37275 23.9689C9.7705 23.2958 9.95408 22.5003 10.1377 21.7354C10.413 20.5421 10.719 19.3488 10.9944 18.1555C10.1377 18.1861 9.25036 17.9719 8.48544 17.513C8.02649 17.207 7.56754 16.9011 7.04739 16.7787C6.52725 16.6563 5.88472 16.8093 5.60935 17.2682C5.42577 17.5436 5.39517 17.9108 5.21159 18.1861C4.96682 18.5533 4.50787 18.7369 4.07952 18.8287C3.65116 18.9205 3.19221 18.9816 2.82505 19.1958C2.45789 19.41 2.15192 19.8995 2.3049 20.2973C2.42729 20.6339 2.82505 20.848 2.88625 21.1846C2.94744 21.4906 2.79445 21.7965 2.54968 22.0413C2.3355 22.2555 2.06013 22.4391 1.87655 22.7144C1.53999 23.1734 1.57058 23.8159 1.84595 24.3055C2.09072 24.8256 2.54968 25.1928 3.03923 25.4681Z" fill="#B55728"/>
<path opacity="0.32" d="M9.18916 19.257C8.08768 19.8384 7.84292 20.6339 7.32277 21.6436C6.95561 22.3473 6.22128 22.5309 5.51756 22.5615C4.78324 22.6227 4.01833 22.1331 3.65117 21.4906C3.16162 20.5727 3.16161 19.6242 2.3355 19.716C2.24371 19.8995 2.21311 20.1137 2.3049 20.3279C2.42729 20.6645 2.82505 20.8786 2.88625 21.2152C2.94744 21.5212 2.79445 21.8271 2.54968 22.0719C2.3355 22.2861 2.06013 22.4697 1.87655 22.745C1.53999 23.204 1.57058 23.8465 1.84595 24.3361C2.09072 24.8256 2.54968 25.2234 3.03923 25.4987C4.07952 26.1107 5.33398 26.3249 6.52726 26.0495C7.68993 25.8047 8.76081 25.0398 9.37275 23.9995C9.7705 23.3264 9.95408 22.5309 10.1377 21.766C10.3824 20.7869 10.5966 19.8078 10.8414 18.8287C10.2601 18.8899 9.67871 19.0122 9.18916 19.257Z" fill="#B55728"/>
<path d="M8.36308 18.6451C8.2101 18.4615 7.99592 18.2779 7.78175 18.1861C7.53697 18.0943 7.29219 18.0637 7.04742 18.1249C6.80264 18.2167 6.58847 18.4003 6.52728 18.6451C6.43549 18.8899 6.49668 19.1958 6.68026 19.3794C6.86384 19.563 7.13921 19.6548 7.38398 19.6242C7.65935 19.5936 7.90413 19.5018 8.1183 19.3488C8.33248 19.1958 8.54666 18.9816 8.51607 18.7369C8.45487 18.5533 8.54666 18.6451 8.36308 18.6451Z" fill="#8D3800"/>
<path d="M7.01678 20.9092C6.80261 20.6645 6.40484 20.5727 6.12947 20.6951C5.8235 20.8174 5.60933 21.154 5.63993 21.4906C5.63993 21.8271 5.8541 22.1331 6.16007 22.2861C6.46604 22.4391 6.8332 22.4085 7.10857 22.2249C7.29215 22.1025 7.44514 21.9189 7.47573 21.7047C7.50633 21.46 7.41454 21.2458 7.26155 21.0622C7.10857 20.8786 7.16977 21.0928 7.01678 20.9092Z" fill="#8D3800"/>
<path d="M4.72202 22.6533C4.47724 22.5309 4.23247 22.4085 3.9571 22.3473C3.68173 22.2861 3.40636 22.3167 3.16158 22.4391C2.91681 22.5615 2.76382 22.8368 2.82502 23.1122C2.85561 23.3264 3.03919 23.51 3.22277 23.6323C3.49814 23.8159 3.80411 23.9383 4.14067 23.9383C4.47724 23.9077 4.78321 23.7547 4.93619 23.4488C5.08917 23.1428 4.99739 22.745 4.72202 22.5921C4.63023 22.5309 4.8444 22.6227 4.72202 22.6533Z" fill="#8D3800"/>
<path opacity="0.55" d="M34.8904 12.4645C34.8598 12.4339 34.8292 12.4033 34.8292 12.3728C34.7986 12.3422 34.7986 12.3422 34.768 12.3116C34.768 12.281 34.7374 12.281 34.7068 12.2504C34.6456 12.1892 34.5844 12.128 34.5232 12.0668C34.5232 12.0362 34.4926 12.0362 34.4926 12.0362C34.462 11.975 34.4009 11.9444 34.3397 11.8832L34.3091 11.8526C34.0643 11.6078 33.7583 11.2713 33.3912 10.9041C33.5135 10.8735 33.6665 10.8429 33.7889 10.7817C33.2382 10.6287 32.7486 10.2616 32.2591 9.40487C31.6777 8.36458 31.2494 6.86534 29.8725 6.65117C29.2606 6.55938 28.6793 6.3146 28.2815 5.85565C27.2106 4.69297 25.6196 4.75417 23.9674 4.99894C23.0189 5.12133 22.1622 5.58028 21.489 6.28401C21.0607 6.74296 20.5405 7.14071 20.1428 7.50788C19.4697 8.181 18.613 9.00711 17.5727 8.94592C16.8383 8.88473 16.0734 8.48697 16.104 7.66086C16.104 7.59967 16.104 7.56907 16.1346 7.50788C14.8801 8.60936 13.7481 9.92501 12.8608 10.7511C12.7996 10.8123 12.769 10.8429 12.7078 10.8735C12.7078 10.9347 12.6772 10.9959 12.6772 11.0877C12.5548 11.7914 12.4324 12.5257 11.9735 13.1071C11.6369 13.566 11.1779 13.9332 10.6578 14.2392C10.8108 15.4324 10.8108 16.7787 9.80109 17.207C9.55631 17.3294 9.28094 17.36 9.03617 17.3906C8.85259 18.8593 9.03617 19.8078 8.05708 21.3376C6.925 23.1122 7.50633 24.1525 5.54814 25.254C4.9974 25.5599 4.35487 25.7741 3.71234 25.9271C3.74294 25.9271 3.77353 25.9577 3.83473 25.9577C3.86532 25.9577 3.89593 25.9577 3.92652 25.9883C4.1407 26.0495 4.35487 26.0801 4.59964 26.1413C4.84442 26.1719 5.08919 26.2025 5.36456 26.2331C5.42576 26.2331 5.48695 26.2331 5.54814 26.2637C5.82352 26.2943 6.09889 26.2943 6.40486 26.2943C13.5645 26.4778 27.8532 11.5466 34.8904 12.4645C34.921 12.4951 34.921 12.4951 34.8904 12.4645Z" fill="#BD9749"/>
<path d="M10.872 16.5033C11.9735 12.9847 14.207 9.77203 17.3279 7.78324C20.4488 5.82505 24.4569 5.18252 27.945 6.46758C30.5763 7.44668 32.6875 9.37427 34.768 11.2713C36.2367 12.6175 36.5426 13.2601 38.0113 14.6063C38.2561 14.8511 40.0001 15.4018 40.0001 15.7384C39.9695 16.2891 38.9598 16.9317 38.409 17.0235C32.2285 17.8496 26.201 19.5324 20.4794 22.0107C17.6951 23.2346 14.972 24.6114 12.0653 25.4987C9.15858 26.3861 5.97651 26.7532 3.06982 25.8047C4.50787 26.3249 6.19069 25.8353 7.35337 24.8256C8.45485 23.8159 10.413 17.9414 10.872 16.5033Z" fill="#FAD15F"/>
<path d="M30.8823 9.71084C28.0062 7.66086 24.1204 5.64148 20.5406 7.04893C17.8481 8.11981 15.9205 9.98621 14.1459 12.2198C12.3407 14.4839 11.8817 17.513 10.7191 20.1443C9.98474 21.7659 9.15863 24.1831 7.65939 25.3152C6.95567 25.8353 6.25194 26.1413 5.54822 26.2943C7.72059 26.4778 9.95415 26.1413 12.0347 25.4987C14.9414 24.6114 17.6645 23.204 20.4488 22.0107C26.1704 19.5324 32.198 17.8496 38.3785 17.0235C38.9292 16.9623 39.9389 16.2891 39.9695 15.7384V15.7078C36.3897 15.0653 33.7584 11.7608 30.8823 9.71084Z" fill="#F9C22D"/>
<path d="M30.8823 9.71084C28.0062 7.66086 24.1204 5.64148 20.5406 7.04893C17.8481 8.11981 15.9205 9.98621 14.1459 12.2198C12.3407 14.4839 11.8817 17.513 10.7191 20.1443C9.98474 21.7659 9.15863 24.1831 7.65939 25.3152C6.95567 25.8353 6.25194 26.1413 5.54822 26.2943C7.72059 26.4778 9.95415 26.1413 12.0347 25.4987C14.9414 24.6114 17.6645 23.204 20.4488 22.0107C26.1704 19.5324 32.198 17.8496 38.3785 17.0235C38.9292 16.9623 39.9389 16.2891 39.9695 15.7384V15.7078C36.3897 15.0653 33.7584 11.7608 30.8823 9.71084Z" fill="#F9C22D"/>
<path opacity="0.55" d="M34.7681 13.1989C32.2286 12.8317 30.301 13.3213 28.0674 14.6981C25.6809 16.1667 23.3861 17.7272 20.5101 17.972C16.9914 18.2473 14.8803 15.769 13.7176 12.8929C12.2795 15.0653 11.8206 17.7884 10.7497 20.1749C10.0154 21.7965 9.18927 24.2137 7.69003 25.3458C6.9863 25.8659 6.28258 26.1719 5.57886 26.3249C7.75122 26.5084 9.98479 26.1719 12.0654 25.5293C14.9721 24.642 17.6952 23.2346 20.4795 22.0413C26.2011 19.563 32.2286 17.8802 38.4091 17.054C38.9599 16.9929 39.9696 16.3197 40.0002 15.769V15.7384C38.0726 15.3406 36.2062 14.5757 34.7681 13.1989Z" fill="#F2CC49"/>
<path opacity="0.55" d="M25.742 17.9719C22.0704 18.2779 19.6533 19.4406 16.6854 21.5212C15.2168 22.5615 13.6563 23.6629 12.0653 24.7338C12.1265 24.7032 12.2183 24.7032 12.2795 24.6726C15.1862 23.7853 17.9093 22.3779 20.6936 21.1846C23.9674 19.7466 27.3943 18.6145 30.8517 17.7272C29.0771 17.666 27.2719 17.8496 25.742 17.9719Z" fill="#D68902"/>
<path d="M25.2831 8.30339C24.5794 7.87503 23.5697 7.96683 22.9578 8.57876C22.8354 8.70115 22.713 8.85413 22.6824 9.00711C22.6212 9.1601 22.6518 9.37428 22.7436 9.49666C22.9272 9.74144 23.2943 9.74143 23.5697 9.68024C24.0287 9.58845 24.457 9.37427 24.7936 9.06831C24.9772 8.91532 25.1301 8.73174 25.1607 8.48697C25.2219 8.27279 25.4973 8.30339 25.2831 8.30339Z" fill="#E9A000"/>
<path d="M20.663 11.2407C20.2653 10.9347 19.6533 10.9959 19.2862 11.3325C19.1026 11.4855 19.0108 11.7608 19.1332 11.975C19.2556 12.1586 19.5003 12.1892 19.7451 12.1892C19.9899 12.1892 20.2347 12.1586 20.4182 12.0362C20.6324 11.9138 20.7854 11.669 20.7242 11.4549C20.6936 11.1795 20.8466 11.1183 20.663 11.2407Z" fill="#E9A000"/>
<path d="M26.1704 13.8414C25.7114 13.2295 24.8241 12.9847 24.0898 13.2601C23.3861 13.5354 22.8965 14.3309 22.9577 15.0959C22.9883 15.3406 23.0801 15.5854 23.2637 15.7078C23.4779 15.8302 23.7227 15.7996 23.9674 15.7384C24.5794 15.5854 25.1607 15.2794 25.6197 14.8205C25.8338 14.6369 26.3234 14.0556 26.1704 13.8414Z" fill="#E9A000"/>
<path d="M31.6778 10.7205C31.4024 10.8123 31.0965 11.0265 31.1577 11.3325C31.1883 11.6078 31.5554 11.7608 31.8308 11.7914C32.0144 11.7914 32.1674 11.7914 32.3509 11.7302C32.5039 11.669 32.6569 11.5466 32.6875 11.3631C32.7487 11.1183 32.5957 10.8735 32.3815 10.7511C32.1674 10.6287 31.892 10.6593 31.6778 10.7205Z" fill="#E9A000"/>
<path d="M34.7375 14.3309C34.5539 14.2086 34.3397 14.0556 34.1256 13.9944C33.9114 13.9332 33.636 13.9026 33.4524 14.025C33.2383 14.1168 33.0853 14.3615 33.1465 14.6063C33.1771 14.8205 33.3912 14.9735 33.6054 15.0347C33.8196 15.0959 34.0338 15.0653 34.248 15.0653C34.4009 15.0653 34.5539 15.0347 34.7069 14.9735C34.8599 14.9123 34.9517 14.7593 34.9823 14.6063C34.9823 14.4533 34.8905 14.3309 34.7681 14.2392C34.5845 14.1474 34.8599 14.4227 34.7375 14.3309Z" fill="#E9A000"/>
<path d="M30.3316 15.922C29.995 15.7078 29.5973 15.5242 29.1995 15.5242C28.8017 15.5242 28.3734 15.6772 28.1592 16.0138C27.945 16.3503 28.0368 16.8705 28.404 17.054C28.6182 17.1764 28.8629 17.1458 29.0771 17.1458C29.3525 17.1152 29.6584 17.054 29.9032 16.9011C30.148 16.7481 30.3316 16.4727 30.301 16.1667C30.301 15.922 30.6069 15.8302 30.3316 15.922Z" fill="#E9A000"/>
<path d="M21.0607 17.2682C20.7548 17.3294 20.3876 17.3906 20.1734 17.6354C19.9287 17.8496 19.8675 18.3085 20.1122 18.4921C20.2958 18.6451 20.5712 18.6145 20.7854 18.5227C20.9996 18.4309 21.1831 18.2473 21.2749 18.0331C21.3667 17.819 21.3361 17.5436 21.1831 17.36C21.0607 17.1764 21.3055 17.207 21.0607 17.2682Z" fill="#E9A000"/>
<path d="M14.6661 18.5839C13.9623 18.6451 13.3504 19.1958 13.1668 19.869C13.1056 20.0831 13.1056 20.3585 13.1668 20.5727C13.2586 20.7868 13.4422 20.9704 13.687 21.001C14.0235 21.0316 14.2989 20.7563 14.5131 20.4809C14.6966 20.2361 14.8802 20.0219 15.0638 19.7772C15.2474 19.5324 15.431 19.2264 15.3086 18.951C15.2168 18.7369 14.972 18.5839 14.7272 18.5839C14.5131 18.5839 14.9108 18.5839 14.6661 18.5839Z" fill="#E9A000"/>
<path opacity="0.32" d="M30.1174 10.0168C29.5972 9.06831 28.6487 8.39518 27.6085 8.02802C26.5682 7.69145 25.4667 7.63026 24.3958 7.72205C21.8257 7.93623 19.3473 8.91532 17.2974 10.5063C16.716 10.9653 16.1041 11.5466 16.0123 12.281C15.8899 13.1377 16.4712 13.9638 17.2362 14.3921C18.0011 14.8205 18.8884 14.8817 19.7451 14.8817C21.7951 14.8817 23.8451 14.5451 25.8644 14.0862C26.6599 13.9026 27.4861 13.6884 28.2204 13.3213C28.9547 12.9235 29.6278 12.3728 29.9338 11.6078C30.2704 10.8429 30.2398 9.89442 29.7196 9.25189L30.1174 10.0168Z" fill="#FAD15F"/>
</svg>
