<svg width="29" height="25" viewBox="0 0 29 25" fill="none" xmlns="http://www.w3.org/2000/svg">
<path d="M24.5189 3.55059C23.1202 2.03023 13.5115 2.3343 8.85914 5.80073C7.27797 6.98661 6.30493 8.71983 5.08864 10.0273C-1.14485 16.5345 1.07488 21.2476 6.21371 23.9843C9.1024 25.5351 15.1839 25.4742 20.3531 22.5551C25.4311 19.6664 27.4076 17.1122 27.8941 14.1627C28.8975 7.86842 24.5189 3.55059 24.5189 3.55059ZM21.1741 14.4972C20.4139 14.3148 19.2584 13.9499 18.1334 13.737C18.103 13.737 18.0725 13.737 18.0117 13.7674C17.282 13.7978 16.5218 13.8587 15.792 13.9803C15.4575 14.2235 15.0926 14.4972 14.8798 14.6188C14.2412 14.9533 13.7547 15.227 13.3898 15.8351C13.2682 16.048 13.0858 16.2304 12.9033 16.3825C12.6296 16.8386 12.3864 17.2643 12.2039 17.69C11.1397 20.0313 10.1362 16.5649 9.1024 15.7439C8.55507 14.8317 13.7851 9.08471 17.0387 9.66245C17.4644 9.66245 17.8901 9.72327 18.3158 9.87531C18.3766 9.87531 18.407 9.90571 18.4374 9.93612C19.6233 10.1186 20.8092 10.3922 21.9951 10.6659C24.4885 11.1524 23.6675 15.0445 21.1741 14.4972Z" fill="#EE9843"/>
<path opacity="0.65" d="M24.3061 3.39855C22.36 2.09104 13.329 2.48634 8.85917 5.83114C7.27799 7.01702 6.30496 8.75023 5.08867 10.0577C0.223504 15.1358 0.527571 19.1191 3.32504 21.9166C3.41626 21.9774 3.50749 22.0686 3.5683 22.1294C4.815 22.3423 6.24414 22.099 7.3084 22.2207C9.19365 22.4335 11.1093 24.41 12.9946 23.4065C14.7886 22.4639 16.0961 22.4639 18.0422 22.2815C19.8058 22.1294 20.3531 20.0313 22.1167 19.6056C22.8161 19.4232 24.2757 19.484 24.3669 18.4502C24.3973 17.9636 24.4277 17.4771 24.7014 17.0514C25.5224 15.6527 27.6509 15.7439 27.1339 13.8283C26.7082 12.2471 26.9515 10.5443 27.7725 9.60164C27.1644 6.19602 24.9446 4.12833 24.3061 3.39855ZM21.1741 14.4972C20.4139 14.3148 19.2585 13.9499 18.1334 13.737C18.103 13.737 18.0726 13.737 18.0118 13.7674C17.282 13.7978 16.5218 13.8587 15.792 13.9803C15.4575 14.2235 15.0927 14.4972 14.8798 14.6188C14.2413 14.9533 13.7547 15.227 13.3899 15.8351C13.2682 16.048 13.0858 16.2304 12.9033 16.3825C12.6297 16.8386 12.3864 17.2643 12.204 17.69C11.687 18.815 11.2005 18.6022 10.714 17.994C10.0146 17.5988 9.34568 15.8959 8.67672 15.3486C8.12939 14.4364 13.3594 8.68942 16.613 9.26716C17.0387 9.26716 17.4644 9.32797 17.8901 9.48001C17.9509 9.48001 17.9814 9.51042 18.0118 9.54082C19.1976 9.72327 20.3835 9.99693 21.5694 10.2706C22.0863 10.3922 22.4816 10.6355 22.7249 10.97C24.2757 11.943 23.3938 14.9837 21.1741 14.4972Z" fill="#D98B43"/>
<path d="M3.14261 18.0549C3.29465 18.2069 3.44668 18.3589 3.59872 18.511C3.75076 18.4502 3.93319 18.3893 4.08523 18.2981C5.45356 17.7508 6.63945 16.8994 8.00777 16.3521C8.40307 16.2 8.82876 16.0176 9.25447 15.8351C9.19365 15.7743 9.16324 15.7439 9.10243 15.7135C8.5551 14.8013 13.7852 9.05431 17.0387 9.63205C17.4644 9.63205 17.8901 9.69286 18.3158 9.8449C18.3767 9.8449 18.4071 9.8753 18.4375 9.90571C19.1064 9.99693 19.8058 10.149 20.4748 10.301C21.0525 9.57123 21.5998 8.84146 22.208 8.14209C23.029 7.19946 24.1844 5.73992 25.4311 4.76688C24.9142 4.03711 24.5189 3.61141 24.5189 3.61141C23.1202 2.09104 13.5115 2.39511 8.85917 5.86154C7.278 7.04743 6.30496 8.78064 5.08867 10.0882C2.44324 12.8552 1.43979 15.379 1.50061 17.5683C2.01753 17.3859 2.62569 17.5075 3.14261 18.0549Z" fill="#822A00"/>
<path d="M27.1643 14.254C27.0731 13.5546 26.2217 12.3383 26.3433 11.6693C26.465 10.97 27.3164 10.4226 27.6205 9.8449C28.1678 8.84146 27.6205 7.68598 27.286 6.71295C25.9176 2.76 22.8465 0.0233488 15.8224 0.449051C12.1736 0.661902 5.11906 2.45593 1.40938 9.29757C-0.810354 13.3721 -0.202212 16.2912 1.80467 19.1191C2.56485 20.1834 4.78458 22.0078 6.36576 21.8558C7.15635 21.7646 7.52124 21.3388 8.40305 21.5213C9.10242 21.6733 9.61934 21.9774 10.1971 22.3727C11.5958 23.3761 12.5688 23.1937 14.0588 22.3423C14.8798 21.8862 15.2143 21.5821 16.1569 21.795C16.8867 21.947 17.5252 21.9774 18.2246 21.7037C19.7146 21.0652 19.4409 18.815 21.539 19.1495C22.2992 19.2712 23.0594 19.4536 23.6067 18.7846C24.154 18.0853 23.5155 17.3859 23.8804 16.6865C24.6101 15.1966 27.5292 16.7169 27.1643 14.254ZM8.64631 10.8179C11.3221 5.19258 16.461 7.74679 16.9475 8.78064C18.8327 12.764 5.97047 16.4129 8.64631 10.8179Z" fill="#A73D22"/>
<path opacity="0.75" d="M7.09554 11.0612C7.39961 9.29756 7.91653 7.50353 9.01119 6.1048C10.1059 4.67566 11.8999 3.70263 13.6635 3.94589C16.0353 4.28037 17.7685 6.71294 20.1403 6.92579C21.1133 7.01702 22.1775 6.65213 22.7553 5.89195C23.333 5.10136 23.333 3.85466 22.6336 3.21611C22.3296 2.94244 21.9343 2.76 21.539 2.63837C18.255 1.45249 14.5149 1.45249 11.2309 2.63837C7.94693 3.82426 5.08866 6.19602 3.29463 9.23675C2.68648 10.301 2.16956 11.4869 2.38241 12.7032C2.59526 13.8891 3.75073 15.0141 4.93662 14.7405C5.66639 14.5884 6.24413 13.9803 6.5482 13.2809C6.85227 12.5511 6.9435 11.791 7.09554 11.0612Z" fill="#B1523A"/>
<path opacity="0.75" d="M16.0961 14.5884C13.9067 15.6223 11.3525 15.5311 8.95036 15.7439C8.37262 15.8047 7.76448 15.8655 7.21715 16.1392C6.70023 16.4129 6.24412 16.8994 6.1833 17.5075C6.09208 18.5414 7.21715 19.2712 8.22059 19.4536C10.2579 19.8489 12.3256 19.1799 14.2716 18.4806C16.1265 17.8116 18.0117 17.1122 19.6233 15.9568C21.2349 14.8013 22.5728 13.1593 22.9681 11.2132C23.0897 10.6355 23.0897 10.0273 22.8769 9.48001C22.6336 8.93268 22.0863 8.38534 21.539 8.53738C19.5321 9.11512 19.6537 12.916 16.0961 14.5884Z" fill="#B1523A"/>
<path d="M19.5017 2.94244C19.3193 2.91204 19.1368 3.00326 18.9544 3.06407C18.5591 3.24651 18.1942 3.42896 17.7989 3.6114C17.9205 3.82425 18.0118 4.0067 18.1334 4.21955C18.7111 3.82425 19.3801 3.581 20.0795 3.55059C19.9274 3.27692 19.7754 2.97285 19.5017 2.94244Z" fill="#CC3131"/>
<path d="M25.8873 7.99005C25.7048 7.95964 25.5224 8.05087 25.3399 8.11168C24.9446 8.29412 24.5797 8.47657 24.1844 8.65901C24.3061 8.87186 24.3973 9.05431 24.5189 9.26716C25.0967 8.87186 25.7656 8.6286 26.465 8.59819C26.313 8.35494 26.1609 8.05086 25.8873 7.99005Z" fill="#CC3131"/>
<path d="M25.4615 10.2098C25.0358 10.0577 24.5797 9.93612 24.154 9.78408C23.5763 10.4226 22.9681 11.0612 22.3296 11.6389C22.9073 11.7301 23.4243 11.9734 23.85 12.3687C24.2757 11.5781 24.823 10.8483 25.4615 10.2098Z" fill="#EAD4AF"/>
<path d="M4.54134 13.8891C4.11564 13.737 3.65953 13.6154 3.23383 13.4634C2.65609 14.1019 2.04795 14.7405 1.40939 15.3182C1.98713 15.4094 2.50406 15.6527 2.92976 16.048C3.38587 15.2878 3.90279 14.558 4.54134 13.8891Z" fill="#EAD4AF"/>
<path d="M17.7077 16.5649C17.5252 16.4433 17.3124 16.4433 17.0995 16.4433C16.7042 16.4433 16.309 16.4129 15.9137 16.4129C15.8224 16.8386 15.7008 17.2643 15.6096 17.6596C16.4002 17.4163 17.2516 17.3251 18.0726 17.4163C18.0422 17.1122 17.9814 16.7474 17.7077 16.5649Z" fill="#FFCC00"/>
<path d="M20.6876 8.84146C20.5051 8.71983 20.2923 8.71983 20.0794 8.71983C19.6841 8.71983 19.2888 8.68942 18.8936 8.68942C18.8023 9.11512 18.6807 9.54082 18.5895 9.93612C19.3801 9.69286 20.2315 9.60164 21.0525 9.69286C21.0525 9.38879 20.9612 9.0239 20.6876 8.84146Z" fill="#FFCC00"/>
<path d="M4.99744 10.5443C5.02784 10.9092 5.05826 11.2436 5.08866 11.6085C5.90966 11.4261 6.70025 11.2436 7.52125 11.0612C7.39962 10.7875 7.3388 10.4834 7.36921 10.2098C6.57862 10.4226 5.78803 10.5443 4.99744 10.5443Z" fill="#14B661"/>
<path d="M9.04162 5.49665C8.40307 5.77032 7.73411 6.04399 7.09556 6.34806C7.00434 6.68254 7.00433 7.04742 7.06515 7.3819C7.76452 6.9562 8.55511 6.62172 9.3457 6.40887C9.13284 6.1048 9.04162 5.80073 9.04162 5.49665Z" fill="#CC3131"/>
<path d="M12.3864 5.6791C12.7209 5.52706 13.025 5.40543 13.3594 5.2534C13.025 5.10136 12.8729 4.73648 12.7513 4.402C12.6297 4.06752 12.5385 3.67222 12.2648 3.45937C12.0215 3.52018 11.7783 3.581 11.535 3.6114C11.8087 4.31077 12.1127 4.97973 12.3864 5.6791Z" fill="#FFCC00"/>
<path d="M7.06512 14.1019C7.3996 13.9499 7.70367 13.8283 8.03815 13.6762C7.70367 13.5242 7.55163 13.1593 7.43001 12.8248C7.30838 12.4903 7.21716 12.095 6.9435 11.8822C6.70024 11.943 6.45697 12.0038 6.21371 12.0342C6.51779 12.7336 6.79146 13.4025 7.06512 14.1019Z" fill="#FFCC00"/>
<path d="M17.0995 5.58788C16.8867 5.46625 16.6738 5.37502 16.461 5.2534C16.0049 5.61828 15.5488 5.98317 15.0623 6.34806C15.3967 6.5001 15.7616 6.65213 16.0961 6.80417C16.4306 6.40887 16.7651 6.01358 17.0995 5.58788Z" fill="#EAD4AF"/>
<path d="M10.714 19.2103C10.5012 19.0887 10.2883 18.9975 10.0755 18.8759C9.61935 19.2407 9.16324 19.6056 8.67673 19.9705C9.01121 20.1226 9.37609 20.2746 9.71057 20.4266C10.0451 20.0313 10.3795 19.6056 10.714 19.2103Z" fill="#EAD4AF"/>
<path d="M20.9916 5.73991C20.9612 5.55747 20.8092 5.40543 20.6268 5.34462C20.4443 5.2838 20.2315 5.37503 20.1402 5.52706C20.1098 5.58788 20.0794 5.64869 20.0794 5.7095C19.9274 6.28724 19.897 6.92579 20.049 7.53394C20.3531 7.3819 20.6876 7.3515 21.0221 7.3819C20.9004 7.07783 20.87 6.71295 20.9308 6.37847C20.9308 6.19602 21.0221 5.95276 20.9916 5.73991Z" fill="#14B661"/>
<path d="M16.4002 18.2981C16.3697 18.1157 16.2177 17.9636 16.0353 17.9028C15.8528 17.842 15.64 17.9332 15.5488 18.0853C15.5183 18.1461 15.4879 18.2069 15.4879 18.2677C15.3359 18.8454 15.3055 19.484 15.4575 20.0921C15.7616 19.9401 16.0961 19.9097 16.4306 19.9401C16.3089 19.636 16.2785 19.2711 16.3393 18.9367C16.3393 18.7542 16.4306 18.511 16.4002 18.2981Z" fill="#14B661"/>
<path d="M8.91998 17.5683C9.25446 17.6292 9.55853 17.6596 9.89301 17.7204C9.98423 17.1122 10.1059 16.4737 10.1971 15.8655C9.95382 15.9568 9.71057 16.048 9.46731 16.1392C9.28487 16.6257 9.10243 17.1122 8.91998 17.5683Z" fill="#CC3131"/>
<path d="M3.84198 16.7473C3.90279 16.7778 3.96361 16.7778 4.02442 16.7778C4.41972 16.7473 4.81501 16.7169 5.24071 16.6865C5.1799 15.9568 5.24071 15.1966 5.45356 14.4972C5.11908 14.6797 4.72379 14.8013 4.3285 14.8013C4.14605 15.3486 3.99401 15.9264 3.81157 16.4737C3.78116 16.5953 3.78116 16.6865 3.84198 16.7473Z" fill="#FFCC00"/>
<path d="M22.9073 15.0749C22.9681 15.1054 23.029 15.1054 23.0898 15.1054C23.4851 15.0749 23.8804 15.0445 24.3061 15.0141C24.2452 14.2844 24.3061 13.5242 24.5189 12.8248C24.1844 13.0073 23.7891 13.1289 23.3938 13.1289C23.2114 13.6762 23.0594 14.254 22.8769 14.8013C22.8769 14.9229 22.8465 15.0141 22.9073 15.0749Z" fill="#FFCC00"/>
<path d="M21.539 16.2608C21.539 15.6223 21.6606 14.9837 21.9343 14.3756C21.5998 14.3756 21.2957 14.3756 20.9613 14.3756C20.7484 14.9533 20.5356 15.5311 20.2923 16.1088C20.718 16.2 21.1437 16.2304 21.539 16.2608Z" fill="#14B661"/>
<path d="M12.0519 20.6699C12.4168 20.7003 12.7817 20.7003 13.1466 20.7307C13.2378 20.0617 13.3595 19.3928 13.5419 18.7542C13.4203 18.663 13.2682 18.6326 13.1466 18.6934C12.7817 19.3624 12.4168 20.0009 12.0519 20.6699Z" fill="#6BC3C3"/>
<path d="M2.19996 11.2132C2.04792 11.791 1.86548 12.3383 1.71344 12.916C2.04792 12.9464 2.352 12.9768 2.68648 12.9768C2.7777 12.3687 2.89933 11.7301 2.99055 11.122C2.71688 11.1524 2.44322 11.1828 2.19996 11.2132Z" fill="#CC3131"/>
<path d="M5.05825 7.86842C4.8454 7.86842 4.66296 7.99005 4.48052 8.11168C4.17644 8.32453 3.87237 8.50698 3.5683 8.71983C3.78115 8.99349 3.994 9.23675 4.20685 9.51041C4.63255 8.96308 5.21029 8.53738 5.87925 8.29412C5.63599 8.05087 5.36233 7.83802 5.05825 7.86842Z" fill="#6BC3C3"/>
<path d="M7.79489 16.048C7.58204 16.048 7.39959 16.1696 7.21715 16.2912C6.91308 16.5041 6.609 16.6865 6.30493 16.8994C6.51778 17.173 6.73064 17.4163 6.94349 17.69C7.36919 17.1426 7.94693 16.7169 8.61589 16.4737C8.37263 16.2608 8.09896 16.0176 7.79489 16.048Z" fill="#6BC3C3"/>
<path d="M24.0932 6.9258C24.1844 6.9562 24.3061 6.98661 24.4277 6.98661C24.5797 6.98661 24.7622 6.89539 24.823 6.74335C24.8838 6.59132 24.8838 6.40887 24.7926 6.28725C24.2453 6.07439 23.7283 5.83113 23.2114 5.49665C22.9682 5.77032 22.6945 6.04399 22.4512 6.34806C22.9986 6.5305 23.5459 6.71294 24.0932 6.9258Z" fill="#6BC3C3"/>
<path d="M19.1672 15.1966C19.2585 15.227 19.3801 15.2574 19.5017 15.2574C19.6537 15.2574 19.8362 15.1662 19.897 15.0141C19.9578 14.8621 19.9578 14.6797 19.8666 14.558C19.3193 14.3452 18.8023 14.1019 18.2854 13.7674C18.0422 14.0411 17.7685 14.3148 17.5252 14.6188C18.0726 14.8013 18.6199 14.9837 19.1672 15.1966Z" fill="#6BC3C3"/>
<path d="M16.4914 4.94932C16.5826 4.97973 16.7042 5.01014 16.8259 5.01014C16.9779 5.01014 17.1603 4.91892 17.2212 4.76688C17.282 4.61485 17.282 4.4324 17.1908 4.31077C16.6434 4.09792 16.1265 3.85466 15.6096 3.52018C15.3663 3.79385 15.0927 4.06751 14.8494 4.37159C15.3967 4.55403 15.9441 4.76688 16.4914 4.94932Z" fill="#6BC3C3"/>
<path d="M9.58892 8.93268C9.68014 8.96308 9.80177 8.99349 9.9234 8.99349C10.0754 8.99349 10.2579 8.90227 10.3187 8.75023C10.3795 8.5982 10.3795 8.41575 10.2883 8.29412C9.74096 8.08127 9.22404 7.83802 8.70711 7.50354C8.46385 7.7772 8.19019 8.05087 7.94693 8.35494C8.46385 8.53738 9.04159 8.75023 9.58892 8.93268Z" fill="#6BC3C3"/>
<path d="M15.9136 1.96941C15.4575 2.27349 14.9102 2.45593 14.3933 2.54715C14.4237 2.82082 14.4541 3.09448 14.4845 3.39855C15.0926 3.06407 15.7616 2.82081 16.4306 2.66878C16.1873 2.48633 16.0049 2.24308 15.9136 1.96941Z" fill="#14B661"/>
<path d="M11.7783 15.0141C11.1701 14.9837 10.6228 14.6797 10.2579 14.1931C10.0147 14.4364 9.7714 14.7101 9.52814 14.9533C10.1971 15.1966 10.8356 15.5311 11.4134 15.9568C11.535 15.6527 11.6566 15.3182 11.7783 15.0141Z" fill="#EAD4AF"/>
<path d="M10.4099 4.09792C9.80178 4.06752 9.25445 3.76344 8.88956 3.27692C8.6463 3.52018 8.40305 3.79385 8.15979 4.0371C8.82875 4.28036 9.4673 4.61484 10.045 5.04055C10.1667 4.73647 10.2883 4.402 10.4099 4.09792Z" fill="#EAD4AF"/>
<path d="M21.0829 17.9028C20.4747 17.8724 19.9274 17.5683 19.5625 17.0818C19.3193 17.3251 19.076 17.5988 18.8327 17.842C19.5017 18.0853 20.1402 18.4198 20.718 18.8455C20.8396 18.5414 20.9613 18.2069 21.0829 17.9028Z" fill="#EAD4AF"/>
<path d="M18.2854 13.3721C18.3766 13.4938 18.5287 13.5546 18.6807 13.5546C18.8327 13.5242 18.9848 13.433 19.0456 13.2809C19.0152 12.764 18.9848 12.2167 18.924 11.6997C18.6199 11.791 18.103 12.0038 18.1638 12.0038C18.0422 12.3991 18.0422 12.7944 18.1638 13.1897C18.1942 13.2505 18.2246 13.3113 18.2854 13.3721Z" fill="#CC3131"/>
<path d="M14.5453 14.1019C14.4845 14.0107 14.3629 14.0411 14.2717 14.0715C14.0588 14.1323 13.8156 14.2235 13.6027 14.2844C13.4507 14.8621 13.329 15.4702 13.177 16.048C13.4811 16.048 13.7851 16.048 14.0892 16.048C14.2413 15.4702 14.4237 14.8925 14.5757 14.3148C14.5757 14.254 14.5757 14.1627 14.5453 14.1019Z" fill="#14B661"/>
<path d="M4.96704 19.332C5.66641 19.3016 6.39618 19.3624 7.09555 19.5752C7.15636 19.1799 7.24758 18.7846 7.3084 18.3893C6.66984 18.4502 6.0313 18.4502 5.42315 18.4197C5.27111 18.7238 5.11908 19.0279 4.96704 19.332Z" fill="#14B661"/>
</svg>
